<svg version="1.1" id="レイヤー_1" xmlns="http://www.w3.org/2000/svg" x="0" y="0" width="100%" height="100%" viewBox="0 346.528 1000 298.611" xml:space="preserve"><defs><style>@-webkit-keyframes bg-animate-svg-fill-1{0%{fill:transparent}to{fill:#fff}}@keyframes bg-animate-svg-fill-1{0%{fill:transparent}to{fill:#fff}}@-webkit-keyframes bg-animate-svg-fill-2{0%{fill:transparent}to{fill:#fff}}@keyframes bg-animate-svg-fill-2{0%{fill:transparent}to{fill:#fff}}@-webkit-keyframes bg-animate-svg-fill-3{0%{fill:transparent}to{fill:#fff}}@keyframes bg-animate-svg-fill-3{0%{fill:transparent}to{fill:#fff}}@-webkit-keyframes bg-animate-svg-fill-4{0%{fill:transparent}to{fill:#fff}}@keyframes bg-animate-svg-fill-4{0%{fill:transparent}to{fill:#fff}}@-webkit-keyframes bg-animate-svg-fill-5{0%{fill:transparent}to{fill:#fff}}@keyframes bg-animate-svg-fill-5{0%{fill:transparent}to{fill:#fff}}@-webkit-keyframes bg-animate-svg-fill-6{0%{fill:transparent}to{fill:#fff}}@keyframes bg-animate-svg-fill-6{0%{fill:transparent}to{fill:#fff}}@-webkit-keyframes bg-animate-svg-fill-7{0%{fill:transparent}to{fill:#f8fc30}}@keyframes bg-animate-svg-fill-7{0%{fill:transparent}to{fill:#f8fc30}}</style></defs><path fill="#FFF" d="M32.893 640.973V388.958H-1.26v-38.264h111.243v38.264H77.156v252.014H32.893z" style="WebkitAnimation:bg-animate-svg-fill-1 .7s cubic-bezier(.95,.05,.795,.035) 0s both;animation:bg-animate-svg-fill-1 .7s cubic-bezier(.95,.05,.795,.035) 0s both"/><path fill="#FFF" d="M212.938 553.725l-19.563-145.799h-.663l-17.905 145.799h38.131zm-91.515 87.248l41.613-290.278h58.688l44.266 290.278h-41.447l-6.963-51.789h-47.084l-6.3 51.789h-42.773z" style="WebkitAnimation:bg-animate-svg-fill-2 .7s cubic-bezier(.95,.05,.795,.035) .1s both;animation:bg-animate-svg-fill-2 .7s cubic-bezier(.95,.05,.795,.035) .1s both"/><path fill="#FFF" d="M296.494 640.973V350.694h55.207l41.447 212.101 38.961-212.101h55.539v290.278h-39.623V532.777l1.658-99.288-39.292 206.163h-35.314l-40.949-206.163 1.657 99.288v108.195h-39.291z" style="WebkitAnimation:bg-animate-svg-fill-3 .7s cubic-bezier(.95,.05,.795,.035) .2s both;animation:bg-animate-svg-fill-3 .7s cubic-bezier(.95,.05,.795,.035) .2s both"/><path fill="#FFF" d="M546.503 640.973V388.958h-34.152v-38.264h111.243v38.264h-32.826v252.014h-44.265z" style="WebkitAnimation:bg-animate-svg-fill-4 .7s cubic-bezier(.95,.05,.795,.035) .30000000000000004s both;animation:bg-animate-svg-fill-4 .7s cubic-bezier(.95,.05,.795,.035) .30000000000000004s both"/><path fill="#FFF" d="M726.548 553.725l-19.563-145.8h-.659l-17.908 145.8h38.13zm-91.515 87.248l41.613-290.278h58.687l44.271 290.278h-41.451l-6.958-51.789h-47.088l-6.3 51.789h-42.774z" style="WebkitAnimation:bg-animate-svg-fill-5 .7s cubic-bezier(.95,.05,.795,.035) .4s both;animation:bg-animate-svg-fill-5 .7s cubic-bezier(.95,.05,.795,.035) .4s both"/><path fill="#FFF" d="M810.104 640.973V350.694h55.209l41.45 212.101 38.959-212.101h55.534v290.278h-39.617V532.777l1.652-99.288L924 639.652h-35.313l-40.944-206.163 1.653 99.288v108.195h-39.292z" style="WebkitAnimation:bg-animate-svg-fill-6 .7s cubic-bezier(.95,.05,.795,.035) .5s both;animation:bg-animate-svg-fill-6 .7s cubic-bezier(.95,.05,.795,.035) .5s both"/><path fill="#F8FC30" d="M32.893 645.139a4.167 4.167 0 01-4.167-4.166V393.125H-1.26a4.167 4.167 0 01-4.167-4.167v-38.264a4.167 4.167 0 014.167-4.167h111.243a4.167 4.167 0 014.166 4.167v38.264c0 2.3-1.865 4.167-4.166 4.167h-28.66v247.848a4.166 4.166 0 01-4.167 4.166H32.893zm44.264-256.181h32.826v-38.264H-1.26v38.264h34.152v252.014h44.265V388.958zm41.118 254.743a4.17 4.17 0 01-.976-3.319l41.612-290.279a4.167 4.167 0 014.125-3.575h58.688a4.166 4.166 0 014.119 3.539l44.266 290.278a4.163 4.163 0 01-4.119 4.794h-41.447a4.166 4.166 0 01-4.129-3.611l-6.479-48.177h-39.748l-5.855 48.125a4.166 4.166 0 01-4.136 3.663h-42.773a4.164 4.164 0 01-3.148-1.438zm52.221-54.517h47.084l6.963 51.789h41.447l-44.267-290.278h-58.688l-41.613 290.278h42.773l6.301-51.789zm125.998 55.955a4.167 4.167 0 01-4.167-4.166V350.694a4.167 4.167 0 014.167-4.167h55.207a4.169 4.169 0 014.09 3.367l37.23 190.527 34.99-190.48a4.165 4.165 0 014.098-3.414h55.539a4.167 4.167 0 014.167 4.167v290.278a4.167 4.167 0 01-4.167 4.166h-39.623a4.167 4.167 0 01-4.167-4.166V532.777v-.069l.851-50.86-30.224 158.584a4.168 4.168 0 01-4.094 3.387h-35.313a4.168 4.168 0 01-4.087-3.354l-31.923-160.719.883 52.963.001.069v108.195a4.166 4.166 0 01-4.167 4.166h-39.291zm37.635-211.65l40.949 206.163h35.313l39.292-206.163-1.659 99.288v108.195h39.624V350.694h-55.54l-38.96 212.101-41.447-212.101h-55.207v290.278h39.291V532.777l-1.656-99.288zm212.374 211.65a4.166 4.166 0 01-4.167-4.166V393.125h-29.985a4.167 4.167 0 01-4.167-4.167v-38.264a4.167 4.167 0 014.167-4.167h111.243a4.167 4.167 0 014.167 4.167v38.264c0 2.3-1.865 4.167-4.167 4.167h-28.659v247.848a4.167 4.167 0 01-4.167 4.166h-44.265zm44.266-256.181h32.826v-38.264H512.351v38.264h34.152v252.014h44.266V388.958zm41.117 254.743a4.163 4.163 0 01-.977-3.319l41.613-290.279a4.167 4.167 0 014.124-3.575h58.687a4.17 4.17 0 014.124 3.539l44.264 290.278a4.162 4.162 0 01-4.118 4.794h-41.451a4.164 4.164 0 01-4.124-3.611l-6.479-48.177h-39.75l-5.855 48.125a4.164 4.164 0 01-4.136 3.663h-42.773a4.165 4.165 0 01-3.149-1.438zm52.222-54.517h47.087l6.958 51.789h41.451l-44.271-290.278h-58.687l-41.613 290.278h42.773l6.302-51.789zm125.996 55.955a4.167 4.167 0 01-4.166-4.166V350.694a4.168 4.168 0 014.166-4.167h55.209a4.169 4.169 0 014.09 3.367l37.229 190.527 34.993-190.48a4.16 4.16 0 014.097-3.414h55.535a4.163 4.163 0 014.166 4.167v290.278a4.163 4.163 0 01-4.166 4.166h-39.618a4.163 4.163 0 01-4.167-4.166V532.708l.848-50.86-30.224 158.585A4.171 4.171 0 01924 643.82h-35.313a4.166 4.166 0 01-4.083-3.354l-31.924-160.72.883 52.963V640.974a4.164 4.164 0 01-4.167 4.166h-39.292zm37.638-211.65l40.944 206.163H924l39.291-206.163-1.652 99.288v108.195h39.617V350.694h-55.534l-38.959 212.101-41.45-212.101h-55.209v290.278h39.292V532.777l-1.654-99.288zm-655.03-25.563h.663l19.563 145.799h-38.131l17.905-145.799zm.5 30.113l-13.695 111.519h28.658l-14.963-111.519zm513.114-30.113h.659l19.563 145.799h-38.13l17.908-145.799zm.5 30.113l-13.699 111.519h28.656l-14.957-111.519z" style="WebkitAnimation:bg-animate-svg-fill-7 .7s cubic-bezier(.95,.05,.795,.035) .6000000000000001s both;animation:bg-animate-svg-fill-7 .7s cubic-bezier(.95,.05,.795,.035) .6000000000000001s both"/></svg>