<?xml version="1.0" encoding="utf-8"?>
<!-- Generator: Adobe Illustrator 16.0.0, SVG Export Plug-In . SVG Version: 6.00 Build 0)  -->
<!DOCTYPE svg PUBLIC "-//W3C//DTD SVG 1.1//EN" "http://www.w3.org/Graphics/SVG/1.1/DTD/svg11.dtd">
<svg version="1.1" id="レイヤー_1" xmlns="http://www.w3.org/2000/svg" xmlns:xlink="http://www.w3.org/1999/xlink" x="0px"
	 y="0px" width="1440px" height="442px" viewBox="0 0 1440 442" enable-background="new 0 0 1440 442" xml:space="preserve">
<g>
	<path fill="#FFFFFF" d="M47.365,424V61.1H-1.814V6h160.19v55.1h-47.27V424H47.365z"/>
	<path fill="#FFFFFF" d="M306.631,298.363L278.46,88.413h-0.955l-25.783,209.951H306.631z M174.849,424L234.772,6h84.512l63.742,418
		h-59.684l-10.027-74.575h-67.8L236.443,424H174.849z"/>
	<path fill="#FFFFFF" d="M426.952,424V6h79.499l59.684,305.425L622.238,6h79.977v418h-57.058V268.2l2.388-142.975L590.964,422.1
		h-50.852l-58.967-296.875l2.387,142.975V424H426.952z"/>
	<path fill="#FFFFFF" d="M786.965,424V61.1h-49.18V6h160.191v55.1h-47.27V424H786.965z"/>
	<path fill="#FFFFFF" d="M1046.23,298.363l-28.17-209.951h-0.95l-25.788,209.951H1046.23z M914.448,424L974.371,6h84.509l63.75,418
		h-59.69l-10.02-74.575h-67.806L976.043,424H914.448z"/>
	<path fill="#FFFFFF" d="M1166.55,424V6h79.5l59.689,305.425L1361.84,6h79.97v418h-57.05V268.2l2.38-142.975L1330.56,422.1h-50.851
		l-58.959-296.875l2.38,142.975V424H1166.55z"/>
</g>
<g>
	<path fill="#F8FC30" d="M47.365,430c-3.313,0-6-2.686-6-6V67.1H-1.814c-3.314,0-6-2.687-6-6V6c0-3.313,2.686-6,6-6h160.19
		c3.313,0,6,2.687,6,6v55.1c0,3.313-2.687,6-6,6h-41.27V424c0,3.314-2.686,6-6,6H47.365z M111.107,61.1h47.27V6H-1.814v55.1h49.179
		V424h63.742V61.1z M170.315,427.93c-1.139-1.314-1.651-3.059-1.404-4.78L228.832,5.148C229.256,2.194,231.787,0,234.772,0h84.512
		c2.964,0,5.484,2.165,5.932,5.096l63.742,418c0.264,1.729-0.24,3.487-1.381,4.814c-1.14,1.327-2.802,2.09-4.551,2.09h-59.684
		c-3.005,0-5.546-2.223-5.946-5.2l-9.328-69.375h-57.238l-8.431,69.3c-0.367,3.012-2.923,5.275-5.956,5.275h-61.594
		C173.109,430,171.455,429.245,170.315,427.93z M245.515,349.425h67.8L323.342,424h59.684L319.283,6h-84.512l-59.923,418h61.594
		L245.515,349.425z M426.952,430c-3.313,0-6-2.686-6-6V6c0-3.313,2.687-6,6-6h79.499c2.87,0,5.338,2.033,5.889,4.849l53.612,274.358
		L616.337,4.916C616.86,2.068,619.342,0,622.238,0h79.977c3.313,0,6,2.687,6,6v418c0,3.314-2.687,6-6,6h-57.058
		c-3.313,0-6-2.686-6-6V268.2c0-0.033,0-0.067,0-0.101l1.224-73.239l-43.522,228.362c-0.54,2.83-3.014,4.877-5.894,4.877h-50.852
		c-2.862,0-5.327-2.022-5.885-4.831l-45.969-231.435l1.272,76.266c0.001,0.033,0.001,0.067,0.001,0.101V424c0,3.314-2.686,6-6,6
		H426.952z M481.146,125.225L540.113,422.1h50.852l56.58-296.875L645.156,268.2V424h57.058V6h-79.977l-56.103,305.425L506.451,6
		h-79.499v418h56.58V268.2L481.146,125.225z M786.965,430c-3.314,0-6-2.686-6-6V67.1h-43.18c-3.313,0-6-2.687-6-6V6
		c0-3.313,2.687-6,6-6h160.191c3.314,0,6,2.687,6,6v55.1c0,3.313-2.686,6-6,6h-41.27V424c0,3.314-2.687,6-6,6H786.965z
		 M850.707,61.1h47.27V6H737.785v55.1h49.18V424h63.742V61.1z M909.916,427.93c-1.141-1.314-1.653-3.059-1.406-4.78L968.433,5.148
		C968.856,2.194,971.387,0,974.371,0h84.509c2.97,0,5.489,2.165,5.939,5.096l63.74,418c0.26,1.729-0.24,3.487-1.38,4.814
		c-1.141,1.327-2.8,2.09-4.55,2.09h-59.69c-3,0-5.54-2.223-5.939-5.2l-9.33-69.375h-57.241l-8.431,69.3
		c-0.365,3.012-2.922,5.275-5.955,5.275h-61.595C912.709,430,911.055,429.245,909.916,427.93z M985.115,349.425h67.806L1062.94,424
		h59.69L1058.88,6h-84.509l-59.923,418h61.595L985.115,349.425z M1166.55,430c-3.311,0-6-2.686-6-6V6c0-3.313,2.689-6,6-6h79.5
		c2.87,0,5.34,2.033,5.89,4.849l53.61,274.358l50.39-274.291c0.52-2.848,3-4.916,5.9-4.916h79.97c3.32,0,6,2.687,6,6v418
		c0,3.314-2.68,6-6,6h-57.05c-3.32,0-6-2.686-6-6V268.2v-0.037V268.1l1.22-73.239l-43.521,228.362
		c-0.539,2.83-3.02,4.877-5.899,4.877h-50.851c-2.859,0-5.319-2.022-5.88-4.831l-45.97-231.436l1.271,76.267
		c0,0.024,0,0.049,0,0.072v0.028V424c0,3.314-2.681,6-6,6H1166.55z M1220.75,125.225l58.959,296.875h50.851l56.58-296.875
		l-2.38,142.975V424h57.05V6h-79.97l-56.101,305.425L1246.05,6h-79.5v418h56.58V268.2L1220.75,125.225z M277.505,88.413h0.955
		l28.171,209.951h-54.909L277.505,88.413z M278.225,131.777l-19.721,160.586h41.268L278.225,131.777z M1017.11,88.413h0.95
		l28.17,209.951h-54.908L1017.11,88.413z M1017.83,131.777l-19.727,160.586h41.266L1017.83,131.777z"/>
</g>
</svg>
