<svg version="1.1" id="レイヤー_1" xmlns="http://www.w3.org/2000/svg" xmlns:xlink="http://www.w3.org/1999/xlink" x="0px" y="0px" width="100%" height="100%" viewBox="0 346.528 1000 298.611" enable-background="new 0 346.528 1000 298.611" xml:space="preserve">
<title>TAMTAM</title>
<defs>
	<style>
		@-webkit-keyframes bg-animate-svg-fill-1{0%{fill:transparent}100%{fill:rgb(255,255,255)}}@keyframes bg-animate-svg-fill-1{0%{fill:transparent}100%{fill:rgb(255,255,255)}}.svg-elem-bg-1{-webkit-animation:bg-animate-svg-fill-1 0.7s cubic-bezier(0.95,0.05,0.795,0.035) 0s both;animation:bg-animate-svg-fill-1 0.7s cubic-bezier(0.95,0.05,0.795,0.035) 0s both}@-webkit-keyframes bg-animate-svg-fill-2{0%{fill:transparent}100%{fill:rgb(255,255,255)}}@keyframes bg-animate-svg-fill-2{0%{fill:transparent}100%{fill:rgb(255,255,255)}}.svg-elem-bg-2{-webkit-animation:bg-animate-svg-fill-2 0.7s cubic-bezier(0.95,0.05,0.795,0.035) 0.1s both;animation:bg-animate-svg-fill-2 0.7s cubic-bezier(0.95,0.05,0.795,0.035) 0.1s both}@-webkit-keyframes bg-animate-svg-fill-3{0%{fill:transparent}100%{fill:rgb(255,255,255)}}@keyframes bg-animate-svg-fill-3{0%{fill:transparent}100%{fill:rgb(255,255,255)}}.svg-elem-bg-3{-webkit-animation:bg-animate-svg-fill-3 0.7s cubic-bezier(0.95,0.05,0.795,0.035) 0.2s both;animation:bg-animate-svg-fill-3 0.7s cubic-bezier(0.95,0.05,0.795,0.035) 0.2s both}@-webkit-keyframes bg-animate-svg-fill-4{0%{fill:transparent}100%{fill:rgb(255,255,255)}}@keyframes bg-animate-svg-fill-4{0%{fill:transparent}100%{fill:rgb(255,255,255)}}.svg-elem-bg-4{-webkit-animation:bg-animate-svg-fill-4 0.7s cubic-bezier(0.95,0.05,0.795,0.035) 0.30000000000000004s both;animation:bg-animate-svg-fill-4 0.7s cubic-bezier(0.95,0.05,0.795,0.035) 0.30000000000000004s both}@-webkit-keyframes bg-animate-svg-fill-5{0%{fill:transparent}100%{fill:rgb(255,255,255)}}@keyframes bg-animate-svg-fill-5{0%{fill:transparent}100%{fill:rgb(255,255,255)}}.svg-elem-bg-5{-webkit-animation:bg-animate-svg-fill-5 0.7s cubic-bezier(0.95,0.05,0.795,0.035) 0.4s both;animation:bg-animate-svg-fill-5 0.7s cubic-bezier(0.95,0.05,0.795,0.035) 0.4s both}@-webkit-keyframes bg-animate-svg-fill-6{0%{fill:transparent}100%{fill:rgb(255,255,255)}}@keyframes bg-animate-svg-fill-6{0%{fill:transparent}100%{fill:rgb(255,255,255)}}.svg-elem-bg-6{-webkit-animation:bg-animate-svg-fill-6 0.7s cubic-bezier(0.95,0.05,0.795,0.035) 0.5s both;animation:bg-animate-svg-fill-6 0.7s cubic-bezier(0.95,0.05,0.795,0.035) 0.5s both}@-webkit-keyframes bg-animate-svg-fill-7{0%{fill:transparent}100%{fill:rgb(248,252,48)}}@keyframes bg-animate-svg-fill-7{0%{fill:transparent}100%{fill:rgb(248,252,48)}}.svg-elem-bg-7{-webkit-animation:bg-animate-svg-fill-7 0.7s cubic-bezier(0.95,0.05,0.795,0.035) 0.6000000000000001s both;animation:bg-animate-svg-fill-7 0.7s cubic-bezier(0.95,0.05,0.795,0.035) 0.6000000000000001s both}
	</style>
</defs>
<path fill="#FFFFFF" d="M32.893,640.973V388.958H-1.26v-38.264h111.243v38.264H77.156v252.014H32.893z" class="svg-elem-bg-1"></path>
<path fill="#FFFFFF" d="M212.938,553.725l-19.563-145.799h-0.663l-17.905,145.799H212.938L212.938,553.725z M121.423,640.973
	l41.613-290.278h58.688l44.266,290.278h-41.447l-6.963-51.789h-47.084l-6.3,51.789H121.423z" class="svg-elem-bg-2"></path>
<path fill="#FFFFFF" d="M296.494,640.973V350.694h55.207l41.447,212.101l38.961-212.101h55.539v290.278h-39.623V532.777
	l1.658-99.288l-39.292,206.163h-35.314l-40.949-206.163l1.657,99.288v108.195H296.494z" class="svg-elem-bg-3"></path>
<path fill="#FFFFFF" d="M546.503,640.973V388.958h-34.152v-38.264h111.243v38.264h-32.826v252.014H546.503z" class="svg-elem-bg-4"></path>
<path fill="#FFFFFF" d="M726.548,553.725l-19.563-145.8h-0.659l-17.908,145.8H726.548z M635.033,640.973l41.613-290.278h58.687
	l44.271,290.278h-41.451l-6.958-51.789h-47.088l-6.3,51.789H635.033z" class="svg-elem-bg-5"></path>
<path fill="#FFFFFF" d="M810.104,640.973V350.694h55.209l41.45,212.101l38.959-212.101h55.534v290.278h-39.617V532.777l1.652-99.288
	L924,639.652h-35.313l-40.944-206.163l1.653,99.288v108.195H810.104z" class="svg-elem-bg-6"></path>
<path fill="#F8FC30" d="M32.893,645.139c-2.301,0-4.167-1.865-4.167-4.166V393.125H-1.26c-2.302,0-4.167-1.866-4.167-4.167v-38.264
	c0-2.301,1.865-4.167,4.167-4.167h111.243c2.301,0,4.166,1.866,4.166,4.167v38.264c0,2.3-1.865,4.167-4.166,4.167h-28.66v247.848
	c0,2.301-1.865,4.166-4.167,4.166H32.893z M77.157,388.958h32.826v-38.264H-1.26v38.264h34.152v252.014h44.265V388.958z
	 M118.275,643.701c-0.791-0.912-1.146-2.124-0.976-3.319l41.612-290.279c0.294-2.051,2.052-3.575,4.125-3.575h58.688
	c2.059,0,3.809,1.503,4.119,3.539l44.266,290.278c0.184,1.2-0.167,2.421-0.959,3.343s-1.945,1.451-3.16,1.451h-41.447
	c-2.087,0-3.852-1.544-4.129-3.611l-6.479-48.177h-39.748l-5.855,48.125c-0.255,2.092-2.029,3.663-4.136,3.663h-42.773
	C120.214,645.139,119.066,644.614,118.275,643.701z M170.496,589.184h47.084l6.963,51.789h41.447l-44.267-290.278h-58.688
	l-41.613,290.278h42.773L170.496,589.184z M296.494,645.139c-2.301,0-4.167-1.865-4.167-4.166V350.694
	c0-2.301,1.866-4.167,4.167-4.167h55.207c1.993,0,3.707,1.412,4.09,3.367l37.23,190.527l34.99-190.48
	c0.363-1.978,2.086-3.414,4.098-3.414h55.539c2.301,0,4.167,1.866,4.167,4.167v290.278c0,2.301-1.866,4.166-4.167,4.166h-39.623
	c-2.301,0-4.167-1.865-4.167-4.166V532.777c0-0.022,0-0.046,0-0.069l0.851-50.86l-30.224,158.584
	c-0.375,1.966-2.094,3.387-4.094,3.387h-35.313c-1.987,0-3.699-1.404-4.087-3.354l-31.923-160.719l0.883,52.963
	c0.001,0.022,0.001,0.046,0.001,0.069v108.195c0,2.301-1.865,4.166-4.167,4.166H296.494z M334.129,433.489l40.949,206.163h35.313
	l39.292-206.163l-1.659,99.288v108.195h39.624V350.694h-55.54l-38.96,212.101l-41.447-212.101h-55.207v290.278h39.291V532.777
	L334.129,433.489z M546.503,645.139c-2.302,0-4.167-1.865-4.167-4.166V393.125h-29.985c-2.301,0-4.167-1.866-4.167-4.167v-38.264
	c0-2.301,1.866-4.167,4.167-4.167h111.243c2.302,0,4.167,1.866,4.167,4.167v38.264c0,2.3-1.865,4.167-4.167,4.167h-28.659v247.848
	c0,2.301-1.866,4.166-4.167,4.166H546.503z M590.769,388.958h32.826v-38.264H512.351v38.264h34.152v252.014h44.266V388.958z
	 M631.886,643.701c-0.792-0.912-1.148-2.124-0.977-3.319l41.613-290.279c0.294-2.051,2.052-3.575,4.124-3.575h58.687
	c2.063,0,3.812,1.503,4.124,3.539l44.264,290.278c0.181,1.2-0.166,2.421-0.958,3.343s-1.944,1.451-3.16,1.451h-41.451
	c-2.083,0-3.847-1.544-4.124-3.611l-6.479-48.177h-39.75l-5.855,48.125c-0.253,2.092-2.029,3.663-4.136,3.663h-42.773
	C633.825,645.139,632.677,644.614,631.886,643.701z M684.108,589.184h47.087l6.958,51.789h41.451l-44.271-290.278h-58.687
	l-41.613,290.278h42.773L684.108,589.184z M810.104,645.139c-2.299,0-4.166-1.865-4.166-4.166V350.694
	c0-2.301,1.867-4.167,4.166-4.167h55.209c1.992,0,3.708,1.412,4.09,3.367l37.229,190.527l34.993-190.48
	c0.36-1.978,2.083-3.414,4.097-3.414h55.535c2.306,0,4.166,1.866,4.166,4.167v290.278c0,2.301-1.86,4.166-4.166,4.166h-39.618
	c-2.306,0-4.167-1.865-4.167-4.166V532.777v-0.025v-0.044l0.848-50.86l-30.224,158.585c-0.374,1.965-2.097,3.387-4.096,3.387
	h-35.313c-1.985,0-3.694-1.404-4.083-3.354l-31.924-160.72l0.883,52.963c0,0.017,0,0.034,0,0.051v0.019v108.195
	c0,2.301-1.862,4.166-4.167,4.166H810.104z M847.742,433.489l40.944,206.163H924l39.291-206.163l-1.652,99.288v108.195h39.617
	V350.694h-55.534l-38.959,212.101l-41.45-212.101h-55.209v290.278h39.292V532.777L847.742,433.489z M192.712,407.926h0.663
	l19.563,145.799h-38.131L192.712,407.926z M193.212,438.039l-13.695,111.519h28.658L193.212,438.039z M706.326,407.926h0.659
	l19.563,145.799h-38.13L706.326,407.926z M706.826,438.039l-13.699,111.519h28.656L706.826,438.039z" class="svg-elem-bg-7"></path>
</svg>
