<svg xmlns="http://www.w3.org/2000/svg" width="1440" height="1595.406"><path fill="#F7F7F7" d="M695.53-146.897l7.072 7.071-724.064 724.064-7.07-7.071z"/><path fill="#F8FC30" d="M702.606-139.85l7.072 7.072-724.063 724.166-7.072-7.071z"/><path fill="#F7F7F7" d="M709.743-132.728l7.07 7.072L-7.351 598.407l-7.071-7.072z"/><path fill="#F8FC30" d="M716.728-125.68l7.07 7.07L-.264 605.452l-7.07-7.07z"/><path fill="#F7F7F7" d="M723.82-118.633l7.072 7.07L6.83 612.605l-7.072-7.071z"/><path fill="#F8FC30" d="M730.957-111.513l7.07 7.072L13.863 619.622 6.79 612.55z"/><path fill="#F7F7F7" d="M737.94-104.468l7.07 7.07L20.949 626.666l-7.07-7.07z"/><path fill="#F8FC30" d="M745.041-97.403l7.071 7.07L28.05 633.732l-7.071-7.07z"/><path fill="#F7F7F7" d="M752.097-90.329l7.071 7.071L35.105 640.805l-7.07-7.07z"/><path fill="#F8FC30" d="M759.187-83.26l7.071 7.07L42.195 647.873l-7.07-7.07z"/><path fill="#F7F7F7" d="M766.241-76.187l7.071 7.071L49.25 654.948l-7.07-7.071z"/><path fill="#F8FC30" d="M773.33-69.119l7.07 7.071L56.337 662.015l-7.071-7.07z"/><path fill="#F7F7F7" d="M780.44-62.01l7.07 7.073L63.346 669.126l-7.071-7.072z"/><path fill="#F8FC30" d="M787.436-54.97l7.07 7.07L70.443 676.164l-7.07-7.07z"/><path fill="#F7F7F7" d="M794.55-47.919l7.071 7.071L77.558 683.318l-7.072-7.071z"/><path fill="#F8FC30" d="M801.602-40.844l7.072 7.071L84.611 690.393l-7.072-7.071z"/><path fill="#F7F7F7" d="M808.647-33.756l7.07 7.07L91.656 697.377l-7.07-7.07z"/><path fill="#F8FC30" d="M815.794-26.649l7.071 7.072L98.699 704.486l-7.07-7.072z"/><path fill="#F7F7F7" d="M822.828-19.62l7.071 7.07-724.063 724.064-7.071-7.071z"/><path fill="#F8FC30" d="M829.956-12.573l7.072 7.073L112.81 718.614l-7.072-7.073z"/><path fill="#F7F7F7" d="M836.97-5.478l7.072 7.071-724.064 724.063-7.07-7.07z"/><path fill="#F8FC30" d="M844.023 1.595l7.07 7.071L127.03 732.73l-7.07-7.07z"/><path fill="#F7F7F7" d="M851.093 8.666l7.071 7.07L134.101 739.8l-7.071-7.071z"/><path fill="#F8FC30" d="M858.143 15.741l7.07 7.07L141.15 746.875l-7.07-7.07z"/><path fill="#F7F7F7" d="M865.243 22.801l7.072 7.071-724.063 724.166-7.072-7.07z"/><path fill="#F8FC30" d="M872.306 29.88l7.071 7.07-724.063 724.064-7.071-7.071z"/><path fill="#F7F7F7" d="M879.454 36.924l7.072 7.073-724.217 724.114-7.072-7.072z"/><path fill="#F8FC30" d="M886.472 44.018l7.07 7.071L169.48 775.153l-7.07-7.071z"/><path fill="#F7F7F7" d="M893.542 51.089l7.071 7.07L176.55 782.224l-7.071-7.07z"/><path fill="#F8FC30" d="M900.615 58.16l7.071 7.071-724.063 724.064-7.07-7.071z"/><path fill="#F7F7F7" d="M907.67 65.232l7.071 7.071L190.678 796.47l-7.072-7.071z"/><path fill="#F8FC30" d="M914.757 72.302l7.07 7.07-724.062 724.064-7.071-7.07z"/><path fill="#F7F7F7" d="M921.803 79.377l7.071 7.07-724.063 724.064-7.07-7.07z"/><path fill="#F8FC30" d="M928.876 86.448l7.07 7.071-724.063 724.064-7.071-7.071z"/><path fill="#F7F7F7" d="M936.002 93.57l7.071 7.073-724.165 724.063-7.071-7.072z"/><path fill="#F8FC30" d="M943.041 100.587l7.071 7.071L226.05 831.721l-7.071-7.07z"/><path fill="#F7F7F7" d="M950.089 107.66l7.07 7.072-724.063 724.064-7.071-7.071z"/><path fill="#F8FC30" d="M957.133 114.736l7.07 7.07L240.14 845.87l-7.07-7.07z"/><path fill="#F7F7F7" d="M964.232 121.803l7.07 7.071L247.24 852.938l-7.07-7.071z"/><path fill="#F8FC30" d="M971.33 128.872l7.07 7.07-724.064 724.063-7.07-7.07z"/><path fill="#F7F7F7" d="M978.346 135.947l7.07 7.07-724.063 724.064-7.07-7.07z"/><path fill="#F8FC30" d="M985.499 143.073l7.07 7.072-724.164 724.063-7.071-7.072z"/><path fill="#F7F7F7" d="M992.543 150.084l7.07 7.07L275.55 881.219l-7.07-7.07z"/><path fill="#F8FC30" d="M999.585 157.16l7.071 7.07-724.063 724.064-7.07-7.071z"/><path fill="#F7F7F7" d="M1006.689 164.234l7.072 7.071-724.064 724.166-7.072-7.07z"/><path fill="#F8FC30" d="M1013.723 171.3l7.07 7.072L296.73 902.435l-7.07-7.07z"/><path fill="#F7F7F7" d="M1020.802 178.372l7.071 7.071L303.81 909.507l-7.071-7.071z"/><path fill="#F8FC30" d="M1027.844 185.446l7.07 7.07-724.063 724.063-7.07-7.07z"/><path fill="#F7F7F7" d="M1034.944 192.514l7.07 7.07-724.063 724.064-7.07-7.07z"/><path fill="#F8FC30" d="M1042.05 199.594l7.072 7.07L325.06 930.83l-7.072-7.07z"/><path fill="#F7F7F7" d="M1049.159 206.63l7.071 7.073-724.217 724.115-7.072-7.073z"/><path fill="#F8FC30" d="M1056.153 213.727l7.07 7.071L339.16 944.862l-7.07-7.071z"/><path fill="#F7F7F7" d="M1063.23 220.811l7.071 7.071-724.063 724.166-7.072-7.071z"/><path fill="#F8FC30" d="M1070.294 227.869l7.07 7.071-724.063 724.064-7.071-7.071z"/><path fill="#F7F7F7" d="M1077.402 234.952l7.072 7.07L360.41 966.189l-7.072-7.07z"/><path fill="#F8FC30" d="M1084.444 242.011l7.07 7.07-724.063 724.064-7.07-7.07z"/><path fill="#F7F7F7" d="M1091.546 249.079l7.07 7.07-724.063 724.065-7.071-7.071z"/><path fill="#F8FC30" d="M1098.658 256.128l7.071 7.072-724.216 724.114-7.071-7.072z"/><path fill="#F7F7F7" d="M1105.66 263.242l7.072 7.071L388.668 994.48l-7.072-7.071z"/><path fill="#F8FC30" d="M1112.757 270.293l7.071 7.07-724.064 724.065-7.07-7.071z"/><path fill="#F7F7F7" d="M1119.794 277.367l7.07 7.071-724.063 724.064-7.071-7.07z"/><path fill="#F8FC30" d="M1126.897 284.435l7.071 7.071-724.063 724.064-7.07-7.071z"/><path fill="#F7F7F7" d="M1133.94 291.528l7.072 7.071-724.063 724.166-7.072-7.07z"/><path fill="#F8FC30" d="M1141.078 298.553l7.071 7.072-724.216 724.115-7.071-7.072z"/><path fill="#F7F7F7" d="M1148.048 305.655l7.07 7.07-724.063 724.063-7.07-7.07z"/><path fill="#F8FC30" d="M1155.209 312.796l7.07 7.072-724.165 724.063-7.07-7.072z"/><path fill="#F7F7F7" d="M1162.258 319.79l7.071 7.071-724.063 724.064-7.071-7.071z"/><path fill="#F8FC30" d="M1169.293 326.865l7.071 7.07L452.3 1058l-7.07-7.071z"/><path fill="#F7F7F7" d="M1176.363 333.934l7.07 7.071-724.062 724.064-7.071-7.071z"/><path fill="#F8FC30" d="M1183.488 341.082l7.07 7.072-724.165 724.063-7.07-7.072z"/><path fill="#F7F7F7" d="M1190.571 348.025l7.07 7.072-724.216 724.012-7.07-7.072z"/><path fill="#F8FC30" d="M1197.61 355.145l7.072 7.071-724.064 724.064-7.071-7.071z"/><path fill="#F7F7F7" d="M1204.642 362.22l7.071 7.07-724.063 724.064-7.071-7.07z"/><path fill="#F8FC30" d="M1211.76 369.315l7.071 7.071-724.064 724.167-7.072-7.071z"/><path fill="#F7F7F7" d="M1218.887 376.439l7.07 7.072-724.165 724.063-7.071-7.072z"/><path fill="#F8FC30" d="M1225.863 383.433l7.07 7.07-724.063 724.065-7.071-7.071z"/><path fill="#F7F7F7" d="M1233.027 390.583l7.071 7.072-724.166 724.063-7.07-7.072z"/><path fill="#F8FC30" d="M1240.011 397.606l7.072 7.07-724.064 724.167-7.072-7.07z"/><path fill="#F7F7F7" d="M1247.113 404.644l7.071 7.07-724.063 724.064-7.07-7.071z"/><path fill="#F8FC30" d="M1254.143 411.716l7.07 7.071-724.063 724.064-7.07-7.071z"/><path fill="#F7F7F7" d="M1261.183 418.627l7.072 7.07-724.013 724.218-7.072-7.07z"/><path fill="#F8FC30" d="M1268.284 425.859l7.07 7.07-724.063 724.064-7.07-7.07z"/><path fill="#F7F7F7" d="M1275.353 432.93l7.07 7.07-724.063 724.064-7.07-7.071z"/><path fill="#F8FC30" d="M1282.488 440.087l7.071 7.072-724.166 724.064-7.07-7.072z"/><path fill="#F7F7F7" d="M1289.58 447.044l7.071 7.073-724.217 724.115-7.072-7.073z"/><path fill="#F8FC30" d="M1296.628 454.23l7.071 7.073-724.165 724.063-7.071-7.072z"/><path fill="#F7F7F7" d="M1303.698 461.302l7.07 7.072-724.165 724.064-7.071-7.072z"/><path fill="#F8FC30" d="M1310.737 468.209l7.073 7.071-724.115 724.218-7.073-7.072z"/><path fill="#F7F7F7" d="M1317.838 475.447l7.071 7.072-724.166 724.063-7.07-7.072z"/><path fill="#F8FC30" d="M1324.853 482.428l7.07 7.07-724.063 724.064-7.07-7.071z"/><path fill="#F7F7F7" d="M1331.947 489.422l7.073 7.071-724.115 724.218-7.073-7.072z"/><path fill="#F8FC30" d="M1339.07 496.543l7.071 7.072-724.217 724.115-7.072-7.072z"/><path fill="#F7F7F7" d="M1346.072 503.641l7.071 7.071-724.063 724.064-7.07-7.071z"/><path fill="#F8FC30" d="M1353.143 510.711l7.07 7.07-724.064 724.065-7.07-7.07z"/><path fill="#F7F7F7" d="M1360.267 517.879l7.071 7.072-724.166 724.063-7.07-7.072z"/><path fill="#F8FC30" d="M1367.338 524.95l7.071 7.071-724.166 724.063-7.07-7.072z"/><path fill="#F7F7F7" d="M1374.353 531.925l7.07 7.07L657.36 1263.06l-7.07-7.07z"/><path fill="#F8FC30" d="M1381.477 539.094l7.07 7.072-724.165 724.063-7.07-7.072z"/><path fill="#F7F7F7" d="M1388.494 546.068l7.07 7.07L671.5 1277.202l-7.07-7.07z"/><path fill="#F8FC30" d="M1395.563 553.138l7.07 7.07-724.063 724.064-7.07-7.071z"/><path fill="#F7F7F7" d="M1402.687 560.309l7.07 7.072-724.165 724.063-7.07-7.072z"/><path fill="#F8FC30" d="M1409.726 567.203l7.073 7.072-724.115 724.217-7.072-7.072z"/><path fill="#F7F7F7" d="M1416.838 574.452l7.071 7.072-724.166 724.064-7.07-7.072z"/><path fill="#F8FC30" d="M1423.86 581.472l7.072 7.071L706.87 1312.71l-7.072-7.071z"/><path fill="#F7F7F7" d="M1430.893 588.316l7.072 7.07-724.013 724.218-7.072-7.07z"/><path fill="#F8FC30" d="M1438.015 595.437l7.071 7.07-724.115 724.116-7.07-7.071z"/><path fill="#F7F7F7" d="M1445.062 602.636l7.07 7.07L728.07 1333.77l-7.07-7.07z"/><path fill="#F8FC30" d="M1452.188 609.81l7.07 7.073-724.165 724.063-7.071-7.072z"/><path fill="#F7F7F7" d="M1459.227 616.7l7.072 7.072-724.115 724.218-7.072-7.072z"/><path fill="#F8FC30" d="M1466.273 623.85l7.07 7.07-724.063 724.063-7.07-7.07z"/><path fill="#F7F7F7" d="M1473.419 630.893l7.071 7.073-724.217 724.115-7.072-7.073z"/><path fill="#F8FC30" d="M1480.448 637.913l7.073 7.071-724.116 724.219-7.073-7.072z"/><path fill="#F7F7F7" d="M1487.562 644.98l7.07 7.072-724.218 724.013-7.07-7.072z"/><path fill="#F8FC30" d="M1494.562 652.133l7.07 7.07-724.063 724.064-7.07-7.07z"/><path fill="#F7F7F7" d="M1501.658 659.126l7.073 7.071-724.116 724.218-7.073-7.071z"/><path fill="#F8FC30" d="M1508.727 666.197l7.073 7.072-724.115 724.217-7.073-7.072z"/><path fill="#F7F7F7" d="M1515.773 673.348l7.07 7.07-724.063 724.064-7.07-7.07z"/><path fill="#F8FC30" d="M1522.843 680.418l7.07 7.07-724.062 724.064-7.071-7.07z"/><path fill="#F7F7F7" d="M1529.913 687.49l7.07 7.07-724.063 724.064-7.07-7.07z"/><path fill="#F8FC30" d="M1536.983 694.56l7.07 7.071-724.063 724.064-7.07-7.07z"/><path fill="#F7F7F7" d="M1544.117 701.743l7.071 7.072-724.166 724.064-7.07-7.072z"/><path fill="#F8FC30" d="M1551.157 708.625l7.073 7.072-724.115 724.217-7.073-7.072z"/><path fill="#F7F7F7" d="M1558.204 715.773l7.07 7.07-724.063 724.064-7.07-7.07z"/><path fill="#F8FC30" d="M1565.328 722.96l7.07 7.071-724.165 724.063-7.071-7.072z"/><path fill="#F7F7F7" d="M1572.344 729.914l7.07 7.071-724.063 724.064-7.071-7.07z"/><path fill="#F8FC30" d="M1579.49 736.96l7.071 7.072-724.217 724.115-7.072-7.073z"/><path fill="#F7F7F7" d="M1586.483 744.058l7.07 7.07-724.063 724.064-7.07-7.07z"/><path fill="#F8FC30" d="M1593.553 751.128l7.07 7.07-724.063 724.064-7.07-7.07z"/><path fill="#F7F7F7" d="M1600.623 758.2l7.07 7.07-724.063 724.064-7.07-7.07z"/><path fill="#F8FC30" d="M1607.693 765.27l7.07 7.071L890.7 1496.405l-7.07-7.07z"/><path fill="#F7F7F7" d="M1614.828 772.461l7.07 7.072-724.165 724.064-7.071-7.072z"/><path fill="#F8FC30" d="M1621.897 779.534l7.071 7.072-724.165 724.063-7.071-7.072z"/><path fill="#F7F7F7" d="M1628.935 786.337l7.07 7.07-724.114 724.116-7.071-7.071z"/><path fill="#F8FC30" d="M1635.983 793.555l7.07 7.071L918.99 1524.69l-7.071-7.07z"/><path fill="#F7F7F7" d="M1643.107 800.749l7.07 7.072-724.165 724.063-7.07-7.072z"/><path fill="#F8FC30" d="M1650.145 807.547l7.071 7.07-724.115 724.116-7.07-7.071z"/><path fill="#F7F7F7" d="M1657.192 814.769l7.071 7.071L940.2 1545.903l-7.071-7.07z"/><path fill="#F8FC30" d="M1664.263 821.839l7.07 7.07-724.063 724.064-7.07-7.07z"/><path fill="#F7F7F7" d="M1671.41 828.883l7.07 7.073-724.216 724.115-7.072-7.073z"/><path fill="#F8FC30" d="M1678.49 835.954l7.071 7.073-724.217 724.115-7.072-7.073z"/><path fill="#F7F7F7" d="M1685.49 843.128l7.073 7.071-724.064 724.166-7.072-7.071z"/><path fill="#F8FC30" d="M1692.552 850.123l7.071 7.071-724.063 724.063-7.071-7.07z"/><path fill="#F7F7F7" d="M1699.57 857.143l7.072 7.07-723.961 724.167-7.072-7.07z"/><path fill="#F8FC30" d="M1706.747 864.394l7.071 7.072-724.165 724.064-7.071-7.072z"/><path opacity=".8" fill="none" stroke="#FFF" stroke-width="12" stroke-linejoin="round" d="M896.495 269.431l502.972-502.971c5.467-5.468 14.332-5.468 19.799 0l381.142 381.141c5.468 5.468 5.468 14.332-.001 19.799l-502.971 502.97c-5.467 5.468-14.331 5.468-19.799.001L896.495 289.229c-5.466-5.467-5.466-14.331 0-19.798z"/><path opacity=".8" fill="none" stroke="#FFF" stroke-width="16" stroke-linejoin="round" d="M409.344 851.969l305.554 305.553c4.687 4.688 4.687 12.285 0 16.972l-396.07 396.069c-4.687 4.688-12.284 4.688-16.971 0L-3.697 1265.009c-4.686-4.686-4.686-12.284 0-16.97l396.07-396.07c4.687-4.687 12.283-4.687 16.971 0z"/></svg>