<?xml version="1.0" encoding="utf-8"?>
<!-- Generator: Adobe Illustrator 16.0.0, SVG Export Plug-In . SVG Version: 6.00 Build 0)  -->
<!DOCTYPE svg PUBLIC "-//W3C//DTD SVG 1.1//EN" "http://www.w3.org/Graphics/SVG/1.1/DTD/svg11.dtd">
<svg version="1.1" id="レイヤー_1" xmlns="http://www.w3.org/2000/svg" xmlns:xlink="http://www.w3.org/1999/xlink" x="0px"
	 y="0px" width="1440px" height="1595.406px" viewBox="0 0 1440 1595.406" enable-background="new 0 0 1440 1595.406"
	 xml:space="preserve">
<rect x="332.033" y="-293.33" transform="matrix(-0.7071 -0.7071 0.7071 -0.7071 420.7291 611.6116)" fill="#F7F7F7" width="10" height="1024"/>
<rect x="339.105" y="-286.259" transform="matrix(-0.7071 -0.7071 0.7071 -0.7071 427.8004 628.6831)" fill="#FAFD5E" width="10" height="1024"/>
<rect x="346.176" y="-279.188" transform="matrix(-0.7071 -0.7071 0.7071 -0.7071 434.886 645.7518)" fill="#F7F7F7" width="10" height="1024"/>
<rect x="353.247" y="-272.117" transform="matrix(-0.7071 -0.7071 0.7071 -0.7071 441.928 662.8276)" fill="#FAFD5E" width="9.999" height="1024"/>
<rect x="360.317" y="-265.046" transform="matrix(-0.7071 -0.7071 0.7071 -0.7071 449.0133 679.8956)" fill="#F7F7F7" width="10" height="1024"/>
<rect x="367.389" y="-257.975" transform="matrix(-0.7071 -0.7071 0.7071 -0.7071 456.0999 696.9643)" fill="#FAFD5E" width="10" height="1024"/>
<rect x="374.46" y="-250.904" transform="matrix(-0.7071 -0.7071 0.7071 -0.7071 463.1399 714.0401)" fill="#F7F7F7" width="9.999" height="1024"/>
<rect x="381.531" y="-243.833" transform="matrix(-0.7071 -0.7071 0.7071 -0.7071 470.242 731.1056)" fill="#FAFD5E" width="10" height="1024"/>
<rect x="388.602" y="-236.762" transform="matrix(-0.7071 -0.7071 0.7071 -0.7071 477.2975 748.1796)" fill="#F7F7F7" width="10" height="1024"/>
<rect x="395.674" y="-229.69" transform="matrix(-0.7071 -0.7071 0.7071 -0.7071 484.3871 765.249)" fill="#FAFD5E" width="10" height="1024"/>
<rect x="402.744" y="-222.619" transform="matrix(-0.7071 -0.7071 0.7071 -0.7071 491.4402 782.3224)" fill="#F7F7F7" width="10" height="1024"/>
<rect x="409.816" y="-215.548" transform="matrix(-0.7071 -0.7071 0.7071 -0.7071 498.5292 799.3903)" fill="#FAFD5E" width="10" height="1024"/>
<rect x="416.887" y="-208.477" transform="matrix(-0.7071 -0.7071 0.7071 -0.7071 505.5833 816.4644)" fill="#F7F7F7" width="10" height="1024"/>
<rect x="423.958" y="-201.406" transform="matrix(-0.7071 -0.7071 0.7071 -0.7071 512.6357 833.5385)" fill="#FAFD5E" width="9.999" height="1024"/>
<rect x="431.029" y="-194.335" transform="matrix(-0.7071 -0.7071 0.7071 -0.7071 519.7426 850.604)" fill="#F7F7F7" width="10" height="1024"/>
<rect x="438.1" y="-187.264" transform="matrix(-0.7071 -0.7071 0.7071 -0.7071 526.7957 867.6781)" fill="#FAFD5E" width="10" height="1024"/>
<rect x="445.172" y="-180.193" transform="matrix(-0.7071 -0.7071 0.7071 -0.7071 533.8482 884.7518)" fill="#F7F7F7" width="9.999" height="1023.999"/>
<rect x="452.241" y="-173.122" transform="matrix(-0.7071 -0.7071 0.7071 -0.7071 540.9371 901.8193)" fill="#FAFD5E" width="10" height="1024"/>
<rect x="459.313" y="-166.051" transform="matrix(-0.7071 -0.7071 0.7071 -0.7071 548.0282 918.8881)" fill="#F7F7F7" width="10" height="1024"/>
<rect x="466.384" y="-158.979" transform="matrix(-0.7071 -0.7072 0.7072 -0.7071 555.0396 935.9679)" fill="#FAFD5E" width="10" height="1023.999"/>
<rect x="473.454" y="-151.909" transform="matrix(-0.7071 -0.7071 0.7071 -0.7071 562.1699 953.0302)" fill="#F7F7F7" width="10" height="1024"/>
<rect x="480.525" y="-144.838" transform="matrix(-0.7071 -0.7071 0.7071 -0.7071 569.2213 970.1034)" fill="#FAFD5E" width="10" height="1024"/>
<rect x="487.597" y="-137.766" transform="matrix(-0.7071 -0.7071 0.7071 -0.7071 576.2926 987.175)" fill="#F7F7F7" width="10" height="1024"/>
<rect x="494.668" y="-130.695" transform="matrix(-0.7071 -0.7071 0.7071 -0.7071 583.3415 1004.2491)" fill="#FAFD5E" width="9.999" height="1024"/>
<rect x="501.739" y="-123.624" transform="matrix(-0.7071 -0.7071 0.7071 -0.7071 590.4353 1021.3177)" fill="#F7F7F7" width="10" height="1024"/>
<rect x="508.811" y="-116.554" transform="matrix(-0.7071 -0.7071 0.7071 -0.7071 597.5071 1038.3882)" fill="#FAFD5E" width="10" height="1024"/>
<rect x="515.882" y="-109.482" transform="matrix(-0.7071 -0.7072 0.7072 -0.7071 604.5333 1055.4656)" fill="#F7F7F7" width="10" height="1023.999"/>
<rect x="522.952" y="-102.411" transform="matrix(-0.7071 -0.7071 0.7071 -0.7071 611.671 1072.5277)" fill="#FAFD5E" width="10" height="1024"/>
<rect x="530.024" y="-95.34" transform="matrix(-0.7071 -0.7071 0.7071 -0.7071 618.7431 1089.5981)" fill="#F7F7F7" width="10" height="1024"/>
<rect x="537.095" y="-88.269" transform="matrix(-0.7071 -0.7071 0.7071 -0.7071 625.8148 1106.6697)" fill="#FAFD5E" width="10" height="1024"/>
<rect x="544.165" y="-81.198" transform="matrix(-0.7071 -0.7071 0.7071 -0.7071 632.861 1123.743)" fill="#F7F7F7" width="10" height="1024"/>
<rect x="551.237" y="-74.127" transform="matrix(-0.7071 -0.7071 0.7071 -0.7071 639.9565 1140.8118)" fill="#FAFD5E" width="10" height="1024"/>
<rect x="558.308" y="-67.056" transform="matrix(-0.7071 -0.7071 0.7071 -0.7071 647.0037 1157.8859)" fill="#F7F7F7" width="10" height="1024"/>
<rect x="565.378" y="-59.985" transform="matrix(-0.7071 -0.7071 0.7071 -0.7071 654.0741 1174.9572)" fill="#FAFD5E" width="10" height="1024.001"/>
<rect x="572.449" y="-52.914" transform="matrix(-0.7071 -0.7071 0.7071 -0.7071 661.1451 1192.0271)" fill="#F7F7F7" width="10" height="1024"/>
<rect x="579.521" y="-45.843" transform="matrix(-0.7071 -0.7071 0.7071 -0.7071 668.2421 1209.0958)" fill="#FAFD5E" width="10" height="1024"/>
<rect x="586.591" y="-38.772" transform="matrix(-0.7071 -0.7071 0.7071 -0.7071 675.287 1226.1696)" fill="#F7F7F7" width="10" height="1024.001"/>
<rect x="593.663" y="-31.701" transform="matrix(-0.7071 -0.7071 0.7071 -0.7071 682.3323 1243.2433)" fill="#FAFD5E" width="9.999" height="1024"/>
<rect x="600.734" y="-24.63" transform="matrix(-0.7071 -0.7071 0.7071 -0.7071 689.431 1260.3119)" fill="#F7F7F7" width="10" height="1024"/>
<rect x="607.806" y="-17.559" transform="matrix(-0.7071 -0.7071 0.7071 -0.7071 696.5293 1277.3806)" fill="#FAFD5E" width="10" height="1024"/>
<rect x="614.877" y="-10.488" transform="matrix(-0.7071 -0.7071 0.7071 -0.7071 703.5458 1294.4564)" fill="#F7F7F7" width="9.999" height="1024"/>
<rect x="621.947" y="-3.417" transform="matrix(-0.7071 -0.7071 0.7071 -0.7071 710.6438 1311.5243)" fill="#FAFD5E" width="10" height="1024"/>
<rect x="629.019" y="3.654" transform="matrix(-0.7071 -0.7071 0.7071 -0.7071 717.7432 1328.593)" fill="#F7F7F7" width="10" height="1024"/>
<rect x="636.09" y="10.726" transform="matrix(-0.7071 -0.7071 0.7071 -0.7071 724.7859 1345.6688)" fill="#FAFD5E" width="10" height="1024"/>
<rect x="643.156" y="17.797" transform="matrix(-0.7071 -0.7071 0.7071 -0.7071 731.8781 1362.7332)" fill="#F7F7F7" width="10" height="1024"/>
<rect x="650.227" y="24.868" transform="matrix(-0.7071 -0.7071 0.7071 -0.7071 738.919 1379.8066)" fill="#FAFD5E" width="10" height="1024"/>
<rect x="657.307" y="31.939" transform="matrix(-0.7071 -0.7071 0.7071 -0.7071 746.0055 1396.884)" fill="#F7F7F7" width="10" height="1024"/>
<rect x="664.377" y="39.01" transform="matrix(-0.7071 -0.7071 0.7071 -0.7071 753.0448 1413.9565)" fill="#FAFD5E" width="9.999" height="1024"/>
<rect x="671.446" y="46.081" transform="matrix(-0.7071 -0.7071 0.7071 -0.7071 760.1436 1431.0239)" fill="#F7F7F7" width="10" height="1024"/>
<rect x="678.517" y="53.152" transform="matrix(-0.7071 -0.7071 0.7071 -0.7071 767.2437 1448.0919)" fill="#FAFD5E" width="10" height="1024"/>
<rect x="685.587" y="60.223" transform="matrix(-0.7071 -0.7072 0.7072 -0.7071 774.2205 1465.1707)" fill="#F7F7F7" width="10" height="1024"/>
<rect x="692.656" y="67.294" transform="matrix(-0.7071 -0.7071 0.7071 -0.7071 781.3514 1482.2343)" fill="#FAFD5E" width="10" height="1024"/>
<rect x="699.727" y="74.365" transform="matrix(-0.7071 -0.7071 0.7071 -0.7071 788.4211 1499.3052)" fill="#F7F7F7" width="10" height="1024"/>
<rect x="706.796" y="81.436" transform="matrix(-0.7071 -0.7071 0.7071 -0.7071 795.4901 1516.3752)" fill="#FAFD5E" width="10" height="1024.001"/>
<rect x="713.866" y="88.507" transform="matrix(-0.7071 -0.7071 0.7071 -0.7071 802.5914 1533.4421)" fill="#F7F7F7" width="10" height="1024"/>
<rect x="720.946" y="95.578" transform="matrix(-0.7071 -0.7071 0.7071 -0.7071 809.6456 1550.5225)" fill="#FAFD5E" width="10" height="1024"/>
<rect x="728.017" y="102.649" transform="matrix(-0.7071 -0.7071 0.7071 -0.7071 816.7482 1567.5905)" fill="#F7F7F7" width="10" height="1024"/>
<rect x="735.087" y="109.721" transform="matrix(-0.7071 -0.7072 0.7072 -0.7071 823.7173 1584.6702)" fill="#FAFD5E" width="10" height="1023.999"/>
<rect x="742.156" y="116.792" transform="matrix(-0.7071 -0.7071 0.7071 -0.7071 830.8528 1601.7345)" fill="#F7F7F7" width="10" height="1024"/>
<rect x="749.226" y="123.863" transform="matrix(-0.7071 -0.7071 0.7071 -0.7071 837.9556 1618.8021)" fill="#FAFD5E" width="10" height="1024.001"/>
<rect x="756.296" y="130.934" transform="matrix(-0.7071 -0.7071 0.7071 -0.7071 844.9915 1635.8755)" fill="#F7F7F7" width="10" height="1024.001"/>
<rect x="763.366" y="138.005" transform="matrix(-0.7071 -0.7071 0.7071 -0.7071 852.0952 1652.9424)" fill="#FAFD5E" width="10" height="1024"/>
<rect x="770.437" y="145.076" transform="matrix(-0.7071 -0.7071 0.7071 -0.7071 859.1304 1670.0157)" fill="#F7F7F7" width="10" height="1024"/>
<rect x="777.507" y="152.147" transform="matrix(-0.7071 -0.7072 0.7072 -0.7071 866.1286 1687.0917)" fill="#FAFD5E" width="10" height="1024"/>
<rect x="784.587" y="159.218" transform="matrix(-0.7071 -0.7071 0.7071 -0.7071 873.2502 1704.1658)" fill="#F7F7F7" width="9.999" height="1024"/>
<rect x="791.656" y="166.289" transform="matrix(-0.7071 -0.7071 0.7071 -0.7071 880.3549 1721.2332)" fill="#FAFD5E" width="10" height="1024"/>
<rect x="798.727" y="173.36" transform="matrix(-0.7071 -0.7071 0.7071 -0.7071 887.4609 1738.301)" fill="#F7F7F7" width="10" height="1024"/>
<rect x="805.796" y="180.431" transform="matrix(-0.7071 -0.7071 0.7071 -0.7071 894.4935 1755.374)" fill="#FAFD5E" width="10" height="1024.001"/>
<rect x="812.866" y="187.502" transform="matrix(-0.7071 -0.7071 0.7071 -0.7071 901.5628 1772.4434)" fill="#F7F7F7" width="10" height="1024"/>
<rect x="819.937" y="194.573" transform="matrix(-0.7071 -0.7071 0.7071 -0.7071 908.6324 1789.5143)" fill="#FAFD5E" width="10" height="1024"/>
<rect x="827.007" y="201.644" transform="matrix(-0.7071 -0.7072 0.7072 -0.7071 915.6259 1806.5903)" fill="#F7F7F7" width="10" height="1024"/>
<rect x="834.076" y="208.715" transform="matrix(-0.7071 -0.7071 0.7071 -0.7071 922.8086 1823.6514)" fill="#FAFD5E" width="10" height="1024"/>
<rect x="841.147" y="215.787" transform="matrix(-0.7071 -0.7071 0.7071 -0.7071 929.8397 1840.7263)" fill="#F7F7F7" width="10" height="1024"/>
<rect x="848.217" y="222.858" transform="matrix(-0.7071 -0.7071 0.7071 -0.7071 936.9472 1857.7941)" fill="#FAFD5E" width="10" height="1024.001"/>
<rect x="855.297" y="229.929" transform="matrix(-0.7071 -0.7071 0.7071 -0.7071 944.0344 1874.8706)" fill="#F7F7F7" width="10" height="1024"/>
<rect x="862.366" y="237" transform="matrix(-0.7071 -0.7071 0.7071 -0.7071 951.0641 1891.9436)" fill="#FAFD5E" width="10" height="1024"/>
<rect x="869.437" y="244.071" transform="matrix(-0.7071 -0.7071 0.7071 -0.7071 958.1736 1909.0117)" fill="#F7F7F7" width="10" height="1024"/>
<rect x="876.506" y="251.142" transform="matrix(-0.7071 -0.7071 0.7071 -0.7071 965.2028 1926.0847)" fill="#FAFD5E" width="10" height="1024.001"/>
<rect x="883.576" y="258.213" transform="matrix(-0.7071 -0.7071 0.7071 -0.7071 972.3124 1943.1516)" fill="#F7F7F7" width="10" height="1024"/>
<rect x="890.647" y="265.284" transform="matrix(-0.7071 -0.7071 0.7071 -0.7071 979.3417 1960.225)" fill="#FAFD5E" width="10" height="1024"/>
<rect x="897.717" y="272.355" transform="matrix(-0.7072 -0.7071 0.7071 -0.7072 986.4929 1977.2898)" fill="#F7F7F7" width="10" height="1024.001"/>
<rect x="904.786" y="279.426" transform="matrix(-0.7071 -0.7071 0.7071 -0.7071 993.48 1994.3644)" fill="#FAFD5E" width="10" height="1024"/>
<rect x="911.857" y="286.497" transform="matrix(-0.7071 -0.7071 0.7071 -0.7071 1000.5496 2011.4353)" fill="#F7F7F7" width="10" height="1024"/>
<rect x="918.937" y="293.569" transform="matrix(-0.7071 -0.7071 0.7071 -0.7071 1007.6359 2028.5132)" fill="#FAFD5E" width="10" height="1024"/>
<rect x="926.007" y="300.639" transform="matrix(-0.7071 -0.7072 0.7072 -0.7071 1014.6201 2045.5879)" fill="#F7F7F7" width="10" height="1024"/>
<rect x="933.076" y="307.71" transform="matrix(-0.7071 -0.7071 0.7071 -0.7071 1021.7742 2062.6526)" fill="#FAFD5E" width="10" height="1024"/>
<rect x="940.147" y="314.781" transform="matrix(-0.7071 -0.7071 0.7071 -0.7071 1028.8438 2079.7236)" fill="#F7F7F7" width="10" height="1024"/>
<rect x="947.217" y="321.853" transform="matrix(-0.7072 -0.7071 0.7071 -0.7072 1035.9991 2096.79)" fill="#FAFD5E" width="10" height="1024.001"/>
<rect x="954.286" y="328.924" transform="matrix(-0.7071 -0.7071 0.7071 -0.7071 1042.9813 2113.8647)" fill="#F7F7F7" width="10" height="1024"/>
<rect x="961.357" y="335.995" transform="matrix(-0.7071 -0.7071 0.7071 -0.7071 1050.051 2130.9355)" fill="#FAFD5E" width="10" height="1024"/>
<rect x="968.427" y="343.066" transform="matrix(-0.7072 -0.7071 0.7071 -0.7072 1057.2091 2148.0005)" fill="#F7F7F7" width="10" height="1024.001"/>
<rect x="975.497" y="350.137" transform="matrix(-0.7071 -0.7072 0.7072 -0.7071 1064.1 2165.0811)" fill="#FAFD5E" width="10" height="1024"/>
<rect x="982.576" y="357.208" transform="matrix(-0.7071 -0.7071 0.7071 -0.7071 1071.2755 2182.1528)" fill="#F7F7F7" width="10" height="1024"/>
<rect x="989.647" y="364.279" transform="matrix(-0.7071 -0.7071 0.7071 -0.7071 1078.3451 2199.2236)" fill="#FAFD5E" width="10" height="1024"/>
<rect x="996.716" y="371.35" transform="matrix(-0.7071 -0.7071 0.7071 -0.7071 1085.4139 2216.2944)" fill="#F7F7F7" width="10" height="1024"/>
<rect x="1003.786" y="378.421" transform="matrix(-0.7071 -0.7071 0.7071 -0.7071 1092.4834 2233.3633)" fill="#FAFD5E" width="10" height="1024"/>
<rect x="1010.857" y="385.492" transform="matrix(-0.7071 -0.7071 0.7071 -0.7071 1099.553 2250.4341)" fill="#F7F7F7" width="10" height="1024"/>
<rect x="1017.926" y="392.563" transform="matrix(-0.7071 -0.7071 0.7071 -0.7071 1106.6218 2267.5046)" fill="#FAFD5E" width="10" height="1024"/>
<rect x="1024.997" y="399.635" transform="matrix(-0.7071 -0.7071 0.7071 -0.7071 1113.6914 2284.5757)" fill="#F7F7F7" width="9.999" height="1024"/>
<rect x="1032.067" y="406.705" transform="matrix(-0.7071 -0.7071 0.7071 -0.7071 1120.761 2301.6445)" fill="#FAFD5E" width="10" height="1024"/>
<rect x="1039.136" y="413.776" transform="matrix(-0.7071 -0.7071 0.7071 -0.7071 1127.8297 2318.7151)" fill="#F7F7F7" width="10" height="1024"/>
<rect x="1046.207" y="420.847" transform="matrix(-0.7072 -0.7071 0.7071 -0.7072 1134.9955 2335.7798)" fill="#FAFD5E" width="10" height="1024"/>
<rect x="1053.286" y="427.919" transform="matrix(-0.7071 -0.7071 0.7071 -0.7071 1141.9849 2352.8635)" fill="#F7F7F7" width="10" height="1024"/>
<rect x="1060.357" y="434.99" transform="matrix(-0.7071 -0.7071 0.7071 -0.7071 1149.0544 2369.9343)" fill="#FAFD5E" width="10" height="1024"/>
<rect x="1067.427" y="442.061" transform="matrix(-0.7072 -0.7071 0.7071 -0.7072 1156.2222 2386.999)" fill="#F7F7F7" width="10" height="1024.001"/>
<rect x="1074.497" y="449.132" transform="matrix(-0.7071 -0.7072 0.7072 -0.7071 1163.0938 2404.0801)" fill="#FAFD5E" width="10" height="1024"/>
<rect x="1081.567" y="456.203" transform="matrix(-0.7071 -0.7071 0.7071 -0.7071 1170.2622 2421.1448)" fill="#F7F7F7" width="10" height="1024"/>
<rect x="1088.637" y="463.275" transform="matrix(-0.7071 -0.7071 0.7071 -0.7071 1177.3319 2438.2158)" fill="#FAFD5E" width="10" height="1024"/>
<rect x="1095.707" y="470.346" transform="matrix(-0.7072 -0.7071 0.7071 -0.7072 1184.5017 2455.28)" fill="#F7F7F7" width="10" height="1024"/>
<rect x="1102.776" y="477.416" transform="matrix(-0.7071 -0.7071 0.7071 -0.7071 1191.4702 2472.355)" fill="#FAFD5E" width="10" height="1024"/>
<rect x="1109.847" y="484.487" transform="matrix(-0.7071 -0.7072 0.7072 -0.7071 1198.4358 2489.4314)" fill="#F7F7F7" width="10" height="1024"/>
<rect x="1116.927" y="491.558" transform="matrix(-0.7072 -0.7071 0.7071 -0.7072 1205.7291 2506.4976)" fill="#FAFD5E" width="10" height="1024.001"/>
<rect x="1123.997" y="498.629" transform="matrix(-0.7071 -0.7072 0.7072 -0.7071 1212.5911 2523.5786)" fill="#F7F7F7" width="10" height="1024"/>
<rect x="1131.067" y="505.7" transform="matrix(-0.7071 -0.7071 0.7071 -0.7071 1219.7644 2540.6433)" fill="#FAFD5E" width="10" height="1024"/>
<rect x="1138.137" y="512.771" transform="matrix(-0.7072 -0.7071 0.7071 -0.7072 1226.9392 2557.708)" fill="#F7F7F7" width="10" height="1024.001"/>
<rect x="1145.206" y="519.842" transform="matrix(-0.7072 -0.7071 0.7071 -0.7072 1234.0093 2574.7769)" fill="#FAFD5E" width="10.001" height="1024"/>
<rect x="1152.276" y="526.914" transform="matrix(-0.7071 -0.7071 0.7071 -0.7071 1240.9716 2591.8555)" fill="#F7F7F7" width="10" height="1024"/>
<rect x="1159.347" y="533.985" transform="matrix(-0.7071 -0.7071 0.7071 -0.7071 1248.0411 2608.9263)" fill="#FAFD5E" width="10" height="1024"/>
<rect x="1166.417" y="541.056" transform="matrix(-0.7071 -0.7071 0.7071 -0.7071 1255.11 2625.9968)" fill="#F7F7F7" width="9.999" height="1024"/>
<rect x="1173.486" y="548.127" transform="matrix(-0.7071 -0.7071 0.7071 -0.7071 1262.1794 2643.0657)" fill="#FAFD5E" width="10" height="1024"/>
<rect x="1180.567" y="555.198" transform="matrix(-0.7071 -0.7071 0.7071 -0.7071 1269.2657 2660.1436)" fill="#F7F7F7" width="10" height="1024"/>
<rect x="1187.637" y="562.269" transform="matrix(-0.7072 -0.7071 0.7071 -0.7072 1276.4453 2677.2085)" fill="#FAFD5E" width="10" height="1024.001"/>
<rect x="1194.706" y="569.34" transform="matrix(-0.7071 -0.7071 0.7071 -0.7071 1283.4041 2694.283)" fill="#F7F7F7" width="10" height="1024"/>
<rect x="1201.776" y="576.411" transform="matrix(-0.7071 -0.7071 0.7071 -0.7071 1290.4736 2711.354)" fill="#FAFD5E" width="10" height="1024"/>
<rect x="1208.847" y="583.483" transform="matrix(-0.7071 -0.7071 0.7071 -0.7071 1297.5432 2728.4248)" fill="#F7F7F7" width="10" height="1024"/>
<rect x="1215.917" y="590.553" transform="matrix(-0.7071 -0.7072 0.7072 -0.7071 1304.4993 2745.4995)" fill="#FAFD5E" width="10" height="1024"/>
<rect x="1222.986" y="597.624" transform="matrix(-0.7071 -0.7071 0.7071 -0.7071 1311.6815 2762.5645)" fill="#F7F7F7" width="10" height="1024"/>
<rect x="1230.057" y="604.695" transform="matrix(-0.7071 -0.7071 0.7071 -0.7071 1318.7512 2779.6353)" fill="#FAFD5E" width="10" height="1024"/>
<rect x="1237.127" y="611.766" transform="matrix(-0.7071 -0.7071 0.7071 -0.7071 1325.8199 2796.7058)" fill="#F7F7F7" width="9.999" height="1024"/>
<rect x="1244.196" y="618.837" transform="matrix(-0.7071 -0.7071 0.7071 -0.7071 1332.8894 2813.7747)" fill="#FAFD5E" width="10" height="1024"/>
<rect x="1251.276" y="625.908" transform="matrix(-0.7071 -0.7071 0.7071 -0.7071 1339.9757 2830.8525)" fill="#F7F7F7" width="10" height="1024"/>
<rect x="1258.347" y="632.981" transform="matrix(-0.7071 -0.7071 0.7071 -0.7071 1347.0447 2847.925)" fill="#FAFD5E" width="10" height="1024"/>
<rect x="1265.417" y="640.051" transform="matrix(-0.7071 -0.7072 0.7072 -0.7071 1353.9957 2864.9998)" fill="#F7F7F7" width="10" height="1024"/>
<rect x="1272.486" y="647.122" transform="matrix(-0.7071 -0.7071 0.7071 -0.7071 1361.1829 2882.0645)" fill="#FAFD5E" width="10" height="1024"/>
<rect x="1279.557" y="654.193" transform="matrix(-0.7071 -0.7071 0.7071 -0.7071 1368.2524 2899.1355)" fill="#F7F7F7" width="10" height="1024"/>
<rect x="1286.627" y="661.264" transform="matrix(-0.7071 -0.7072 0.7072 -0.7071 1375.2015 2916.2102)" fill="#FAFD5E" width="10" height="1024"/>
<rect x="1293.696" y="668.335" transform="matrix(-0.7071 -0.7071 0.7071 -0.7071 1382.3905 2933.2759)" fill="#F7F7F7" width="10" height="1024"/>
<rect x="1300.767" y="675.406" transform="matrix(-0.7071 -0.7071 0.7071 -0.7071 1389.4604 2950.3457)" fill="#FAFD5E" width="10" height="1024"/>
<rect x="1307.837" y="682.478" transform="matrix(-0.7071 -0.7072 0.7072 -0.7071 1396.4067 2967.4221)" fill="#F7F7F7" width="10" height="1024"/>
<rect x="1314.917" y="689.548" transform="matrix(-0.7071 -0.7072 0.7072 -0.7071 1403.4929 2984.4983)" fill="#FAFD5E" width="10" height="1024"/>
<rect x="1321.986" y="696.619" transform="matrix(-0.7071 -0.7071 0.7071 -0.7071 1410.6849 3001.563)" fill="#F7F7F7" width="10" height="1024"/>
<rect x="1329.057" y="703.691" transform="matrix(-0.7071 -0.7071 0.7071 -0.7071 1417.7546 3018.634)" fill="#FAFD5E" width="10" height="1024"/>
<rect x="1336.126" y="710.761" transform="matrix(-0.7072 -0.707 0.707 -0.7072 1425.0729 3035.6926)" fill="#F7F7F7" width="10" height="1024.001"/>
<rect x="1343.196" y="717.832" transform="matrix(-0.7071 -0.7071 0.7071 -0.7071 1431.8928 3052.7734)" fill="#FAFD5E" width="10" height="1024"/>
<path opacity="0.8" fill="none" stroke="#FFFFFF" stroke-width="12" stroke-linejoin="round" enable-background="new    " d="
	M896.496,269.431l502.971-502.971c5.467-5.468,14.332-5.468,19.799,0l381.142,381.141c5.467,5.468,5.467,14.332-0.001,19.799
	l-502.971,502.97c-5.467,5.468-14.331,5.468-19.799,0.001L896.496,289.229C891.029,283.762,891.029,274.898,896.496,269.431z"/>
<path opacity="0.8" fill="none" stroke="#FFFFFF" stroke-width="16" stroke-linejoin="round" enable-background="new    " d="
	M409.344,851.969l305.554,305.553c4.687,4.687,4.687,12.285,0,16.971l-396.07,396.07c-4.687,4.687-12.284,4.687-16.971,0
	L-3.697,1265.009c-4.686-4.686-4.686-12.284,0-16.97l396.07-396.07C397.06,847.282,404.657,847.282,409.344,851.969z"/>
</svg>
