<?xml version="1.0" encoding="utf-8"?>
<!-- Generator: Adobe Illustrator 16.0.0, SVG Export Plug-In . SVG Version: 6.00 Build 0)  -->
<!DOCTYPE svg PUBLIC "-//W3C//DTD SVG 1.1//EN" "http://www.w3.org/Graphics/SVG/1.1/DTD/svg11.dtd">
<svg version="1.1" id="レイヤー_1" xmlns="http://www.w3.org/2000/svg" xmlns:xlink="http://www.w3.org/1999/xlink" x="0px"
	 y="0px" width="1440px" height="1595.406px" viewBox="0 0 1440 1595.406" enable-background="new 0 0 1440 1595.406"
	 xml:space="preserve">
<rect x="332.035" y="-293.321" transform="matrix(0.7071 0.7071 -0.7071 0.7071 253.3413 -174.2714)" fill="#F7F7F7" width="10" height="1023.99"/>
<rect x="339.105" y="-286.25" transform="matrix(0.7072 0.7071 -0.7071 0.7072 260.384 -177.1942)" fill="#F8FC30" width="10" height="1023.99"/>
<rect x="346.191" y="-279.181" transform="matrix(0.7071 0.7072 -0.7072 0.7071 267.5142 -180.1454)" fill="#F7F7F7" width="10" height="1023.99"/>
<rect x="353.233" y="-272.105" transform="matrix(0.7071 0.7071 -0.7071 0.7071 274.552 -183.0465)" fill="#F8FC30" width="9.999" height="1023.99"/>
<rect x="360.319" y="-265.036" transform="matrix(0.7072 0.7071 -0.7071 0.7072 281.5958 -185.9813)" fill="#F7F7F7" width="10" height="1023.99"/>
<rect x="367.405" y="-257.968" transform="matrix(0.7071 0.7072 -0.7072 0.7071 288.7295 -188.9328)" fill="#F8FC30" width="10" height="1023.99"/>
<rect x="374.445" y="-250.892" transform="matrix(0.7071 0.7071 -0.7071 0.7071 295.7648 -191.8324)" fill="#F7F7F7" width="9.999" height="1023.99"/>
<rect x="381.546" y="-243.826" transform="matrix(0.7071 0.7071 -0.7071 0.7071 302.8408 -194.7849)" fill="#F8FC30" width="10" height="1023.99"/>
<rect x="388.602" y="-236.752" transform="matrix(0.7071 0.7071 -0.7071 0.7071 309.9096 -197.7021)" fill="#F7F7F7" width="10" height="1023.99"/>
<rect x="395.692" y="-229.684" transform="matrix(0.7071 0.7071 -0.7071 0.7071 316.9841 -200.6451)" fill="#F8FC30" width="10" height="1023.99"/>
<rect x="402.746" y="-222.61" transform="matrix(0.7071 0.7071 -0.7071 0.7071 324.0522 -203.5609)" fill="#F7F7F7" width="10" height="1023.99"/>
<rect x="409.834" y="-215.542" transform="matrix(0.7071 0.7071 -0.7071 0.7071 331.1257 -206.5028)" fill="#F8FC30" width="10" height="1023.99"/>
<rect x="416.888" y="-208.468" transform="matrix(0.7071 0.7072 -0.7072 0.7071 338.2296 -209.4246)" fill="#F7F7F7" width="10" height="1023.99"/>
<rect x="423.941" y="-201.393" transform="matrix(0.7071 0.7071 -0.7071 0.7071 345.2623 -212.3337)" fill="#F8FC30" width="9.999" height="1023.99"/>
<rect x="431.048" y="-194.328" transform="matrix(0.7072 0.7071 -0.7071 0.7072 352.3029 -215.284)" fill="#F7F7F7" width="10" height="1023.99"/>
<rect x="438.101" y="-187.254" transform="matrix(0.7072 0.7071 -0.7071 0.7072 359.3701 -218.199)" fill="#F8FC30" width="10" height="1023.99"/>
<rect x="445.153" y="-180.179" transform="matrix(0.7071 0.7071 -0.7071 0.7071 366.4751 -221.1193)" fill="#F7F7F7" width="9.999" height="1023.989"/>
<rect x="452.243" y="-173.111" transform="matrix(0.7071 0.7072 -0.7072 0.7071 373.5889 -224.0683)" fill="#F8FC30" width="10" height="1023.99"/>
<rect x="459.333" y="-166.043" transform="matrix(0.7071 0.7071 -0.7071 0.7071 380.6248 -227.0059)" fill="#F7F7F7" width="10" height="1023.99"/>
<rect x="466.379" y="-159.046" transform="matrix(0.7071 0.7072 -0.7072 0.7071 387.702 -229.9347)" fill="#F8FC30" width="10.001" height="1024.062"/>
<rect x="473.475" y="-151.9" transform="matrix(0.7071 0.7071 -0.7071 0.7071 394.7679 -232.8637)" fill="#F7F7F7" width="10" height="1023.99"/>
<rect x="480.527" y="-144.827" transform="matrix(0.7071 0.7071 -0.7071 0.7071 401.8349 -235.7783)" fill="#F8FC30" width="10" height="1023.99"/>
<rect x="487.598" y="-137.756" transform="matrix(0.7071 0.7071 -0.7071 0.7071 408.9055 -238.7076)" fill="#F7F7F7" width="10" height="1023.99"/>
<rect x="494.648" y="-130.681" transform="matrix(0.7071 0.7071 -0.7071 0.7071 415.9726 -241.6198)" fill="#F8FC30" width="9.999" height="1023.989"/>
<rect x="501.741" y="-123.614" transform="matrix(0.7072 0.7071 -0.7071 0.7072 423.0046 -244.5598)" fill="#F7F7F7" width="10" height="1023.99"/>
<rect x="508.811" y="-116.542" transform="matrix(0.7071 0.7071 -0.7071 0.7071 430.1191 -247.494)" fill="#F8FC30" width="10" height="1023.99"/>
<rect x="515.877" y="-109.553" transform="matrix(0.7071 0.7072 -0.7072 0.7071 437.2014 -250.4388)" fill="#F7F7F7" width="10.001" height="1024.062"/>
<rect x="522.976" y="-102.403" transform="matrix(0.7071 0.7071 -0.7071 0.7071 444.2662 -253.3688)" fill="#F8FC30" width="10" height="1023.99"/>
<rect x="530.047" y="-95.332" transform="matrix(0.7071 0.7071 -0.7071 0.7071 451.3368 -256.2981)" fill="#F7F7F7" width="10" height="1023.99"/>
<rect x="537.12" y="-88.261" transform="matrix(0.7071 0.7071 -0.7071 0.7071 458.4085 -259.2278)" fill="#F8FC30" width="10" height="1023.99"/>
<rect x="544.167" y="-81.187" transform="matrix(0.7072 0.7071 -0.7071 0.7072 465.4269 -262.1329)" fill="#F7F7F7" width="10" height="1023.99"/>
<rect x="551.261" y="-74.119" transform="matrix(0.7071 0.7071 -0.7071 0.7071 472.5507 -265.0852)" fill="#F8FC30" width="10" height="1023.99"/>
<rect x="558.308" y="-67.044" transform="matrix(0.7071 0.7071 -0.7071 0.7071 479.617 -267.996)" fill="#F7F7F7" width="10" height="1023.99"/>
<rect x="565.38" y="-59.973" transform="matrix(0.7071 0.7071 -0.7071 0.7071 486.6888 -270.9253)" fill="#F8FC30" width="10" height="1023.991"/>
<rect x="572.451" y="-52.902" transform="matrix(0.7071 0.7072 -0.7072 0.7071 493.8099 -273.8596)" fill="#F7F7F7" width="10" height="1023.99"/>
<rect x="579.546" y="-45.833" transform="matrix(0.7071 0.7071 -0.7071 0.7071 500.8358 -276.8013)" fill="#F8FC30" width="10" height="1023.99"/>
<rect x="586.593" y="-38.76" transform="matrix(0.7071 0.7071 -0.7071 0.7071 507.9017 -279.7119)" fill="#F7F7F7" width="10" height="1023.991"/>
<rect x="593.638" y="-31.685" transform="matrix(0.7071 0.7071 -0.7071 0.7071 514.9669 -282.6208)" fill="#F8FC30" width="9.999" height="1023.99"/>
<rect x="600.736" y="-24.617" transform="matrix(0.7071 0.7071 -0.7071 0.7071 522.0446 -285.5703)" fill="#F7F7F7" width="10" height="1023.99"/>
<rect x="607.834" y="-17.549" transform="matrix(0.7071 0.7071 -0.7071 0.7071 529.1208 -288.5187)" fill="#F8FC30" width="9.999" height="1023.99"/>
<rect x="614.85" y="-10.473" transform="matrix(0.7071 0.7071 -0.7071 0.7071 536.1797 -291.4075)" fill="#F7F7F7" width="9.999" height="1023.99"/>
<rect x="621.948" y="-3.403" transform="matrix(0.7071 0.7072 -0.7072 0.7071 543.3126 -294.362)" fill="#F8FC30" width="10" height="1023.989"/>
<rect x="629.047" y="3.664" transform="matrix(0.7071 0.7071 -0.7071 0.7071 550.3345 -297.3062)" fill="#F7F7F7" width="10" height="1023.99"/>
<rect x="636.09" y="10.74" transform="matrix(0.7071 0.7071 -0.7071 0.7071 557.4005 -300.214)" fill="#F8FC30" width="10" height="1023.99"/>
<rect x="643.186" y="17.807" transform="matrix(0.7072 0.7071 -0.7071 0.7072 564.4188 -303.1556)" fill="#F7F7F7" width="10" height="1023.99"/>
<rect x="650.227" y="24.881" transform="matrix(0.7071 0.7071 -0.7071 0.7071 571.5406 -306.0681)" fill="#F8FC30" width="10" height="1023.99"/>
<rect x="657.307" y="31.953" transform="matrix(0.7071 0.7071 -0.7071 0.7071 578.6145 -309.0034)" fill="#F7F7F7" width="10" height="1023.99"/>
<rect x="664.348" y="39.026" transform="matrix(0.7071 0.7071 -0.7071 0.7071 585.6785 -311.91)" fill="#F8FC30" width="9.999" height="1023.99"/>
<rect x="671.448" y="46.094" transform="matrix(0.7071 0.7071 -0.7071 0.7071 592.7559 -314.86)" fill="#F7F7F7" width="9.999" height="1023.99"/>
<rect x="678.548" y="53.163" transform="matrix(0.7072 0.7071 -0.7071 0.7072 599.7725 -317.8044)" fill="#F8FC30" width="10" height="1023.99"/>
<rect x="685.582" y="60.138" transform="matrix(0.7071 0.7072 -0.7072 0.7071 606.9131 -320.7368)" fill="#F7F7F7" width="10.001" height="1024.063"/>
<rect x="692.657" y="67.308" transform="matrix(0.7071 0.7071 -0.7071 0.7071 613.9683 -323.644)" fill="#F8FC30" width="10" height="1023.99"/>
<rect x="699.727" y="74.379" transform="matrix(0.7072 0.7071 -0.7071 0.7072 620.9757 -326.5668)" fill="#F7F7F7" width="10" height="1023.99"/>
<rect x="706.798" y="81.45" transform="matrix(0.7071 0.7071 -0.7071 0.7071 628.11 -329.5012)" fill="#F8FC30" width="10" height="1023.991"/>
<rect x="713.899" y="88.518" transform="matrix(0.7072 0.7071 -0.7071 0.7072 635.1234 -332.4464)" fill="#F7F7F7" width="10" height="1023.99"/>
<rect x="720.948" y="95.592" transform="matrix(0.7071 0.7071 -0.7071 0.7071 642.2545 -335.3641)" fill="#F8FC30" width="9.999" height="1023.99"/>
<rect x="728.05" y="102.66" transform="matrix(0.7071 0.7071 -0.7071 0.7071 649.3326 -338.3162)" fill="#F7F7F7" width="10" height="1023.991"/>
<rect x="735.082" y="109.631" transform="matrix(0.7071 0.7072 -0.7072 0.7071 656.4128 -341.2424)" fill="#F8FC30" width="10" height="1024.062"/>
<rect x="742.157" y="116.806" transform="matrix(0.7072 0.7071 -0.7071 0.7072 663.3998 -344.1422)" fill="#F7F7F7" width="10" height="1023.99"/>
<rect x="749.261" y="123.874" transform="matrix(0.7071 0.7071 -0.7071 0.7071 670.546 -347.101)" fill="#F8FC30" width="10" height="1023.991"/>
<rect x="756.298" y="130.949" transform="matrix(0.7071 0.7071 -0.7071 0.7071 677.6094 -350.005)" fill="#F7F7F7" width="10" height="1023.991"/>
<rect x="763.402" y="138.017" transform="matrix(0.7071 0.7071 -0.7071 0.7071 684.6877 -352.9581)" fill="#F8FC30" width="10" height="1023.99"/>
<rect x="770.437" y="145.09" transform="matrix(0.7072 0.7071 -0.7071 0.7072 691.6801 -355.8552)" fill="#F7F7F7" width="10" height="1023.99"/>
<rect x="777.502" y="152.053" transform="matrix(0.7071 0.7072 -0.7072 0.7071 698.8386 -358.8126)" fill="#F8FC30" width="10" height="1024.062"/>
<rect x="784.553" y="159.236" transform="matrix(0.7071 0.7071 -0.7071 0.7071 705.8862 -361.6986)" fill="#F7F7F7" width="9.999" height="1023.99"/>
<rect x="791.658" y="166.304" transform="matrix(0.7071 0.7072 -0.7072 0.7071 713.0376 -364.6584)" fill="#F8FC30" width="10" height="1023.99"/>
<rect x="798.763" y="173.373" transform="matrix(0.7071 0.7071 -0.7071 0.7071 720.045 -367.6069)" fill="#F7F7F7" width="10" height="1023.99"/>
<rect x="805.798" y="180.447" transform="matrix(0.7071 0.7071 -0.7071 0.7071 727.1077 -370.5093)" fill="#F8FC30" width="10" height="1023.991"/>
<rect x="812.867" y="187.517" transform="matrix(0.7071 0.7071 -0.7071 0.7071 734.1779 -373.4371)" fill="#F7F7F7" width="10" height="1023.99"/>
<rect x="819.937" y="194.588" transform="matrix(0.7071 0.7072 -0.7072 0.7071 741.3231 -376.3706)" fill="#F8FC30" width="10" height="1023.99"/>
<rect x="827.002" y="201.546" transform="matrix(0.707 0.7072 -0.7072 0.707 748.4141 -379.3241)" fill="#F7F7F7" width="10" height="1024.062"/>
<rect x="834.115" y="208.728" transform="matrix(0.7071 0.7071 -0.7071 0.7071 755.3994 -382.2493)" fill="#F8FC30" width="10" height="1023.991"/>
<rect x="841.147" y="215.803" transform="matrix(0.7071 0.7071 -0.7071 0.7071 762.4614 -385.1494)" fill="#F7F7F7" width="10" height="1023.99"/>
<rect x="848.256" y="222.87" transform="matrix(0.7072 0.7071 -0.7071 0.7072 769.4639 -388.1002)" fill="#F8FC30" width="10" height="1023.991"/>
<rect x="855.336" y="229.942" transform="matrix(0.7071 0.7072 -0.7072 0.7071 776.6935 -391.047)" fill="#F7F7F7" width="10" height="1023.99"/>
<rect x="862.367" y="237.016" transform="matrix(0.7071 0.7071 -0.7071 0.7071 783.6769 -393.9412)" fill="#F8FC30" width="10" height="1023.991"/>
<rect x="869.477" y="244.085" transform="matrix(0.7071 0.7072 -0.7072 0.7071 790.8369 -396.9037)" fill="#F7F7F7" width="10" height="1023.99"/>
<rect x="876.508" y="251.158" transform="matrix(0.7072 0.7071 -0.7071 0.7072 797.7387 -399.792)" fill="#F8FC30" width="10" height="1023.991"/>
<rect x="883.618" y="258.227" transform="matrix(0.7071 0.7071 -0.7071 0.7071 804.8995 -402.7549)" fill="#F7F7F7" width="10" height="1023.99"/>
<rect x="890.647" y="265.3" transform="matrix(0.7071 0.7071 -0.7071 0.7071 811.9598 -405.6537)" fill="#F8FC30" width="10" height="1023.99"/>
<rect x="897.709" y="272.25" transform="matrix(0.7072 0.707 -0.707 0.7072 818.8038 -408.5889)" fill="#F7F7F7" width="10" height="1024.064"/>
<rect x="904.788" y="279.442" transform="matrix(0.7071 0.7071 -0.7071 0.7071 826.1014 -411.51)" fill="#F8FC30" width="9.999" height="1023.99"/>
<rect x="911.857" y="286.513" transform="matrix(0.7071 0.7071 -0.7071 0.7071 833.1719 -414.4382)" fill="#F7F7F7" width="10" height="1023.99"/>
<rect x="918.938" y="293.585" transform="matrix(0.7071 0.7072 -0.7072 0.7071 840.3303 -417.3796)" fill="#F8FC30" width="10" height="1023.99"/>
<rect x="926.003" y="300.531" transform="matrix(0.7071 0.7072 -0.7072 0.7071 847.3381 -420.3303)" fill="#F7F7F7" width="10.001" height="1024.063"/>
<rect x="933.078" y="307.727" transform="matrix(0.7071 0.7072 -0.7072 0.7071 854.4734 -423.2356)" fill="#F8FC30" width="10" height="1023.99"/>
<rect x="940.147" y="314.798" transform="matrix(0.7071 0.7072 -0.7072 0.7071 861.5449 -426.1632)" fill="#F7F7F7" width="10" height="1023.99"/>
<rect x="947.208" y="321.745" transform="matrix(0.7072 0.7071 -0.7071 0.7072 868.3772 -429.1001)" fill="#F8FC30" width="10.001" height="1024.063"/>
<rect x="954.288" y="328.941" transform="matrix(0.7071 0.7072 -0.7072 0.7071 875.6882 -432.0199)" fill="#F7F7F7" width="10" height="1023.99"/>
<rect x="961.357" y="336.012" transform="matrix(0.7071 0.7071 -0.7071 0.7071 882.6712 -434.9421)" fill="#F8FC30" width="10" height="1023.99"/>
<rect x="968.418" y="342.956" transform="matrix(0.7072 0.7071 -0.7071 0.7072 889.5858 -437.8853)" fill="#F7F7F7" width="10.001" height="1024.063"/>
<rect x="975.493" y="350.025" transform="matrix(0.7071 0.7072 -0.7072 0.7071 896.8359 -440.8287)" fill="#F8FC30" width="10.001" height="1024.063"/>
<rect x="982.577" y="357.226" transform="matrix(0.7071 0.7071 -0.7071 0.7071 903.8868 -443.7334)" fill="#F7F7F7" width="10" height="1023.99"/>
<rect x="989.647" y="364.296" transform="matrix(0.7071 0.7071 -0.7071 0.7071 910.957 -446.6616)" fill="#F8FC30" width="9.999" height="1023.991"/>
<rect x="996.717" y="371.37" transform="matrix(0.7071 0.7072 -0.7072 0.7071 918.1214 -449.5952)" fill="#F7F7F7" width="10" height="1023.99"/>
<rect x="1003.788" y="378.439" transform="matrix(0.7071 0.7072 -0.7072 0.7071 925.1917 -452.524)" fill="#F8FC30" width="10" height="1023.99"/>
<rect x="1010.857" y="385.51" transform="matrix(0.7071 0.7071 -0.7071 0.7071 932.1699 -455.4463)" fill="#F7F7F7" width="10" height="1023.99"/>
<rect x="1017.927" y="392.583" transform="matrix(0.7071 0.7072 -0.7072 0.7071 939.3354 -458.3796)" fill="#F8FC30" width="10" height="1023.99"/>
<rect x="1024.998" y="399.653" transform="matrix(0.7071 0.7071 -0.7071 0.7071 946.3121 -461.3027)" fill="#F7F7F7" width="9.999" height="1023.991"/>
<rect x="1032.067" y="406.723" transform="matrix(0.7071 0.7071 -0.7071 0.7071 953.3818 -464.2308)" fill="#F8FC30" width="10" height="1023.99"/>
<rect x="1039.137" y="413.796" transform="matrix(0.7071 0.7072 -0.7072 0.7071 960.5496 -467.1643)" fill="#F7F7F7" width="10" height="1023.99"/>
<rect x="1046.197" y="420.731" transform="matrix(0.7072 0.7071 -0.7071 0.7072 967.3542 -470.1034)" fill="#F8FC30" width="10.001" height="1024.062"/>
<rect x="1053.288" y="427.938" transform="matrix(0.7071 0.7072 -0.7072 0.7071 974.6958 -473.0278)" fill="#F7F7F7" width="10" height="1023.99"/>
<rect x="1060.357" y="435.009" transform="matrix(0.7072 0.7071 -0.7071 0.7072 981.5706 -475.9445)" fill="#F8FC30" width="10" height="1023.99"/>
<rect x="1067.419" y="441.942" transform="matrix(0.7072 0.707 -0.707 0.7072 988.4675 -478.8906)" fill="#F7F7F7" width="10" height="1024.064"/>
<rect x="1074.494" y="449.012" transform="matrix(0.7071 0.7071 -0.7071 0.7071 995.7368 -481.8344)" fill="#F8FC30" width="10" height="1024.063"/>
<rect x="1081.567" y="456.222" transform="matrix(0.7071 0.7071 -0.7071 0.7071 1002.8807 -484.7344)" fill="#F7F7F7" width="9.999" height="1023.99"/>
<rect x="1088.638" y="463.294" transform="matrix(0.7071 0.7072 -0.7072 0.7071 1010.0533 -487.6692)" fill="#F8FC30" width="10" height="1023.99"/>
<rect x="1095.698" y="470.224" transform="matrix(0.7072 0.7071 -0.7071 0.7072 1016.8445 -490.6099)" fill="#F7F7F7" width="10.001" height="1024.063"/>
<rect x="1102.778" y="477.435" transform="matrix(0.7071 0.7071 -0.7071 0.7071 1024.0933 -493.5195)" fill="#F8FC30" width="9.999" height="1023.991"/>
<rect x="1109.843" y="484.364" transform="matrix(0.7071 0.7072 -0.7072 0.7071 1031.191 -496.4813)" fill="#F7F7F7" width="10.001" height="1024.063"/>
<rect x="1116.918" y="491.434" transform="matrix(0.7072 0.7071 -0.7071 0.7072 1038.0564 -499.4021)" fill="#F8FC30" width="10.001" height="1024.064"/>
<rect x="1123.994" y="498.505" transform="matrix(0.707 0.7072 -0.7072 0.707 1045.4407 -502.3516)" fill="#F7F7F7" width="10" height="1024.063"/>
<rect x="1131.067" y="505.72" transform="matrix(0.7071 0.7071 -0.7071 0.7071 1052.3793 -505.2386)" fill="#F8FC30" width="9.999" height="1023.99"/>
<rect x="1138.128" y="512.645" transform="matrix(0.7072 0.7071 -0.7071 0.7072 1059.2651 -508.1873)" fill="#F7F7F7" width="10.001" height="1024.064"/>
<rect x="1145.198" y="519.716" transform="matrix(0.7072 0.7071 -0.7071 0.7072 1066.3342 -511.1156)" fill="#F8FC30" width="10.001" height="1024.063"/>
<rect x="1152.278" y="526.935" transform="matrix(0.7071 0.7071 -0.7071 0.7071 1073.593 -514.0233)" fill="#F7F7F7" width="9.999" height="1023.99"/>
<rect x="1159.347" y="534.005" transform="matrix(0.7071 0.7071 -0.7071 0.7071 1080.6636 -516.9514)" fill="#F8FC30" width="10" height="1023.99"/>
<rect x="1166.418" y="541.077" transform="matrix(0.7071 0.7071 -0.7071 0.7071 1087.7346 -519.8794)" fill="#F7F7F7" width="9.999" height="1023.99"/>
<rect x="1173.488" y="548.148" transform="matrix(0.7071 0.7071 -0.7071 0.7071 1094.8049 -522.8079)" fill="#F8FC30" width="9.999" height="1023.99"/>
<rect x="1180.567" y="555.218" transform="matrix(0.7071 0.7072 -0.7072 0.7071 1101.9883 -525.7484)" fill="#F7F7F7" width="10" height="1023.99"/>
<rect x="1187.628" y="562.14" transform="matrix(0.7072 0.7071 -0.7071 0.7072 1108.7559 -528.6921)" fill="#F8FC30" width="10.001" height="1024.063"/>
<rect x="1194.708" y="569.36" transform="matrix(0.7071 0.7071 -0.7071 0.7071 1116.02 -531.5994)" fill="#F7F7F7" width="9.999" height="1023.99"/>
<rect x="1201.778" y="576.432" transform="matrix(0.7071 0.7072 -0.7072 0.7071 1123.2032 -534.5334)" fill="#F8FC30" width="10" height="1023.99"/>
<rect x="1208.848" y="583.502" transform="matrix(0.7071 0.7071 -0.7071 0.7071 1130.1616 -537.4563)" fill="#F7F7F7" width="10" height="1023.991"/>
<rect x="1215.914" y="590.421" transform="matrix(0.7071 0.7072 -0.7072 0.7071 1137.2625 -540.4218)" fill="#F8FC30" width="10.001" height="1024.063"/>
<rect x="1222.988" y="597.646" transform="matrix(0.7071 0.7071 -0.7071 0.7071 1144.3037 -543.312)" fill="#F7F7F7" width="9.999" height="1023.99"/>
<rect x="1230.057" y="604.716" transform="matrix(0.7071 0.7071 -0.7071 0.7071 1151.3741 -546.2402)" fill="#F8FC30" width="10" height="1023.99"/>
<rect x="1237.128" y="611.788" transform="matrix(0.7071 0.7071 -0.7071 0.7071 1158.4453 -549.168)" fill="#F7F7F7" width="9.999" height="1023.99"/>
<rect x="1244.198" y="618.859" transform="matrix(0.7071 0.7071 -0.7071 0.7071 1165.5156 -552.0967)" fill="#F8FC30" width="9.999" height="1023.99"/>
<rect x="1251.278" y="625.93" transform="matrix(0.7071 0.7072 -0.7072 0.7071 1172.7068 -555.0376)" fill="#F7F7F7" width="10" height="1023.99"/>
<rect x="1258.348" y="633.002" transform="matrix(0.7071 0.7072 -0.7072 0.7071 1179.7784 -557.9658)" fill="#F8FC30" width="10" height="1023.99"/>
<rect x="1265.414" y="639.915" transform="matrix(0.7071 0.7071 -0.7071 0.7071 1186.6444 -560.9214)" fill="#F7F7F7" width="10" height="1024.063"/>
<rect x="1272.487" y="647.144" transform="matrix(0.7071 0.7071 -0.7071 0.7071 1193.8026 -563.816)" fill="#F8FC30" width="10" height="1023.991"/>
<rect x="1279.557" y="654.215" transform="matrix(0.7071 0.7072 -0.7072 0.7071 1200.9929 -566.7495)" fill="#F7F7F7" width="10" height="1023.99"/>
<rect x="1286.624" y="661.125" transform="matrix(0.7071 0.7071 -0.7071 0.7071 1207.855 -569.7065)" fill="#F8FC30" width="10" height="1024.063"/>
<rect x="1293.697" y="668.358" transform="matrix(0.7071 0.7071 -0.7071 0.7071 1215.0151 -572.6001)" fill="#F7F7F7" width="10" height="1023.99"/>
<rect x="1300.767" y="675.428" transform="matrix(0.7071 0.7071 -0.7071 0.7071 1222.0854 -575.5286)" fill="#F8FC30" width="10" height="1023.99"/>
<rect x="1307.834" y="682.337" transform="matrix(0.7071 0.7072 -0.7072 0.7071 1229.1885 -578.4973)" fill="#F7F7F7" width="10.001" height="1024.063"/>
<rect x="1314.914" y="689.407" transform="matrix(0.7071 0.7072 -0.7072 0.7071 1236.2623 -581.4329)" fill="#F8FC30" width="10.001" height="1024.063"/>
<rect x="1321.987" y="696.642" transform="matrix(0.7072 0.7071 -0.7071 0.7072 1243.177 -584.3142)" fill="#F7F7F7" width="10" height="1023.99"/>
<rect x="1329.057" y="703.713" transform="matrix(0.7071 0.7071 -0.7071 0.7071 1250.3713 -587.2485)" fill="#F8FC30" width="10" height="1023.99"/>
<rect x="1336.12" y="710.784" transform="matrix(0.7072 0.707 -0.707 0.7072 1257.1907 -590.1598)" fill="#F7F7F7" width="10" height="1023.991"/>
<rect x="1343.198" y="717.855" transform="matrix(0.7071 0.7072 -0.7072 0.7071 1264.6392 -593.1106)" fill="#F8FC30" width="10" height="1023.99"/>
<path opacity="0.8" fill="none" stroke="#FFFFFF" stroke-width="12" stroke-linejoin="round" enable-background="new    " d="
	M896.495,269.431l502.972-502.971c5.467-5.468,14.332-5.468,19.799,0l381.142,381.141c5.468,5.468,5.468,14.332-0.001,19.799
	l-502.971,502.97c-5.467,5.468-14.331,5.468-19.799,0.001L896.495,289.229C891.029,283.762,891.029,274.898,896.495,269.431z"/>
<path opacity="0.8" fill="none" stroke="#FFFFFF" stroke-width="16" stroke-linejoin="round" enable-background="new    " d="
	M409.344,851.969l305.554,305.553c4.687,4.688,4.687,12.285,0,16.972l-396.07,396.069c-4.687,4.688-12.284,4.688-16.971,0
	L-3.697,1265.009c-4.686-4.686-4.686-12.284,0-16.97l396.07-396.07C397.06,847.282,404.656,847.282,409.344,851.969z"/>
</svg>
