<svg version="1.1" id="レイヤー_1" xmlns="http://www.w3.org/2000/svg" xmlns:xlink="http://www.w3.org/1999/xlink" x="0px" y="0px" width="572" height="358" viewBox="0 0 572 358" enable-background="new 0 0 572 358" xml:space="preserve"><title>TAMTAM ONE-PHRASE DIARY - たむたむのひとこと日記</title><defs><style>@keyframes animate-svg-fill-1{0%{fill:transparent}100%{fill:#000}}.svg-elem-1{animation:animate-svg-fill-1 .3s cubic-bezier(.47,0,.745,.715) 0s both}@keyframes animate-svg-fill-2{0%{fill:transparent}100%{fill:#fff}}.svg-elem-2{animation:animate-svg-fill-2 .3s cubic-bezier(.47,0,.745,.715) 70ms both}@keyframes animate-svg-fill-3{0%{fill:transparent}100%{fill:#fff}}.svg-elem-3{animation:animate-svg-fill-3 .3s cubic-bezier(.47,0,.745,.715) .14s both}@keyframes animate-svg-fill-4{0%{fill:transparent}100%{fill:#fff}}.svg-elem-4{animation:animate-svg-fill-4 .3s cubic-bezier(.47,0,.745,.715) .21000000000000002s both}@keyframes animate-svg-fill-5{0%{fill:transparent}100%{fill:#fff}}.svg-elem-5{animation:animate-svg-fill-5 .3s cubic-bezier(.47,0,.745,.715) .28s both}@keyframes animate-svg-fill-6{0%{fill:transparent}100%{fill:#fff}}.svg-elem-6{animation:animate-svg-fill-6 .3s cubic-bezier(.47,0,.745,.715) .35000000000000003s both}@keyframes animate-svg-fill-7{0%{fill:transparent}100%{fill:#fff}}.svg-elem-7{animation:animate-svg-fill-7 .3s cubic-bezier(.47,0,.745,.715) .42000000000000004s both}@keyframes animate-svg-fill-8{0%{fill:transparent}100%{fill:#fff}}.svg-elem-8{animation:animate-svg-fill-8 .3s cubic-bezier(.47,0,.745,.715) .49000000000000005s both}@keyframes animate-svg-fill-9{0%{fill:transparent}100%{fill:#fff}}.svg-elem-9{animation:animate-svg-fill-9 .3s cubic-bezier(.47,0,.745,.715) .56s both}@keyframes animate-svg-fill-10{0%{fill:transparent}100%{fill:#fff}}.svg-elem-10{animation:animate-svg-fill-10 .3s cubic-bezier(.47,0,.745,.715) .6300000000000001s both}@keyframes animate-svg-fill-11{0%{fill:transparent}100%{fill:#fff}}.svg-elem-11{animation:animate-svg-fill-11 .3s cubic-bezier(.47,0,.745,.715) .7000000000000001s both}@keyframes animate-svg-fill-12{0%{fill:transparent}100%{fill:#fff}}.svg-elem-12{animation:animate-svg-fill-12 .3s cubic-bezier(.47,0,.745,.715) .77s both}@keyframes animate-svg-fill-13{0%{fill:transparent}100%{fill:#000}}.svg-elem-13{animation:animate-svg-fill-13 .3s cubic-bezier(.47,0,.745,.715) .8400000000000001s both}@keyframes animate-svg-fill-14{0%{fill:transparent}100%{fill:#000}}.svg-elem-14{animation:animate-svg-fill-14 .3s cubic-bezier(.47,0,.745,.715) .9100000000000001s both}@keyframes animate-svg-fill-15{0%{fill:transparent}100%{fill:#000}}.svg-elem-15{animation:animate-svg-fill-15 .3s cubic-bezier(.47,0,.745,.715) .9800000000000001s both}@keyframes animate-svg-fill-16{0%{fill:transparent}100%{fill:#000}}.svg-elem-16{animation:animate-svg-fill-16 .3s cubic-bezier(.47,0,.745,.715) 1.05s both}@keyframes animate-svg-fill-17{0%{fill:transparent}100%{fill:#000}}.svg-elem-17{animation:animate-svg-fill-17 .3s cubic-bezier(.47,0,.745,.715) 1.12s both}@keyframes animate-svg-fill-18{0%{fill:transparent}100%{fill:#000}}.svg-elem-18{animation:animate-svg-fill-18 .3s cubic-bezier(.47,0,.745,.715) 1.1900000000000002s both}@keyframes animate-svg-fill-19{0%{fill:transparent}100%{fill:#000}}.svg-elem-19{animation:animate-svg-fill-19 .3s cubic-bezier(.47,0,.745,.715) 1.2600000000000002s both}@keyframes animate-svg-fill-20{0%{fill:transparent}100%{fill:#000}}.svg-elem-20{animation:animate-svg-fill-20 .3s cubic-bezier(.47,0,.745,.715) 1.33s both}@keyframes animate-svg-fill-21{0%{fill:transparent}100%{fill:#000}}.svg-elem-21{animation:animate-svg-fill-21 .3s cubic-bezier(.47,0,.745,.715) 1.4000000000000001s both}@keyframes animate-svg-fill-22{0%{fill:transparent}100%{fill:#000}}.svg-elem-22{animation:animate-svg-fill-22 .3s cubic-bezier(.47,0,.745,.715) 1.4700000000000002s both}@keyframes animate-svg-fill-23{0%{fill:transparent}100%{fill:#000}}.svg-elem-23{animation:animate-svg-fill-23 .3s cubic-bezier(.47,0,.745,.715) 1.54s both}@keyframes animate-svg-fill-24{0%{fill:transparent}100%{fill:#000}}.svg-elem-24{animation:animate-svg-fill-24 .3s cubic-bezier(.47,0,.745,.715) 1.61s both}@keyframes animate-svg-fill-25{0%{fill:transparent}100%{fill:#000}}.svg-elem-25{animation:animate-svg-fill-25 .3s cubic-bezier(.47,0,.745,.715) 1.6800000000000002s both}@keyframes animate-svg-fill-26{0%{fill:transparent}100%{fill:#000}}.svg-elem-26{animation:animate-svg-fill-26 .3s cubic-bezier(.47,0,.745,.715) 1.7500000000000002s both}@keyframes animate-svg-fill-27{0%{fill:transparent}100%{fill:#000}}.svg-elem-27{animation:animate-svg-fill-27 .3s cubic-bezier(.47,0,.745,.715) 1.8200000000000003s both}@keyframes animate-svg-fill-28{0%{fill:transparent}100%{fill:#000}}.svg-elem-28{animation:animate-svg-fill-28 .3s cubic-bezier(.47,0,.745,.715) 1.8900000000000001s both}@keyframes animate-svg-fill-29{0%{fill:transparent}100%{fill:#d3d3d3}}.svg-elem-29{animation:animate-svg-fill-29 .3s cubic-bezier(.47,0,.745,.715) 1.9600000000000002s both}@keyframes animate-svg-fill-30{0%{fill:transparent}100%{fill:#c9c9c9}}.svg-elem-30{animation:animate-svg-fill-30 .3s cubic-bezier(.47,0,.745,.715) 2.0300000000000002s both}@keyframes animate-svg-fill-31{0%{fill:transparent}100%{fill:#fff}}.svg-elem-31{animation:animate-svg-fill-31 .3s cubic-bezier(.47,0,.745,.715) 2.1s both}@keyframes animate-svg-fill-32{0%{fill:transparent}100%{fill:#fff}}.svg-elem-32{animation:animate-svg-fill-32 .3s cubic-bezier(.47,0,.745,.715) 2.1700000000000004s both}@keyframes animate-svg-fill-33{0%{fill:transparent}100%{fill:#fff}}.svg-elem-33{animation:animate-svg-fill-33 .3s cubic-bezier(.47,0,.745,.715) 2.24s both}@keyframes animate-svg-fill-34{0%{fill:transparent}100%{fill:#fff}}.svg-elem-34{animation:animate-svg-fill-34 .3s cubic-bezier(.47,0,.745,.715) 2.31s both}@keyframes animate-svg-fill-35{0%{fill:transparent}100%{fill:#fcd9e1}}.svg-elem-35{animation:animate-svg-fill-35 .3s cubic-bezier(.47,0,.745,.715) 2.3800000000000003s both}@keyframes animate-svg-fill-36{0%{fill:transparent}100%{fill:#000}}.svg-elem-36{animation:animate-svg-fill-36 .3s cubic-bezier(.47,0,.745,.715) 2.45s both}@keyframes animate-svg-fill-37{0%{fill:transparent}100%{fill:#e8e8e8}}.svg-elem-37{animation:animate-svg-fill-37 .3s cubic-bezier(.47,0,.745,.715) 2.5200000000000005s both}@keyframes animate-svg-fill-38{0%{fill:transparent}100%{fill:#e5e5e5}}.svg-elem-38{animation:animate-svg-fill-38 .3s cubic-bezier(.47,0,.745,.715) 2.5900000000000003s both}@keyframes animate-svg-fill-39{0%{fill:transparent}100%{fill:#000}}.svg-elem-39{animation:animate-svg-fill-39 .3s cubic-bezier(.47,0,.745,.715) 2.66s both}@keyframes animate-svg-fill-40{0%{fill:transparent}100%{fill:#000}}.svg-elem-40{animation:animate-svg-fill-40 .3s cubic-bezier(.47,0,.745,.715) 2.7300000000000004s both}</style></defs>	<g id="hero"><g id="sub"><path id="Rectangle_3" d="M28.947,320.205h516.106c3.313,0,6,2.686,6,6v20.624c0,3.313-2.687,6-6,6H28.947c-3.313,0-6-2.687-6-6
				v-20.624C22.947,322.891,25.633,320.205,28.947,320.205z" class="svg-elem-1"></path><g id="ã_x81__x9F_ã_x82__x80_ã_x81__x9F_ã_x82__x80_ã_x81__xAE_ã_x81__xB2_ã_x81__xA8_ã_x81__x93_ã_x81__xA8_æ_x97__xA5_è_xA8__x98_">
				<path fill="#FFFFFF" d="M53.358,339.284l-2.88-0.28c-0.16,0.76-0.38,1.84-0.38,2.86c0,2.04,1.859,3.3,5.359,3.3
					c1.681,0,3.04-0.141,4.181-0.28l0.12-3.08c-1.54,0.261-2.921,0.421-4.28,0.421c-1.76,0-2.38-0.521-2.38-1.36
					C53.098,340.464,53.218,339.804,53.358,339.284z M51.117,328.124l-3.7-0.28c0.061,0.5,0.04,1.4-0.06,2.24
					c-0.021,0.24-0.061,0.5-0.1,0.8c-0.561,0.021-1.08,0.04-1.62,0.04c-0.86,0-1.5-0.04-2.58-0.16l0.08,3.021
					c0.68,0.04,1.46,0.08,2.479,0.08c0.32,0,0.66,0,1.021-0.021c-0.101,0.48-0.24,0.96-0.36,1.42c-0.76,2.78-2.34,7.04-3.52,9.021
					l3.359,1.14c1.141-2.48,2.48-6.54,3.2-9.32c0.2-0.8,0.4-1.66,0.6-2.52c1.301-0.141,2.58-0.359,3.721-0.641v-3.02
					c-1.021,0.24-2.04,0.44-3.061,0.6c0.04-0.119,0.061-0.239,0.08-0.34C50.758,329.725,50.957,328.744,51.117,328.124z
					M51.898,334.164v2.82c1.28-0.16,2.52-0.221,3.96-0.221c1.24,0,2.479,0.141,3.479,0.26l0.061-2.899
					c-1.22-0.12-2.42-0.181-3.54-0.181C54.558,333.943,53.058,334.044,51.898,334.164z" class="svg-elem-2"></path>
				<path fill="#FFFFFF" d="M95.598,327.864h-3.38c0.159,0.62,0.239,1.239,0.239,2.54c-0.16,0-0.319,0-0.479,0
					c-0.9,0-2.2-0.12-3.26-0.26l0.18,2.819c1.399,0.12,2.46,0.16,3.3,0.16c0.08,0,0.16,0,0.26,0v1.021
					c-2.199,0.08-3.779,1.779-3.779,4.279c0,2.68,1.52,3.82,3.159,3.82c0.04,0,0.101,0,0.141,0c0,0.04,0,0.1,0,0.14
					c0,1.341-0.021,3.12,5.02,3.12c1.38,0,3.541-0.14,4.461-0.46c2.58-0.819,3.04-2.101,3.16-3.86c0.06-0.84,0.04-1.279,0.04-2.459
					l-3.36-1c0.14,1,0.16,1.799,0.16,2.579c0,0.86-0.32,1.58-1.36,1.9c-0.78,0.239-1.94,0.36-2.88,0.36c-2.061,0-2.24-0.44-2.24-1.16
					v-0.54c0.7-0.86,1.02-2.061,1.02-3.38c0-0.86-0.2-1.601-0.62-2.16v-2.381c1.101-0.119,2.28-0.279,3.42-0.539v-2.9
					c-1.159,0.32-2.319,0.54-3.42,0.68C95.398,329.064,95.497,328.443,95.598,327.864z M102.158,329.604l-2.04,2.021
					c1.18,0.84,3.1,2.74,4.26,4.12l2.18-2.24C105.658,332.443,103.458,330.384,102.158,329.604z M92.138,339.344
					c-0.48,0-0.94-0.439-0.94-1.18c0-0.98,0.54-1.62,1.24-1.62c0.479,0,0.8,0.38,0.8,1.06
					C93.238,338.624,92.917,339.344,92.138,339.344z" class="svg-elem-3"></path>
				<path fill="#FFFFFF" d="M145.358,339.284l-2.88-0.28c-0.16,0.76-0.38,1.84-0.38,2.86c0,2.04,1.86,3.3,5.36,3.3
					c1.68,0,3.04-0.141,4.18-0.28l0.12-3.08c-1.54,0.261-2.92,0.421-4.28,0.421c-1.76,0-2.38-0.521-2.38-1.36
					C145.098,340.464,145.218,339.804,145.358,339.284z M143.118,328.124l-3.7-0.28c0.06,0.5,0.04,1.4-0.061,2.24
					c-0.02,0.24-0.06,0.5-0.1,0.8c-0.561,0.021-1.08,0.04-1.62,0.04c-0.86,0-1.5-0.04-2.58-0.16l0.08,3.021
					c0.68,0.04,1.46,0.08,2.48,0.08c0.319,0,0.659,0,1.02-0.021c-0.1,0.48-0.24,0.96-0.36,1.42c-0.76,2.78-2.34,7.04-3.52,9.021
					l3.36,1.14c1.14-2.48,2.479-6.54,3.199-9.32c0.2-0.8,0.4-1.66,0.601-2.52c1.3-0.141,2.58-0.359,3.72-0.641v-3.02
					c-1.02,0.24-2.04,0.44-3.06,0.6c0.04-0.119,0.06-0.239,0.08-0.34C142.758,329.725,142.958,328.744,143.118,328.124z
					M143.898,334.164v2.82c1.28-0.16,2.521-0.221,3.96-0.221c1.24,0,2.48,0.141,3.48,0.26l0.06-2.899
					c-1.22-0.12-2.42-0.181-3.54-0.181C146.558,333.943,145.058,334.044,143.898,334.164z" class="svg-elem-4"></path>
				<path fill="#FFFFFF" d="M187.598,327.864h-3.38c0.16,0.62,0.24,1.239,0.24,2.54c-0.16,0-0.32,0-0.48,0
					c-0.899,0-2.2-0.12-3.26-0.26l0.18,2.819c1.4,0.12,2.46,0.16,3.3,0.16c0.08,0,0.16,0,0.261,0v1.021
					c-2.2,0.08-3.78,1.779-3.78,4.279c0,2.68,1.52,3.82,3.16,3.82c0.04,0,0.1,0,0.14,0c0,0.04,0,0.1,0,0.14
					c0,1.341-0.02,3.12,5.021,3.12c1.38,0,3.54-0.14,4.46-0.46c2.58-0.819,3.04-2.101,3.16-3.86c0.06-0.84,0.04-1.279,0.04-2.459
					l-3.36-1c0.14,1,0.16,1.799,0.16,2.579c0,0.86-0.32,1.58-1.36,1.9c-0.78,0.239-1.939,0.36-2.88,0.36c-2.06,0-2.24-0.44-2.24-1.16
					v-0.54c0.7-0.86,1.021-2.061,1.021-3.38c0-0.86-0.2-1.601-0.62-2.16v-2.381c1.1-0.119,2.28-0.279,3.42-0.539v-2.9
					c-1.16,0.32-2.32,0.54-3.42,0.68C187.398,329.064,187.498,328.443,187.598,327.864z M194.158,329.604l-2.04,2.021
					c1.18,0.84,3.1,2.74,4.26,4.12l2.18-2.24C197.658,332.443,195.458,330.384,194.158,329.604z M184.138,339.344
					c-0.479,0-0.94-0.439-0.94-1.18c0-0.98,0.54-1.62,1.24-1.62c0.48,0,0.8,0.38,0.8,1.06
					C185.238,338.624,184.918,339.344,184.138,339.344z" class="svg-elem-5"></path>
				<path fill="#FFFFFF" d="M244.058,337.164c0-4.54-3.22-8.061-8.32-8.061c-5.34,0-9.439,4.041-9.439,8.801
					c0,3.42,1.88,6.1,4.36,6.1c2.359,0,4.159-2.68,5.34-6.68c0.56-1.86,0.92-3.6,1.18-5.221c2.3,0.541,3.56,2.381,3.56,4.961
					c0,2.64-1.699,4.42-4.239,5.039c-0.58,0.141-1.12,0.261-1.96,0.36l1.84,2.88C241.578,344.464,244.058,341.384,244.058,337.164z
					M229.438,337.584c0-1.9,1.48-4.6,4.44-5.4c-0.24,1.561-0.58,3.141-1.021,4.5c-0.72,2.32-1.319,3.541-2.12,3.541
					C230.038,340.225,229.438,339.324,229.438,337.584z" class="svg-elem-6"></path>
				<path fill="#FFFFFF" d="M272.838,329.604l0.22,3.121c0.48-0.101,0.78-0.141,1.24-0.201c0.5-0.06,1.56-0.18,2.2-0.199
					c-1.92,2.58-2.94,4.76-2.94,7.76c0,3.8,3,5.561,6.24,5.561c5.64,0,7.22-4.041,7-8.36c0.62,1,1.26,1.899,1.96,2.68l1.939-2.819
					c-3.119-2.9-3.92-5.961-4.3-8.5l-3.06,0.84c0.1,0.319,0.22,0.64,0.32,0.959c1.739,7.221,0.52,11.921-3.801,11.921
					c-1.84,0-3.16-0.921-3.16-2.98c0-3.68,2.48-6.54,3.921-7.62c0.3-0.199,0.659-0.359,0.96-0.479l-0.9-2.681
					c-1.4,0.48-4.72,0.9-6.68,1C273.618,329.624,273.218,329.624,272.838,329.604z" class="svg-elem-7"></path>
				<path fill="#FFFFFF" d="M323.552,328.064l-3.04,1.239c0.88,2.08,1.82,4.14,2.74,5.86c-1.841,1.38-3.261,3.04-3.261,5.3
					c0,3.7,3.181,4.8,7.3,4.8c2.66,0,4.66-0.199,6.48-0.5l0.04-3.5c-1.9,0.44-4.62,0.78-6.6,0.78c-2.561,0-3.841-0.62-3.841-1.94
					c0-1.319,1.12-2.379,2.66-3.399c1.76-1.12,4.12-2.2,5.301-2.78c0.819-0.4,1.539-0.8,2.239-1.22l-1.68-2.8
					c-0.58,0.479-1.22,0.859-2.08,1.359s-2.38,1.28-3.84,2.12C325.172,331.904,324.291,330.084,323.552,328.064z" class="svg-elem-8"></path>
				<path fill="#FFFFFF" d="M366.852,329.404v3.22c1.66,0.12,3.42,0.22,5.56,0.22c1.94,0,4.58-0.119,6-0.24v-3.239
					c-1.579,0.159-4.02,0.28-6.02,0.28C370.232,329.645,368.352,329.564,366.852,329.404z M369.031,338.104l-3.18-0.279
					c-0.14,0.72-0.4,1.72-0.4,2.939c0,2.881,2.28,4.521,7.141,4.521c2.779,0,5.1-0.24,7.02-0.66l-0.02-3.44
					c-1.92,0.5-4.46,0.801-7.12,0.801c-2.7,0-3.74-0.86-3.74-1.98C368.732,339.364,368.871,338.784,369.031,338.104z" class="svg-elem-9"></path>
				<path fill="#FFFFFF" d="M415.552,328.064l-3.04,1.239c0.88,2.08,1.82,4.14,2.74,5.86c-1.841,1.38-3.261,3.04-3.261,5.3
					c0,3.7,3.181,4.8,7.3,4.8c2.66,0,4.66-0.199,6.48-0.5l0.04-3.5c-1.9,0.44-4.62,0.78-6.6,0.78c-2.561,0-3.841-0.62-3.841-1.94
					c0-1.319,1.12-2.379,2.66-3.399c1.76-1.12,4.12-2.2,5.301-2.78c0.819-0.4,1.539-0.8,2.239-1.22l-1.68-2.8
					c-0.58,0.479-1.22,0.859-2.08,1.359s-2.38,1.28-3.84,2.12C417.172,331.904,416.291,330.084,415.552,328.064z" class="svg-elem-10"></path>
				<path fill="#FFFFFF" d="M460.512,341.624v-3.899h8.3v3.899H460.512z M468.812,331.184v3.66h-8.3v-3.66H468.812z M457.512,328.244
					v17.64h3v-1.319h8.3v1.319h3.14v-17.64H457.512z" class="svg-elem-11"></path>
				<path fill="#FFFFFF" d="M508.812,327.704h-6.5v2.16h6.5V327.704z M506.172,341.145v1.699h-1.561v-1.699H506.172z
					M508.712,338.884h-6.601v6.94h2.5v-0.721h4.101V338.884z M502.192,338.225h6.58v-2.16h-6.58V338.225z M502.192,335.464h6.58
					v-2.16h-6.58V335.464z M501.192,332.704h8.38v-2.261h-8.38V332.704z M514.212,343.244c-0.881,0-1.021-0.12-1.021-1.02v-4.98h3.1
					v0.96h2.921v-10.14h-8.921v2.76h6v3.68h-6.039v7.74c0,2.92,0.84,3.74,3.56,3.74h2.94c2.42,0,3.199-1.021,3.539-4.4
					c-0.8-0.18-2.06-0.68-2.68-1.141c-0.14,2.36-0.28,2.801-1.1,2.801H514.212z" class="svg-elem-12"></path>
			</g>
		</g>
		<g id="main">
			<g id="catch">
				<g id="ONE_PHRASE">
					<path d="M62.192,109.425c-1.586,0-3.025-0.536-4.317-1.607c-1.292-1.071-2.408-2.53-3.349-4.375
						c-1.703-3.214-2.967-7.619-3.789-13.213c-0.587-3.869-1.027-8.333-1.321-13.392l-0.088-4.731v-4.821
						c-0.06-1.547-0.089-3.422-0.089-5.625c0-3.571,0.147-6.726,0.441-9.463c0.234-2.857,0.822-5.684,1.762-8.481
						c0.94-2.44,2.291-4.167,4.054-5.178c1.058-0.476,2.114-0.714,3.172-0.714c3.113,0,5.581,1.25,7.402,3.75
						c1.997,2.797,3.318,5.922,3.965,9.375c0.94,4.167,1.469,8.154,1.586,11.963c0.235,4.226,0.353,8.213,0.353,11.963v5.089
						c0,1.012-0.146,2.917-0.44,5.714c-0.235,2.202-0.353,4.077-0.353,5.625v0.357c-0.353,1.667-0.528,3.63-0.528,5.892
						c0,1.667-0.353,3.393-1.058,5.178c-0.705,1.786-1.704,3.303-2.996,4.553C65.306,108.711,63.837,109.425,62.192,109.425z
						M62.368,104.515c1.175,0,2.174-1.102,2.996-3.304c0.705-1.964,1.204-4.345,1.498-7.143c0.353-2.857,0.646-6.071,0.881-9.642
						c0.117-1.547,0.177-3.541,0.177-5.981l-0.089-8.214c-0.117-3.214-0.47-7.231-1.058-12.053c-0.47-4.106-1.351-7.737-2.644-10.892
						c-0.587-1.488-1.321-2.648-2.202-3.482c-0.882-0.833-1.821-1.25-2.82-1.25c-1.469,0-2.555,1.161-3.26,3.482
						c-0.882,2.44-1.469,5.118-1.763,8.035c-0.353,3.154-0.558,6.16-0.617,9.017l-0.088,2.946c-0.059,0.833-0.088,1.964-0.088,3.393
						v0.357c0,3.988,0.411,8.898,1.233,14.731c0.94,7.916,2.32,13.541,4.142,16.874C59.842,103.473,61.075,104.515,62.368,104.515z" class="svg-elem-13"></path>
					<path d="M103.737,106.225c-1.175,0-3.584-6.13-7.226-18.391c-4.112-14.344-7.666-27.528-10.662-39.551v29.284
						c0,2.5,0.234,6.755,0.705,12.767c0.411,6.547,0.616,10.773,0.616,12.678c0,0.536-0.323,1.012-0.969,1.429
						c-0.646,0.357-1.381,0.535-2.203,0.535c-1.233,0-1.851-0.476-1.851-1.428l0.177-2.589c0.117-1.905,0.176-3.155,0.176-3.75
						c0-3.154-0.176-8.154-0.528-14.999c-0.353-6.964-0.529-11.19-0.529-12.678V58.104c0-1.845,0.088-4.583,0.265-8.214
						c0.235-3.154,0.353-5.892,0.353-8.213v-0.536c0-2.976,0.646-4.464,1.938-4.464c0.764,0,1.732,1.31,2.908,3.929
						c1.938,4.285,4.405,11.963,7.401,23.034c1.704,6.428,3.701,14.701,5.992,24.82c-0.059-0.238,0.411,1.815,1.409,6.16l0.089,0.446
						c0-5.773,0.059-10.952,0.176-15.535l0.177-15.535V37.57c0.234-1.488,1.175-2.232,2.819-2.232c1.586,0,2.379,1.161,2.379,3.482
						v0.536c-0.353,0.714-0.528,1.577-0.528,2.589c0,3.631-0.088,9.106-0.265,16.428c-0.176,7.38-0.264,12.916-0.264,16.605v27.23
						c0,0.952-0.265,1.845-0.793,2.678C105.029,105.779,104.442,106.225,103.737,106.225z" class="svg-elem-14"></path>
					<path d="M123.308,108.48c-1.116,0-2.085-0.148-2.908-0.446c-0.999-0.298-1.498-1.131-1.498-2.5V53.663
						c0-1.012-0.176-2.53-0.528-4.553c-0.411-1.845-0.616-3.363-0.616-4.553v-0.268c0.998-1.667,1.732-2.738,2.203-3.214
						c0.821,0,1.909-0.119,3.26-0.357c1.234-0.238,2.32-0.357,3.26-0.357c0.94,0,1.852,0.298,2.732,0.893
						c0.881,0.536,1.322,1.19,1.322,1.964c0,1.786-1.353,2.679-4.055,2.679h-1.232c-0.354-0.06-0.765-0.089-1.234-0.089
						c-0.529,0-0.852,0.03-0.969,0.089c0,2.023,0.117,4.464,0.352,7.321l0.176,2.5l0.178,4.911c0,1.131-0.089,2.857-0.266,5.178
						l-0.176,5l1.234-0.268c1.175-0.357,2.144-0.536,2.907-0.536c0.646,0,1.233,0.268,1.763,0.804
						c0.529,0.476,0.793,1.042,0.793,1.696c0,0.714-0.235,1.369-0.705,1.964c-0.411,0.536-0.94,0.804-1.586,0.804l-1.059-0.089
						h-1.145c-0.881,0-1.498,0.208-1.851,0.625v27.587l4.935-0.268c3.348,0,5.023,0.774,5.023,2.321v0.357
						c-0.354,0.714-0.999,1.309-1.939,1.786c-0.94,0.416-1.85,0.684-2.732,0.803l-2.906,0.089H123.308z" class="svg-elem-15"></path>
					<path d="M161.898,105.333c-0.646,0-1.175-0.268-1.586-0.804c-0.353-0.595-0.528-1.309-0.528-2.143l0.176-14.999
						c0.176-7.262,0.264-12.886,0.264-16.874c0-13.868-0.763-24.492-2.291-31.873c0.882-1.369,1.998-2.053,3.349-2.053
						c2.174,0,4.142,0.506,5.904,1.518c1.821,0.952,3.319,2.262,4.494,3.928c2.291,3.452,3.436,7.321,3.436,11.606
						c0,4.464-0.939,8.452-2.819,11.963c-1.879,3.512-4.611,6.25-8.194,8.213l0.176,9.017l0.177,4.732
						c0.059,1.012,0.088,2.47,0.088,4.375c0.176,3.988,0.265,7.232,0.265,9.731c0,1.131-0.235,2.024-0.705,2.678
						C163.631,105.005,162.896,105.333,161.898,105.333z M163.924,69.532c2.291-2.202,3.966-4.494,5.022-6.875
						c1.116-2.44,1.675-5.178,1.675-8.214v-0.089c0-1.369-0.147-3.095-0.44-5.178c-0.177-0.714-0.5-1.428-0.97-2.143
						c-0.47-0.714-0.734-1.131-0.793-1.25c-0.411-0.595-1.498-1.518-3.26-2.768l-2.291-1.696c0,3.036,0.176,7.738,0.528,14.106
						L163.924,69.532z" class="svg-elem-16"></path>
					<path d="M199.707,109.284c-0.764,0-1.352-0.298-1.763-0.893c-0.352-0.536-0.528-1.22-0.528-2.053
						c0-12.44-0.235-22.945-0.705-31.516c-1.409-0.238-2.408-0.357-2.996-0.357c-2.408,0-4.141,0.208-5.198,0.625
						c0,3.333,0.264,8.363,0.793,15.088c0.47,7.142,0.705,12.201,0.705,15.178c0,0.595-0.177,1.16-0.529,1.696
						c-0.353,0.476-0.793,0.714-1.321,0.714c-0.765,0-1.47-1.369-2.115-4.107c-0.94-4.047-1.703-12.529-2.291-25.444
						c-0.411-8.75-0.617-18.153-0.617-28.212c-0.058-1.845-0.088-4.464-0.088-7.856c0-1.071,0.5-1.607,1.498-1.607
						c0.588,0,1.175,0.149,1.763,0.446c0.646,0.298,1.116,0.625,1.41,0.982c-0.235,1.904-0.353,4.136-0.353,6.696
						c0,2.5,0.117,5.535,0.353,9.106c0.176,4.107,0.264,7.202,0.264,9.285v1.607c-0.059,0.476-0.088,1.042-0.088,1.696
						c0,0.595,0.059,1.369,0.177,2.321c0.352,0,0.939-0.03,1.762-0.089c0.823-0.06,1.645-0.149,2.468-0.268
						c1.938-0.179,3.377-0.268,4.317-0.268c0-5.178-0.059-9.97-0.177-14.374l-0.176-14.91V40.36c0.765,0,1.439,0.149,2.027,0.446
						c0.587,0.238,1.028,0.565,1.321,0.982c0.528,0.655,0.852,1.786,0.97,3.393v2.053c0,5.119,0.293,14.91,0.881,29.373
						c0.528,13.095,0.793,22.915,0.793,29.462c0,0.833-0.265,1.577-0.793,2.232C201,108.956,200.412,109.284,199.707,109.284z" class="svg-elem-17"></path>
					<path d="M229.674,105.779c-1.116,0-2.203-0.804-3.26-2.411v-0.268c-0.178-3.155-0.705-6.666-1.586-10.535
						c-0.883-3.869-2.175-8.541-3.878-14.017c-1.292-4.107-2.38-7.797-3.261-11.071v35.176c0,0.952-0.176,1.667-0.528,2.143
						c-0.293,0.416-0.91,0.625-1.851,0.625c-0.705,0-1.263-0.209-1.674-0.625c-0.411-0.476-0.617-1.071-0.617-1.786v-0.714
						l0.176-26.248c0.118-7.737,0.177-16.457,0.177-26.159V38.909c0-0.714,0.146-1.19,0.44-1.429
						c0.294-0.297,0.911-0.446,1.851-0.446c1.469,0,2.819,0.297,4.054,0.893c1.233,0.536,2.291,1.31,3.172,2.321
						c1.821,2.083,2.996,4.583,3.525,7.5c0.234,1.19,0.352,2.559,0.352,4.107c0,0.893-0.088,1.875-0.264,2.946
						c-0.118,1.071-0.206,1.756-0.266,2.053c-0.116,0.595-0.381,1.488-0.793,2.678c-0.41,1.19-0.675,1.964-0.793,2.321l-1.057,2.5
						l-0.881,2.321c0.059,2.143,0.411,4.851,1.057,8.124c0.705,3.274,1.469,6.31,2.291,9.107c0.588,1.964,1.646,5.238,3.172,9.821
						l2.557,7.856v0.178c0,1.012-0.088,1.875-0.265,2.589C231.348,105.303,230.731,105.779,229.674,105.779z M217.514,63.461
						c0.822-0.833,1.821-1.994,2.996-3.482l1.322-7.678c0.058-0.298,0.088-0.714,0.088-1.25c0-1.726-0.323-3.72-0.97-5.981
						c-0.353-1.071-0.822-1.964-1.409-2.679c-0.529-0.773-1.087-1.19-1.675-1.25l-0.177,8.928c-0.176,3.988-0.264,7.083-0.264,9.285
						C217.426,61.437,217.455,62.806,217.514,63.461z" class="svg-elem-18"></path>
					<path d="M256.291,107.945c-0.94,0-1.646-0.179-2.115-0.536c-0.411-0.357-0.617-0.952-0.617-1.786V93.928
						c-0.763-0.536-2.203-1.012-4.316-1.428c-2.115-0.417-4.113-0.685-5.992-0.804c-0.647,1.25-1.117,2.768-1.41,4.553l-0.354,1.786
						c-0.059,0.417-0.234,1.339-0.528,2.768c-0.293,1.429-0.616,2.678-0.97,3.75c-0.352,1.012-0.704,1.815-1.057,2.411
						c-2.231,0-3.525-0.596-3.877-1.786c0.646-0.952,1.38-3.75,2.203-8.392l2.907-16.338c1.293-7.738,2.468-14.344,3.524-19.82
						c1.116-5.476,2.291-10.059,3.525-13.749c1.351-4.107,2.643-6.16,3.877-6.16s2.174,0.238,2.82,0.714
						c0,2.381,0.558,8.125,1.674,17.231c1.175,8.928,1.762,15.029,1.762,18.302c0,3.154,0.323,7.678,0.97,13.57
						c0.587,6.012,0.882,10.803,0.882,14.374C259.199,106.933,258.229,107.945,256.291,107.945z M251.709,88.75
						c0.47,0,1.057-0.089,1.762-0.268c-0.176-2.619-0.47-5.863-0.881-9.731c-1.352-13.452-2.027-21.695-2.027-24.73v-0.714
						c-0.587,0.596-1.41,3.304-2.467,8.125c-0.999,4.762-1.939,9.88-2.82,15.356c-0.881,5.476-1.351,9.106-1.409,10.892
						C246.334,88.393,248.948,88.75,251.709,88.75z" class="svg-elem-19"></path>
					<path d="M274.673,106.85c-2.115,0-3.937-0.387-5.463-1.16c-0.94-0.536-1.41-1.161-1.41-1.875c0-0.714,0.176-1.28,0.528-1.696
						c0.353-0.476,0.852-0.714,1.498-0.714c0.588,0,1.439,0.238,2.556,0.714c1.232,0.476,1.997,0.714,2.291,0.714
						c1.116,0,2.115-0.476,2.996-1.428c0.939-1.012,1.674-2.321,2.203-3.928c1.057-2.976,1.586-5.654,1.586-8.035
						c0-2.56-0.411-5.238-1.234-8.035c-0.763-2.857-1.821-5.625-3.172-8.303l-1.41-2.856c-1.468-2.976-2.614-5.327-3.436-7.053
						c-0.765-1.726-1.44-3.601-2.027-5.625c-0.881-2.857-1.322-5.625-1.322-8.303c0-2.143,0.354-4.166,1.059-6.071
						c0.763-1.905,1.879-3.512,3.348-4.821c1.469-1.428,3.29-2.143,5.463-2.143c1.059,0,2.086,0.328,3.084,0.982
						c0.999,0.595,1.704,1.369,2.115,2.321l-1.498,1.875c-1.527,0-2.673-0.297-3.436-0.893c-1.059,0.119-1.998,0.655-2.82,1.607
						c-0.764,0.893-1.352,1.935-1.762,3.125c-0.354,1.13-0.529,2.262-0.529,3.393c0,2.262,0.294,4.583,0.881,6.963
						c0.646,2.321,1.469,4.523,2.467,6.607l6.168,12.499c0.999,2.143,1.792,4.553,2.38,7.231c0.587,2.678,0.882,5.357,0.882,8.035
						c0,3.928-0.94,7.618-2.82,11.07c-0.999,1.786-2.291,3.184-3.877,4.196C278.374,106.315,276.611,106.85,274.673,106.85z" class="svg-elem-20"></path>
					<path d="M301.693,108.48c-1.115,0-2.085-0.148-2.907-0.446c-0.998-0.298-1.498-1.131-1.498-2.5V53.663
						c0-1.012-0.177-2.53-0.528-4.553c-0.412-1.845-0.617-3.363-0.617-4.553v-0.268c0.998-1.667,1.733-2.738,2.203-3.214
						c0.822,0,1.909-0.119,3.26-0.357c1.234-0.238,2.32-0.357,3.26-0.357c0.94,0,1.852,0.298,2.732,0.893
						c0.881,0.536,1.322,1.19,1.322,1.964c0,1.786-1.352,2.679-4.055,2.679h-1.232c-0.354-0.06-0.764-0.089-1.234-0.089
						c-0.528,0-0.852,0.03-0.969,0.089c0,2.023,0.117,4.464,0.352,7.321l0.177,2.5l0.177,4.911c0,1.131-0.088,2.857-0.265,5.178
						l-0.177,5l1.234-0.268c1.175-0.357,2.144-0.536,2.908-0.536c0.646,0,1.232,0.268,1.762,0.804
						c0.529,0.476,0.793,1.042,0.793,1.696c0,0.714-0.235,1.369-0.705,1.964c-0.411,0.536-0.94,0.804-1.586,0.804l-1.059-0.089
						h-1.145c-0.881,0-1.498,0.208-1.85,0.625v27.587l4.934-0.268c3.349,0,5.023,0.774,5.023,2.321v0.357
						c-0.354,0.714-0.999,1.309-1.939,1.786c-0.94,0.416-1.85,0.684-2.731,0.803l-2.907,0.089H301.693z" class="svg-elem-21"></path>
				</g>
				<g id="DIARY">
					<path d="M50.715,295.845c-1.698,0-3.396-0.366-5.095-1.1c-1.698-0.734-2.548-1.589-2.548-2.567c0-0.732,0.566-1.955,1.698-3.667
						c1.133-1.589,1.628-2.811,1.486-3.666l-0.637-16.134l-1.486-50.049l-0.425-22.184c-0.141-13.566-0.495-22.062-1.062-25.483
						c-0.282-1.344-0.849-2.872-1.698-4.583c-0.99-2.323-1.485-3.973-1.485-4.95c0-2.934,5.378-4.4,16.134-4.4h1.062
						c7.219,0,13.446,2.139,18.683,6.416c4.104,3.3,7.784,8.495,11.039,15.584c2.265,5.622,3.963,11.917,5.096,18.883
						c0.566,3.666,1.062,9.289,1.486,16.867v5.683c0,7.578-1.203,15.828-3.609,24.75c-2.265,8.8-5.52,17.05-9.766,24.75
						c-2.548,4.889-5.874,9.289-9.979,13.2c-3.963,3.91-7.784,7.027-11.464,9.35C54.466,294.745,51.99,295.845,50.715,295.845z
						M53.9,286.495c5.237-2.322,9.907-5.685,14.012-10.084c4.104-4.522,7.36-9.472,9.766-14.851
						c2.123-4.521,3.893-9.654,5.308-15.399c1.415-5.866,2.406-11.306,2.973-16.316c0.424-4.399,0.637-8.616,0.637-12.649
						c0-35.689-11.394-53.533-34.18-53.533c-2.973,0-4.459,0.672-4.459,2.016c0,4.278,0.283,9.35,0.85,15.217
						c0.566,5.989,0.849,11.062,0.849,15.217c0,6.723,0.566,18.395,1.699,35.017c0.99,14.422,1.485,26.033,1.485,34.833v20.534H53.9z
						" class="svg-elem-22"></path>
					<path d="M137.303,299.842c-3.397-0.122-7.713-0.183-12.95-0.183c-0.991,0-1.911-0.306-2.76-0.917
						c-0.707-0.611-1.062-1.283-1.062-2.016c0-1.59,1.203-2.385,3.609-2.385h8.279c0-14.055-0.495-31.777-1.486-53.166
						c-0.565-17.111-1.132-30.556-1.698-40.334l0.212-9.35v-12.099c0-6.112-0.141-10.023-0.424-11.734h-7.431
						c-1.415,0-2.123-0.855-2.123-2.566c0-1.1,0.566-1.956,1.699-2.567c0.99-0.367,3.608-0.55,7.854-0.55h5.944
						c2.123,0.122,4.812,0.183,8.067,0.183c1.133,0,2.053,0.245,2.76,0.734c0.708,0.366,1.062,0.977,1.062,1.833
						c0,0.733-0.213,1.405-0.637,2.017c-0.425,0.611-1.062,0.916-1.911,0.916c-0.991,0-1.84-0.061-2.547-0.183h-2.548h-2.123
						c-1.415,0-2.265,0.122-2.548,0.367l-0.424,0.733c0,9.533,0.92,28.783,2.76,57.75c1.698,26.766,2.547,46.016,2.547,57.75v5.133
						c-0.141,1.589-0.212,3.239-0.212,4.95h7.643c3.255,0,4.883,0.854,4.883,2.567c0,0.732-0.354,1.465-1.062,2.199
						c-0.566,0.611-1.203,0.916-1.911,0.916H137.303z" class="svg-elem-23"></path>
					<path d="M220,295.479c-1.132,0-2.123-0.307-2.973-0.918c-0.708-0.61-1.062-1.344-1.062-2.199v-24.017
						c0-1.467-3.609-2.811-10.827-4.034c-7.218-1.222-13.162-1.832-17.833-1.832c-0.283,0-0.778,0.916-1.486,2.75
						c-0.565,1.832-0.99,3.178-1.273,4.032c-1.84,6.356-3.68,13.14-5.521,20.351l-1.061,4.033c-0.283,0.978-0.991,1.467-2.123,1.467
						s-2.194-0.305-3.184-0.916c-0.851-0.611-1.274-1.346-1.274-2.2l0.212-0.367v-0.183l2.335-9.168
						c1.699-5.743,3.186-11.366,4.459-16.866c1.415-6.233,2.477-10.267,3.185-12.101c1.132-4.033,3.396-14.115,6.794-30.248
						l1.272-6.051c3.68-18.822,6.229-30.678,7.644-35.566c0.708-2.934,1.981-7.272,3.82-13.018c0.708-2.444,1.699-4.889,2.974-7.333
						c1.272-2.078,2.335-3.117,3.184-3.117c2.265,0,3.892,0.611,4.883,1.834c0.708,1.1,1.77,7.15,3.185,18.15
						c1.557,11,2.901,22.122,4.033,33.366l2.761,30.433c0,5.257,0.425,13.2,1.273,23.834c0.85,10.755,1.273,18.761,1.273,24.017
						v0.733c0,1.345-0.212,2.566-0.636,3.666C223.467,294.989,222.123,295.479,220,295.479z M211.508,260.095
						c2.831,0,4.246-0.61,4.246-1.834c0-7.577-0.495-17.905-1.486-30.983c-0.991-13.199-2.052-24.811-3.185-34.832
						c-0.283-4.278-0.85-8.983-1.698-14.117l-0.849-7.15c0,0.123-0.143-0.55-0.426-2.016l-0.424-2.2
						c-1.133,2.689-2.265,6.416-3.396,11.183c-0.991,4.767-2.053,10.389-3.186,16.867c-3.396,18.211-6.298,31.899-8.704,41.066
						l-1.909,6.232c-2.123,6.112-3.186,10.756-3.186,13.935v1.1c6.228,1.712,13.375,2.566,21.442,2.566h1.273
						C210.447,260.034,210.942,260.095,211.508,260.095z" class="svg-elem-24"></path>
					<path d="M290.81,302.409c-2.831,0-4.6-1.222-5.308-3.667l-2.547-8.066c-3.963-11.367-6.865-20.961-8.705-28.783
						c-1.132-4.277-2.547-10.205-4.246-17.783c-1.981-8.801-3.821-15.95-5.52-21.45l-2.123,1.1l-2.76,1.101l0.424,70.582v2.75
						c0,2.445-1.272,3.668-3.82,3.668c-1.133,0-2.053-0.307-2.761-0.918c-0.708-0.61-1.061-1.344-1.061-2.199v-2.75l0.424-37.033
						l0.425-17.783c0.566-21.389,0.85-39.6,0.85-54.634v-23.649c0-1.1,1.273-1.65,3.82-1.65c3.681,0,7.077,0.855,10.191,2.566
						c3.255,1.711,5.803,4.034,7.642,6.967c3.822,5.989,5.732,12.529,5.732,19.617c0,5.623-1.415,11.733-4.245,18.334
						c-0.85,1.832-1.911,3.972-3.185,6.416c-1.274,2.322-2.406,3.912-3.397,4.767c2.972,9.411,7.289,23.894,12.95,43.45l9.978,33
						c0.143,0.367,0.214,1.039,0.214,2.017c0,1.101-0.283,2.017-0.85,2.75C292.508,301.98,291.8,302.409,290.81,302.409z
						M259.389,218.809c1.133,0,3.043-1.16,5.733-3.482c2.688-2.322,4.599-4.278,5.731-5.867c0.99-1.711,1.839-4.277,2.547-7.7
						c0.708-3.422,1.063-6.478,1.063-9.167c0-5.011-0.991-10.144-2.974-15.399c-0.989-3.056-2.476-5.5-4.457-7.334
						c-1.981-1.955-4.176-2.933-6.581-2.933h-0.426c-0.141,0.122-0.353,0.183-0.637,0.183V218.809z" class="svg-elem-25"></path>
					<path d="M326.519,297.678c-0.849,0-1.557-0.488-2.123-1.467c-0.566-0.855-0.849-1.833-0.849-2.934
						c0-3.91,0.212-9.777,0.637-17.6l0.424-17.783c0-1.711-0.212-4.217-0.637-7.517c-0.566-2.933-0.85-5.378-0.85-7.333
						c0-2.078-0.425-4.95-1.273-8.617c-0.85-3.91-1.274-6.722-1.274-8.433c0-1.468-0.707-4.95-2.123-10.45
						c-0.424-1.1-0.707-1.956-0.849-2.566c-0.141-0.733-0.283-1.223-0.424-1.467c-0.566-3.423-1.486-7.639-2.76-12.65
						c-2.406-11.366-4.742-20.35-7.007-26.949c-2.123-5.867-3.185-9.839-3.185-11.917c0-0.856,0.425-1.528,1.274-2.017
						c0.849-0.611,1.84-0.916,2.972-0.916l2.548,1.466c0.425,5.5,2.335,15.339,5.732,29.517c3.396,14.055,5.943,22.122,7.643,24.2
						c0.283-0.611,0.99-5.929,2.123-15.95c0.99-8.922,2.406-17.783,4.246-26.583c1.698-8.067,3.75-12.1,6.156-12.1
						c0.708,0,1.273,0.061,1.698,0.183c0.425,0,0.778,0.122,1.062,0.367c0.283,0.244,0.425,0.733,0.425,1.466
						c0,1.1-0.283,2.384-0.849,3.85l-0.851,3.667l-5.519,27.317c-0.708,3.544-1.345,7.944-1.911,13.2
						c-0.566,5.133-0.849,9.654-0.849,13.566c0,1.1,0.07,2.078,0.212,2.934c0.142,0.977,0.212,2.016,0.212,3.115l-1.273,2.75v1.468
						l0.424,7.149l0.426,3.851c0.424,4.889,0.637,8.555,0.637,11c0,19.312-0.143,31.655-0.425,37.032l0.637,0.551
						c0,0.244,0.071,0.428,0.212,0.55v0.733c0,1.467-0.424,2.688-1.272,3.666C329.207,297.128,328.075,297.678,326.519,297.678z" class="svg-elem-26"></path>
				</g>
				<path d="M367.497,132.571c-6.949-2.197-17.466-10.016-19.668-24.082c7.768-9.298,11.997-21.343,11.997-36.885
					c0-10.756-5.076-20.372-14.085-28.703c-8.997-8.319-21.956-15.401-37.874-21.15C276.027,10.251,232.116,4,183.682,4
					C135.327,4,91.405,5.938,59.554,15.28C43.62,19.954,30.615,26.505,21.588,35.675C12.531,44.873,7.536,56.646,7.536,71.604
					c0,25.66,20.186,42.542,51.987,52.984c31.848,10.457,75.761,14.62,124.158,14.62c30.06,0,58.403,0,83.176-2.005
					c24.459-1.979,45.54-5.927,61.42-13.825c2.858,2.353,6.319,4.936,10.295,7.211c7.73,4.422,17.521,7.748,28.656,5.861
					c0.911-0.154,1.597-0.912,1.661-1.834C368.953,133.695,368.379,132.85,367.497,132.571z M306.766,126.981
					c-31.232,8.204-74.562,8.227-123.084,8.227c-48.267,0-91.673-4.164-122.91-14.42c-31.376-10.302-49.235-26.257-49.235-49.184
					c0-13.96,4.618-24.709,12.901-33.123c8.367-8.498,20.653-14.791,36.242-19.363C91.907,9.958,135.285,8,183.682,8
					c48.157,0,91.568,6.223,122.827,17.513c15.637,5.647,28.056,12.5,36.517,20.325c8.423,7.789,12.801,16.406,12.801,25.766
					c0,13.543-3.359,24-9.38,32.177c-0.823-1.669-1.96-2.934-3.432-3.697c-2.608-1.352-5.577-0.798-8.181,0.463
					c-5.204,2.521-10.568,8.587-13.437,14.934c-0.362,0.8-0.159,1.742,0.499,2.323c0.397,0.35,0.835,0.744,1.317,1.177
					c0.528,0.475,1.123,1.006,1.749,1.56C319.539,123.093,313.463,125.222,306.766,126.981z M325.901,116.017
					c-0.076-0.068-0.146-0.13-0.22-0.197c2.688-5.205,7.059-9.814,10.897-11.673c2.077-1.007,3.597-1.03,4.596-0.512
					c0.808,0.419,1.734,1.447,2.338,3.727c-0.208,0.229-0.414,0.46-0.628,0.686c-3.864,4.085-8.576,7.57-14.067,10.548
					C327.746,117.668,326.759,116.788,325.901,116.017z M340.559,127.117c-3.167-1.812-5.978-3.835-8.437-5.786
					c4.647-2.653,8.791-5.705,12.365-9.219c2.434,9.972,8.64,16.846,14.738,20.832C352.258,132.615,345.962,130.207,340.559,127.117z
					" class="svg-elem-27"></path>
			</g>
			<g id="tamtam">
				<ellipse opacity="0.2" cx="464.767" cy="290.325" rx="80.58" ry="16.175" class="svg-elem-28"></ellipse>
				<path id="Vector" fill="#D3D3D3" d="M493.346,107.896c-7.445-0.896-13.479,2.203-19.35,5.469
					c-5.068,2.819-11.799,6.396-15.677,10.789c-2.889,3.274-5.21,7.912-8.212,12.026c-1.085,1.49-2.654,3.158-4.456,5.587
					c-1.949,2.63-4.25,8.724-6.641,3.81c-1.012-3.896-1.277-8.662-0.263-13.623c3.495-17.113,24.232-20.247,30.986-34.163
					c2.971-7.246-3.356-7.766-9.041-6.618c-15.596,3.15-23.069,15.854-30.183,28.487c-3.856,6.85-6.802,13.981-7.439,23.083
					c-19.605,5.504-36.164,14.236-45.967,32.205c-8.335,15.278-1.216,32.004,8.84,38.762c8.084,5.433,18.733,6.931,30.287,8.653
					c11.291,1.681,22.269,2.157,32.685-0.01c8.578-1.782,19.829-5.501,25.079-10.672c2.04-2.009,5.954-7.352,6.741-10.336
					c2.836-10.736-0.219-19.611-3.344-25.161c-1.295-2.303-3.555-4.827-5.597-7.073c-2.083-2.288-3.986-4.858-5.883-6.84
					c-2.344-2.446-5.664-4.105-7.461-6.728c-1.067-1.559-3.673-6.183-2.648-7.836c4.733-8.968,8.767-15.038,15.198-19.463
					c7.695-5.293,20.527-4.58,23.686-15.251C494.986,110.678,494.213,109.246,493.346,107.896z M516.521,272.754
					c-0.537,3.601-1.822,7.55-3.894,10.609c-3.377,4.992-6.333,8.408-12.701,9.766c-2.211,0.47-4.792,0.271-7.403,0.859
					c-6.272,1.417-13.852,3.098-21.483,3.173c-4.853,0.048-11.009-0.552-16.917-0.835c-6.202-0.298-12.21-0.605-15.706-2.55
					c-2.06-1.146-5.037-4.276-5.153-6.246c-0.148-2.493,1.433-5.736,2.483-6.822c2.307-2.387,6.491-0.752,9.156-2.784
					c0.756-10.457,5.768-23.613,12.33-30.457c2.034-2.12,4.649-4.701,6.555-5.649c1.416-0.702,3.384-0.309,4.369-1.935
					c-1.709-3.612-6.089-1.08-7.873,0.292c-7.7,5.926-12.182,13.466-16.238,24.855c-1.305,3.661-2.878,5.806-3.088,10.424
					c-6.913,0.588-10.628,5.052-13.555,10.47c-2.271-4.075,0.92-11.299,0.427-15.387c-4.056-2.212-7.986,5.932-9.727,8.742
					c-2.737,4.419-4.907,8.293-7.076,11.091c-5.517-6.98-6.521-18.715-6.992-30.74c-0.457-11.618-0.219-26.15,5.188-35.064
					c15.615,3.138,30.306,4.089,44.159,0.307c8.024-2.191,15.864-5.207,21.254-8.947c2.659-1.846,4.659-4.957,6.519-8.005
					c2.955,1.219,4.877,3.291,7.375,4.89c-0.026,0.193-0.051,0.386-0.069,0.58c4.139,2.96,7.438,6.644,10.456,10.212
					c0.206-0.016,0.41-0.038,0.614-0.063c1.379,1.404,2.646,2.91,3.465,4.776c-0.034,0.246-0.059,0.484-0.08,0.723
					c5.044,6.646,8.457,12.747,10.728,19.177c2.451,6.939,3.35,14.14,3.081,21.475c-0.025,0.707-0.061,1.42-0.132,2.126
					C516.575,272.115,516.556,272.424,516.521,272.754z" class="svg-elem-29"></path>
				<path id="Vector_2" fill="#C9C9C9" d="M533.048,274.936l0.03-0.341c0.253-2.903-1.537-4.822-4.793-5.133
					c-2.938-0.282-6.959,0.867-8.264,3.026l-0.28,0.465l0.338,0.424c0.098,0.124,0.205,0.244,0.316,0.363
					c-0.753,3.602-1.738,6.926-3.313,9.527c2.489,2.081,5.474,3.756,9.215,4.804c3.289-2.461,5.853-6.981,6.131-12.679
					c0.12-0.078,0.237-0.16,0.349-0.247L533.048,274.936z" class="svg-elem-30"></path>
				<path id="Vector_3" fill="#FFFFFF" d="M523.545,287.809c-2.835-0.271-5.333-2.352-6.521-5.426l-0.305-0.784l0.324-0.913
					c1.505-4.246,5.66-6.796,8.599-6.515c3.254,0.312,4.893,3.826,4.382,9.403l-0.06,0.655l-0.291,0.423
					C528.116,286.916,525.94,288.038,523.545,287.809z M440.496,279.94c0,0,12.192,9.438,42.135,3.949
					c0,0,23.852-11.553,27.193,4.174c1.273,5.992-7.758,7.28-7.758,7.28s-46.618,5.455-60.295,1.631
					C428.095,293.149,429.701,277.686,440.496,279.94z" class="svg-elem-31"></path>
				<path id="Vector_4" fill="#FFFFFF" d="M408.864,289.927c0,0-2.253-26.27,12.177-34.563c14.429-8.293,26.558-1.64,26.558-1.64
					l-8.884,22.889l-12.168,12.808l-6.313-8.448L408.864,289.927z" class="svg-elem-32"></path>
				<g id="Group">
					<path id="Vector_5" fill="#FFFFFF" d="M456.064,145.603c4.785-9.065,8.846-15.201,15.447-19.742
						c2.748-1.891,6.131-3.041,9.402-4.151c6.186-2.1,12.025-4.084,13.978-10.679l1.528,0.271
						c-0.506,8.104-7.306,14.162-11.313,17.051c-3.596,2.591-7.562,4.798-11.399,6.933c-3.353,1.865-6.519,3.627-9.146,5.485
						c-0.929,0.659-1.844,1.546-2.729,2.404c-1.497,1.452-3.045,2.954-4.839,3.534l-1.826,0.59L456.064,145.603z M438.15,145.59
						c-1.129-4.347-1.28-10.189-0.327-14.854c2.015-9.864,9.568-15.216,16.875-20.392c5.802-4.111,11.769-7.837,14.659-13.798
						c-0.777,4.404-2.103,8.237-4.339,11.635c-0.318,0.483-0.636,0.968-0.95,1.455c-0.827,1.284-1.614,2.635-2.376,3.941
						c-1.446,2.48-2.941,5.045-4.757,7.226c-0.84,1.009-1.805,1.845-2.739,2.652c-0.891,0.769-1.729,1.495-2.448,2.346
						c-1.028,1.215-1.919,2.522-2.86,3.906c-0.426,0.626-0.866,1.273-1.323,1.914c-3.094,4.346-5.831,8.338-7.998,13.212
						l-0.696,2.059L438.15,145.59z" class="svg-elem-33"></path>
				</g>
				<path id="Vector_6" fill="#FFFFFF" d="M480.479,186.906c0,0,12.225,37.024-46.021,39.03c0,0-11.107,1.877-18.913-4.164
					l-0.433-0.078C434.267,219.707,464.887,213.945,480.479,186.906z" class="svg-elem-34"></path>
				<path id="Vector_7" fill="#FCD9E1" d="M437.13,178.864c-0.636,7.785-8.275,15.224-16.641,15.403
					c-3.154,0.067-8.309-0.139-10.104-0.967c-2.679-1.237-6.001-6.955-5.485-10.985c4.786,0.493,8.006,2.853,12.313,2.487
					c6.588-0.563,13.878-4.327,19.659-5.962C436.949,178.549,437.145,178.72,437.13,178.864z" class="svg-elem-35"></path>
				<path id="Vector_8" d="M415.211,198.803c-6.722-0.645-11.313-3.758-14.043-9.518c-0.65-1.372-2.311-8.795-0.821-11.862
					c0.368-0.759,0.903-1.223,1.591-1.379c0.372-0.085,0.7-0.112,1.006-0.083c1.002,0.096,1.482,0.787,1.869,1.341
					c0.254,0.364,0.494,0.707,0.854,0.906c2.092,0.292,3.785,0.807,5.281,1.264c1.463,0.445,2.726,0.831,4.119,0.964
					c0.232,0.022,0.466,0.036,0.696,0.043c6.077,0.179,16.958-4.486,21.863-6.978c0.608-0.308,1.23-0.436,1.849-0.376
					c0.61,0.058,1.217,0.299,1.798,0.714l0.175,0.126l0.038,0.213c0.954,5.762-0.396,11.205-3.898,15.739
					c-3.833,4.96-9.959,8.271-16.386,8.853c-2.15,0.195-4.164,0.206-5.988,0.032H415.211z M405.374,182.896
					c-0.145,3.657,2.8,8.811,5.229,9.932c0.451,0.207,1.448,0.501,3.625,0.71c1.835,0.175,4.171,0.253,6.251,0.208
					c7.733-0.165,15.072-6.757,16.063-14.268c-1.854,0.553-3.852,1.305-5.958,2.098c-4.4,1.658-8.953,3.372-13.327,3.744
					c-0.692,0.059-1.388,0.055-2.081-0.013c-1.688-0.162-3.228-0.652-4.858-1.171C408.773,183.646,407.181,183.138,405.374,182.896z" class="svg-elem-36"></path>
				<g id="Group_2">
					<path id="Vector_9" fill="#E8E8E8" d="M436.497,169.912c-0.091-0.009-0.182-0.019-0.271-0.032
						c-1.698-0.244-3.182-1.639-3.78-3.553c-0.373-1.192-0.38-2.521-0.021-3.743c0.112-0.383,1.214-3.73,5.245-3.59l0.033,0.001
						l0.033,0.007c0.754,0.135,3.281,0.75,4.158,2.911c0.294,0.728,0.383,1.573,0.256,2.445
						C441.609,168.067,439.443,170.194,436.497,169.912z" class="svg-elem-37"></path>
					<path id="Vector_10" fill="#E5E5E5" d="M401.413,169.767c-0.979,0.053-4.222-0.092-4.892-4.124
						c-0.244-1.537-0.202-2.878,0.119-4.012c0.592-2.085,1.98-2.855,3.26-3.334l0.058-0.022l0.062-0.003
						c2.833-0.151,4.428,1.231,4.743,4.107c0.196,1.8,0.041,3.433-0.449,4.722C403.593,168.993,402.3,169.72,401.413,169.767z" class="svg-elem-38"></path>
					<g id="Group_3">
						<path id="Vector_11" d="M436.36,167.808c-2.06,2.967-6.606,3.323-8.182,0.786c-5.523-8.896,7.364-15.99,9.221-6.177
							c0.041,0.142,0.071,0.287,0.093,0.433C437.817,164.806,436.768,167.118,436.36,167.808z M400.281,167.752
							c-0.2-1.348-0.612-2.518-0.381-4.22c0.752-3.523,4.393-7.682,8.604-5.19C414.66,161.988,407.778,176.838,400.281,167.752z" class="svg-elem-39"></path>
					</g>
				</g>
				<path id="Vector_12" d="M410.739,297.177c-3.467-0.333-5.505-6.241-6.722-9.772c-0.136-0.397-0.263-0.757-0.373-1.067
					c-1.631-4.513-3.126-8.93-3.492-13.343c-1.762-21.287-0.39-37.495,4.075-48.203c-13.026-2.366-22.52-7.108-28.226-14.098
					c-5.804-7.109-8.214-16.617-6.619-26.083c2.363-14.014,11.84-23.382,19.833-29.977c9.526-7.861,21.407-12.451,30.814-15.574
					c1.062-9.375,5.573-18.198,8.903-24.057c3.972-6.991,8.351-14.105,13.437-18.789c4.646-4.277,13.277-9.295,22.318-9.362
					c0.468-0.003,0.936,0.018,1.401,0.064c3,0.287,6.738,1.597,7.86,3.796c2.076,4.063-0.93,11.192-2.317,14.068
					c-1.006,2.084-2.177,3.832-3.308,5.522c-0.593,0.885-1.167,1.742-1.697,2.618c0.791-0.444,1.616-0.923,2.462-1.415
					c2.382-1.384,5.079-2.952,7.977-4.279c6.354-2.907,11.257-4.146,14.99-3.789c1.87,0.179,3.421,0.777,4.607,1.777
					c2.596,2.184,2.944,7.168,2.168,10.875c-1.943,9.3-10.391,14.807-17.177,19.232l-0.409,0.267c-2.13,1.392-4.285,2.68-6.368,3.928
					c-5.224,3.126-10.165,6.083-13.944,10.135c0.74,2.994,3.087,5.153,5.359,7.243c0.352,0.322,0.699,0.645,1.047,0.97
					c2.361,2.229,4.29,4.584,6.333,7.079c0.346,0.424,0.694,0.849,1.047,1.276c0.292,0.354,0.584,0.706,0.871,1.053
					c4.629,5.583,8.628,10.405,10.204,19.176c0.78,4.342,0.429,13.571-1.776,18.437c9.539,5.162,17.559,13.164,25.186,25.11
					c0.609,0.953,1.242,1.914,1.854,2.845c2.623,3.984,5.336,8.104,7.171,13.065c2.238,6.056,2.854,12.761,3.262,19.686
					c2.651-0.74,5.206-1.019,7.442-0.805c5.159,0.494,8.235,3.609,8.443,8.55c0.16,3.838-0.991,8.525-3.076,12.539
					c-2.168,4.167-4.813,6.704-7.258,6.958c-0.525,0.056-1.062,0.057-1.591,0.007h-0.001c-2.655-0.255-4.865-1.748-7-3.193
					c-1.097-0.739-2.141-1.446-3.175-1.929c-4.601,8.244-14.447,9.581-24.858,10.994c-1.146,0.153-2.292,0.312-3.437,0.477
					c-1.419,0.204-2.845,0.455-4.354,0.722c-3.859,0.681-7.85,1.385-12.171,1.376c-3.408-0.01-7.322-0.358-11.104-0.697
					c-2.711-0.243-5.515-0.494-8.154-0.623c-1.587-0.078-2.996-0.177-4.308-0.302c-6.851-0.656-14.182-2.213-17.391-8.581
					c-0.094,0.156-0.185,0.313-0.273,0.471c-0.646,1.125-1.448,2.524-3.328,2.344c-0.122-0.011-0.248-0.028-0.376-0.053
					c-2.975-0.585-3.48-7.685-3.516-11.889c-0.953,1.571-1.938,3.073-2.96,4.63c-1.062,1.618-2.16,3.291-3.255,5.101
					c-0.188,0.314-0.411,0.726-0.646,1.161c-1.063,1.974-2.27,4.208-3.85,4.333C411.108,297.195,410.921,297.193,410.739,297.177z
					M465.77,237.265c1.379,0.133,2.448,0.922,3.093,2.284l0.179,0.38l-0.218,0.358c-0.816,1.349-2.164,1.613-3.249,1.826
					c-0.53,0.104-1.034,0.202-1.44,0.404c-1.837,0.914-4.497,3.57-6.339,5.49c-6.133,6.398-11.341,19.282-12.112,29.972l-0.026,0.352
					l-0.279,0.214c-1.45,1.105-3.193,1.252-4.881,1.396c-1.637,0.14-3.184,0.271-4.189,1.311c-0.874,0.905-2.4,3.96-2.265,6.232
					c0.095,1.581,2.758,4.501,4.755,5.611c1.781,0.992,4.467,1.631,8.449,2.012c2.233,0.214,4.72,0.333,6.914,0.439
					c2.063,0.099,4.172,0.237,6.21,0.371c3.871,0.254,7.528,0.496,10.66,0.464c7.679-0.075,15.242-1.783,21.319-3.152
					c1.447-0.328,2.849-0.419,4.206-0.508c1.146-0.075,2.226-0.146,3.207-0.355c6.312-1.345,9.155-4.913,12.219-9.439
					c1.818-2.688,3.19-6.431,3.764-10.273c2.241-20.406-5.968-34.16-13.371-43.863l-0.057-0.076l-0.038-0.083
					c-0.822-1.874-2.133-3.349-3.307-4.544l-0.021-0.023l-0.019-0.021c-3.124-3.71-6.535-7.583-10.837-10.582
					c-0.917-0.587-1.759-1.236-2.574-1.864c-1.303-1.006-2.543-1.961-4.06-2.683c-1.869,3.035-3.8,5.863-6.383,7.654
					c-6.258,4.344-15.142,7.323-21.491,9.06c-8.799,2.402-18.427,3.058-29.438,2.004c-4.534-0.435-9.296-1.151-14.539-2.189
					c-5.142,8.985-5.207,23.755-4.798,34.157c0.437,11.087,1.284,22.454,6.215,29.468c1.359-1.876,2.745-4.169,4.319-6.769
					c0.69-1.146,1.389-2.289,2.091-3.428c0.216-0.349,0.468-0.783,0.758-1.286c1.967-3.398,4.937-8.532,8.557-8.187
					c0.496,0.048,0.984,0.201,1.451,0.455l0.354,0.192l0.047,0.399c0.205,1.707-0.17,3.822-0.566,6.061
					c-0.476,2.679-0.963,5.431-0.493,7.574c2.573-4.367,6.183-8.53,12.672-9.33c0.239-3.104,1.102-5.132,2.009-7.268
					c0.362-0.851,0.734-1.729,1.084-2.712c4.36-12.247,9.142-19.552,16.498-25.211C460.584,238.959,463.31,237.029,465.77,237.265z
					M518.091,283.082c2.376,1.878,5.016,3.234,8.041,4.13c2.951-2.375,5.864-7.2,5.513-13.94l-0.003-0.054l0.006-0.056
					c0.223-2.554-1.719-3.282-3.386-3.441c-2.557-0.244-5.749,0.801-6.707,2.17C520.871,275.601,519.922,279.771,518.091,283.082z
					M466.053,91.535c-1.425-0.136-3.226,0.002-5.205,0.402c-15.605,3.153-23.071,16.41-29.657,28.105
					c-3.245,5.764-6.653,12.975-7.342,22.753l-0.037,0.549l-0.53,0.148c-22.972,6.451-37,16.266-45.492,31.829
					c-7.88,14.447-1.678,30.838,8.591,37.738c7.777,5.228,18.219,6.779,29.274,8.426l0.691,0.103
					c2.617,0.391,5.153,0.703,7.535,0.932c9.398,0.899,17.537,0.594,24.877-0.931c8.619-1.792,19.632-5.482,24.689-10.466
					c2.073-2.039,5.813-7.244,6.534-9.979c2.79-10.561-0.237-19.196-3.268-24.579c-1.21-2.149-3.29-4.504-5.496-6.931
					c-0.971-1.067-1.903-2.195-2.805-3.285c-1.06-1.282-2.06-2.491-3.063-3.538c-0.94-0.983-2.084-1.861-3.188-2.71
					c-1.593-1.225-3.24-2.491-4.353-4.118c-0.044-0.061-4.209-6.203-2.67-8.688l0.152-0.245l0.271-0.088
					c1.448-0.468,2.799-1.779,4.23-3.168c0.928-0.9,1.887-1.83,2.916-2.558c2.694-1.907,5.896-3.689,9.288-5.575
					c3.798-2.113,7.723-4.298,11.244-6.836c3.784-2.728,10.201-8.418,10.669-15.881v-0.026l0.003-0.025
					c0.242-1.887-0.298-3.083-1.028-4.263l-0.147-0.015c-6.782-0.649-12.329,2.075-18.362,5.431l-1.003,0.556
					c-4.87,2.699-10.93,6.059-14.467,10.067c-1.648,1.869-3.114,4.201-4.665,6.671c-1.103,1.755-2.241,3.571-3.501,5.298
					c-0.51,0.7-1.105,1.414-1.792,2.243c-0.798,0.958-1.702,2.044-2.67,3.349c-0.379,0.51-0.778,1.172-1.201,1.872
					c-1.269,2.1-2.583,4.27-4.324,4.103c-0.938-0.09-1.739-0.839-2.444-2.289l-0.159-0.327l0.147-0.333
					c2.229-5.006,5.011-9.066,8.154-13.482c0.446-0.627,0.883-1.268,1.304-1.887c0.924-1.356,1.88-2.758,2.96-4.036
					c0.797-0.944,1.724-1.744,2.619-2.519c0.928-0.802,1.804-1.559,2.561-2.47c1.732-2.082,3.129-4.477,4.607-7.013
					c0.771-1.321,1.567-2.688,2.413-3.999c0.318-0.491,0.638-0.98,0.959-1.468c2.148-3.266,4.37-6.643,5.093-10.729l0.015-0.083
					l0.03-0.078c0.808-1.967,0.921-3.457,0.335-4.426C468.829,92.21,467.721,91.695,466.053,91.535z" class="svg-elem-40"></path>
			</g>
		</g>
	</g>
</svg>
