<svg xmlns="http://www.w3.org/2000/svg" width="618.4" height="302.289"><path fill="#1D1D1D" d="M184.712 236.744v13.582c-9.779.578-20.007.848-30.142.643a28.37 28.37 0 002.685-2.723c2.802-3.275 4.826-6.975 6.036-10.943 7.179.079 14.416-.13 21.421-.559zm-112.931 1.638c6.121 1.902 15.799 4.67 28.931 7.139v-15.824c-7.955-1.752-14.313-3.506-18.207-4.906-.168-.063-.34-.133-.51-.199a7.989 7.989 0 01-2.762 3.326 8.013 8.013 0 01-7.41.861l-.91-.355a9.183 9.183 0 01-.634-.275c-6.619-3.244-12.986-5.109-18.565-5.471 5.151 7.638 10.484 12.73 20.067 15.704zM616.374 88.261c-1.965-2.836-5.648-4.801-12.248-5.805-21.354-3.248-42.875-6.944-64.43-8.432-14.412-.994-29.094-1.615-43.543-1.297-56.045 1.234-116.229 12.773-127.361 16.885-11.113 4.131-37.91 13.203-45.732 14.844-7.832 1.656-14.003 1.236-14.003 1.236s-6.201.42-14.004-1.236c-7.842-1.641-34.619-10.713-45.752-14.844-11.145-4.111-71.3-15.648-127.346-16.885-35.988-.796-74.666 1.96-109.766 10.469C-1.159 86.43-.511 92.413.447 104.585c.561 7.096.993 14.203 1.625 21.297 0 0 1.642 4.127 2.062 5.357.41 1.25 5.822 7.836 10.772 11.945 4.933 4.133 10.714 28.016 13.604 34.621 1.443 3.303 4.648 10.225 8.314 17.709 3.97-.885 8.114-1.34 12.435-1.34 1.592 0 3.208.088 4.836.217a79.918 79.918 0 01-1.259-2.57c-14.015-30.084-13.213-63.043-13.213-63.043.42-3.719 0-19.961 5.371-26.963 5.36-7.008 5.771-8.313 15.664-11.203 9.883-2.875 50.983-5.111 82.303-3.461 31.31 1.646 84.481 11.123 94.784 14.834 10.305 3.707 18.137 7.832 25.156 16.895 6.992 9.068 11.113 13.609 9.863 25.557-1.222 11.949-12.334 53.969-16.886 63.039-3.813 7.617-9.377 15.508-20.814 20.525h2.623c4.418 0 8.021 3.582 8.021 8v5.021c12.271-5.979 20.517-22.203 25.015-32.316 4.939-11.123 9.48-24.309 13.584-35.852 4.121-11.537 10.742-31.721 14.004-34.604 3.32-2.887 10.742-1.65 10.742-1.65s7.413-1.234 10.692 1.65c3.313 2.885 9.912 23.066 14.033 34.604 4.111 11.543 8.633 24.729 13.584 35.852 4.951 11.133 14.424 29.678 28.867 33.799 1.525.438 3.375.893 5.479 1.355v-16.447a42.434 42.434 0 01-4.398-2.412h-6.598a8 8 0 01-8-8v-8.537c-.174-.33-.348-.66-.514-.988-4.52-9.07-15.664-51.09-16.885-63.039-1.25-11.945 2.871-16.486 9.893-25.557 6.992-9.063 14.834-13.188 25.146-16.895 10.283-3.711 63.457-13.188 94.766-14.834 31.328-1.65 72.432.586 82.314 3.461 9.893 2.891 10.313 4.195 15.664 11.203 5.359 7.002 4.939 23.244 5.359 26.963 0 0 .83 32.959-13.184 63.043-6.611 14.197-19.375 29.258-29.697 32.969-5.396 1.941-15.537 4.566-28.119 6.922a7.963 7.963 0 011.254 4.289v11.016c17.613-2.771 30.197-6.334 37.607-8.633 11.943-3.711 17.305-10.703 23.906-21.836 6.582-11.133 16.475-32.146 19.354-38.74 2.893-6.605 8.662-30.488 13.604-34.621 4.951-4.109 10.361-10.695 10.764-11.945.42-1.23 2.07-5.357 2.07-5.357.482-5.428.93-10.859 1.355-16.295.741-9.294 2.319-16.548-.995-21.329zM446.712 237.275c-13.107-.234-26.051-1.346-37-2.908v13.908c11.184 1.279 23.914 2.273 37 2.625v-13.625zm143.662 39.346l-.49-.146-.133.496c-.594 2.227-1.717 3.986-3.338 5.24s-3.504 1.889-5.594 1.889c-3.051 0-5.367-.982-7.078-3.008-1.711-2.02-2.578-4.873-2.578-8.482 0-3.615.893-6.563 2.646-8.75 1.752-2.189 3.996-3.25 6.854-3.25 4.344 0 7.166 1.859 8.637 5.691l.156.412.43-.104 4.646-1.135.506-.123-.145-.502c-.891-3.066-2.551-5.451-4.943-7.09-2.379-1.627-5.346-2.451-8.816-2.451-4.885 0-8.859 1.529-11.82 4.545-2.961 3.014-4.461 7.055-4.461 12.012 0 5.52 1.441 9.922 4.289 13.088 2.857 3.182 6.813 4.795 11.758 4.795 3.557 0 6.699-.984 9.34-2.93 2.648-1.949 4.428-4.705 5.287-8.193l.113-.465-.459-.133-4.807-1.406zm20.361-4.325c0 8.197-2.961 15.32-8.799 21.174s-12.943 8.818-21.115 8.818c-8.225 0-15.361-2.961-21.213-8.799s-8.818-12.969-8.818-21.193c0-8.199 2.969-15.314 8.818-21.154 5.852-5.84 12.988-8.799 21.213-8.799 8.172 0 15.275 2.959 21.115 8.799 5.838 5.84 8.799 12.957 8.799 21.154zm-12.963 17.03c4.697-4.727 7.08-10.453 7.08-17.029s-2.381-12.291-7.08-16.99c-4.699-4.697-10.402-7.08-16.951-7.08-6.602 0-12.338 2.383-17.049 7.08-4.711 4.699-7.1 10.414-7.1 16.99 0 6.604 2.389 12.338 7.1 17.049s10.447 7.102 17.049 7.102c6.547-.003 12.252-2.398 16.951-7.122zM49.258 202.177c-12.392 0-23.132 4.271-31.925 12.697-8.801 8.432-13.263 18.713-13.263 30.555 0 12.055 4.537 22.494 13.485 31.029 8.941 8.531 19.863 12.855 32.464 12.855 8.589 0 16.871-1.984 24.231-5.898l.459-.291v-13.875l-.938.658c-7.926 4.463-15.629 6.727-22.703 6.727-9.729 0-17.98-2.996-24.436-8.904-6.441-5.896-9.731-13.355-9.731-22.174 0-8.65 3.182-16.051 9.479-21.99 6.308-5.945 14.174-8.963 23.392-8.963 7.208 0 15.419 2.141 24.027 6.359l.911.354v-13.545l-.5-.223c-8.484-3.564-17.009-5.371-24.952-5.371zm108.857 83.834l.53.988H145.03l-.415-.59L122.331 253h-1.619v34h-12v-82h17.885c8.791 0 16.061 2.082 21.604 6.471 5.581 4.416 8.41 10.012 8.41 16.908 0 5.512-1.83 10.447-5.438 14.668-3.487 4.076-8.915 7.021-16.146 8.754l23.088 34.21zm-36.333-43.32c15.025 0 22.29-4.473 22.29-13.674 0-3.283-.909-6.006-2.722-8.08-1.825-2.09-4.28-3.531-7.338-4.287-3.035-.748-7.301-1.139-13.301-1.158v27.189c.001.008.705.01 1.071.01zm18.913-4.44c.179-.16.365-.314.531-.482-.166.168-.354.322-.531.482zm3.317-5.263c.057-.199.128-.391.177-.596-.048.207-.12.397-.177.596zm-.554 1.512c.09-.197.188-.385.268-.59-.078.205-.178.392-.268.59zm-.735 1.373c.118-.188.247-.367.354-.563-.107.195-.236.377-.354.563zm-.921 1.25c.146-.174.306-.344.44-.525-.134.181-.293.351-.44.525zm2.666-6.36c-.021.188-.063.355-.09.537.027-.181.069-.351.09-.537zm-22.07 12.414zm17.004-3.914c.21-.145.425-.285.621-.438-.197.153-.411.294-.621.438zm-1.476.895c.238-.129.481-.254.71-.391-.228.137-.472.262-.71.391zm-1.664.779c.271-.109.545-.223.803-.342-.258.119-.533.231-.803.342zm-1.852.662zm-2.032.547zm-2.22.432c.369-.063.734-.121 1.088-.189-.353.068-.718.128-1.088.189zm-2.405.314zm-2.587.201zM192.874 205h-.162v82h44.999V275h-33v-27h33V236h-33v-19h33v-12H192.874zm121.217 97l-6.472-14h-25.59l27.857-61.844L341.21 295h16.188l-47.164-104.229-.595-1.43-.592 1.256-49.375 109.996-.415 1.407H314.091zm56.98-97h-.359v12h19v70H401.712v-70h19v-12H371.071zm129.215 0h-45.575v82H500.712V275h-34v-27h34V236h-34v-19h34v-12h-.426zM331.712 58V37.063c0-2.896 1-5.33 2.643-7.302 1.643-1.971 3.842-2.956 6.201-2.956 3.971 0 6.156 2.419 6.156 7.256V58h8V37.781c0-3.076.588-5.66 2.189-7.75 1.604-2.09 3.496-3.135 5.803-3.135 4.045 0 6.008 2.045 6.008 6.137V58h8V31.017c0-3.016-1.217-5.621-3.344-7.816-2.129-2.195-4.734-3.291-7.674-3.291-2.396 0-4.543.611-6.354 1.836-1.814 1.225-3.715 3.18-5.662 5.867-1.105-2.688-2.467-4.645-4.064-5.867-1.598-1.225-3.805-1.836-6.607-1.836-2.15 0-4.236.537-5.896 1.611-1.656 1.075-3.396 2.777-5.396 5.105V21h-7v37h6.997zm86-29.538c-2-2.537-3.605-4.598-6.203-6.18-2.6-1.584-5.426-2.375-8.32-2.375-4.688 0-8.813 1.934-12.289 5.801-3.48 3.867-5.238 8.385-5.238 13.549 0 5.466 1.715 10.109 5.164 13.932 3.449 3.823 7.758 5.732 12.625 5.732 5.615 0 10.264-2.791 14.264-8.375V58h7V21h-7l-.003 7.462zm-2.873 19.732c-2.424 2.435-5.324 3.651-8.705 3.651-3.41 0-6.313-1.225-8.705-3.674-2.396-2.447-3.592-5.42-3.592-8.914 0-3.225 1.229-6.03 3.682-8.42 2.453-2.389 5.324-3.584 8.615-3.584 3.381 0 6.281 1.203 8.705 3.605 2.424 2.404 3.635 5.293 3.635 8.667-.001 3.348-1.212 6.236-3.635 8.669zM436.712 43h21v-7h-21v7zm46.996 5.71L471.509 75h8.139l24.961-54h-8.039l-9.268 20.076L473.899 21h-8.842l18.651 27.71zm61.004-20.248c-2-2.537-3.592-4.598-6.188-6.18-2.598-1.584-5.418-2.375-8.313-2.375-4.689 0-8.811 1.934-12.287 5.801-3.479 3.867-5.236 8.385-5.236 13.549 0 5.466 1.717 10.109 5.166 13.932 3.449 3.823 7.744 5.732 12.611 5.732 5.611 0 10.244-2.791 14.244-8.375V58h8V21h-8l.003 7.462zm-2.844 19.732c-2.424 2.435-5.326 3.651-8.705 3.651-3.412 0-6.313-1.225-8.707-3.674-2.393-2.447-3.59-5.42-3.59-8.914 0-3.225 1.229-6.03 3.682-8.42 2.451-2.389 5.324-3.584 8.615-3.584 3.379 0 6.281 1.203 8.705 3.605 2.422 2.404 3.635 5.293 3.635 8.667 0 3.348-1.213 6.236-3.635 8.669zM563.712 10h4.814c-.061 3-1.553 6.172-4.479 9.098l3.584 3.316c1.818-1.672 3.328-3.648 4.404-5.889 1.074-2.24 1.674-4.396 1.674-6.427V0h-10v10h.003zm30.884 9.908c-3.494 0-6.398 1.022-8.713 3.067-2.314 2.044-3.473 4.603-3.473 7.677 0 2.479.813 4.559 2.441 6.245 1.627 1.687 4.561 3.353 8.801 4.999s6.361 3.5 6.361 5.561c0 1.164-.605 2.188-1.814 3.067-1.209.881-2.621 1.321-4.23 1.321-2.33 0-4.568-1.045-6.721-3.137l-6.137 2.957c3.344 4.838 7.629 7.256 12.855 7.256 3.434 0 6.42-1.155 8.959-3.467 2.535-2.313 3.807-5.02 3.807-8.123 0-2.654-.881-4.92-2.645-6.801-1.762-1.879-4.65-3.605-8.666-5.182-4.018-1.575-6.023-3.199-6.023-4.872 0-2.329 1.582-3.494 4.748-3.494 1.344 0 2.508.247 3.492.739s2.148 1.217 3.494 2.172l5.195-4.568c-4.328-3.611-8.236-5.417-11.731-5.417z"/></svg>