<?xml version="1.0" encoding="utf-8"?>
<!-- Generator: Adobe Illustrator 16.0.0, SVG Export Plug-In . SVG Version: 6.00 Build 0)  -->
<!DOCTYPE svg PUBLIC "-//W3C//DTD SVG 1.1//EN" "http://www.w3.org/Graphics/SVG/1.1/DTD/svg11.dtd">
<svg version="1.1" id="メガネ" xmlns="http://www.w3.org/2000/svg" xmlns:xlink="http://www.w3.org/1999/xlink" x="0px" y="0px"
	 width="618.4px" height="302.288px" viewBox="191.289 345 618.4 302.288" enable-background="new 191.289 345 618.4 302.288"
	 xml:space="preserve">
<path fill="#1D1D1D" d="M376,581.744v13.581c-9.779,0.578-20.006,0.849-30.141,0.644c0.963-0.858,1.863-1.764,2.684-2.724
	c2.802-3.275,4.827-6.974,6.037-10.942C361.758,582.383,368.996,582.174,376,581.744z M263.07,583.383
	c6.121,1.902,15.799,4.67,28.931,7.139v-15.826c-7.955-1.752-14.313-3.506-18.207-4.905c-0.168-0.062-0.34-0.133-0.51-0.199
	c-0.595,1.321-1.531,2.482-2.762,3.325c-1.351,0.925-2.93,1.4-4.521,1.4c-0.976,0-1.954-0.179-2.889-0.539l-0.91-0.354
	c-0.216-0.084-0.427-0.176-0.634-0.277c-6.619-3.244-12.986-5.108-18.565-5.469C248.153,575.315,253.486,580.407,263.07,583.383z
	 M807.662,433.261c-1.965-2.835-5.648-4.8-12.248-5.804c-21.354-3.249-42.875-6.945-64.43-8.432
	c-14.412-0.994-29.094-1.616-43.542-1.297c-56.045,1.235-116.229,12.773-127.362,16.885c-11.113,4.131-37.91,13.203-45.732,14.844
	c-7.832,1.655-14.004,1.235-14.004,1.235s-6.201,0.42-14.004-1.235c-7.842-1.641-34.619-10.713-45.752-14.844
	c-11.144-4.111-71.299-15.649-127.345-16.885c-35.988-0.796-74.666,1.96-109.766,10.469c-13.347,3.234-12.7,9.216-11.742,21.388
	c0.561,7.096,0.993,14.204,1.625,21.298c0,0,1.642,4.126,2.062,5.356c0.41,1.25,5.822,7.837,10.772,11.947
	c4.933,4.132,10.714,28.015,13.604,34.62c1.443,3.303,4.648,10.225,8.314,17.709c3.97-0.884,8.114-1.339,12.435-1.339
	c1.591,0,3.208,0.088,4.836,0.216c-0.44-0.858-0.861-1.717-1.259-2.571c-14.015-30.083-13.213-63.043-13.213-63.043
	c0.42-3.717,0-19.96,5.371-26.962c5.36-7.008,5.771-8.313,15.664-11.203c9.883-2.876,50.983-5.111,82.303-3.461
	c31.309,1.646,84.481,11.123,94.784,14.834c10.304,3.706,18.136,7.832,25.156,16.895c6.992,9.067,11.113,13.608,9.863,25.557
	c-1.221,11.948-12.334,53.967-16.885,63.038c-3.813,7.617-9.378,15.507-20.815,20.525h2.623c4.418,0,8.022,3.582,8.022,8v5.022
	c12.27-5.979,20.516-22.204,25.014-32.317c4.94-11.123,9.481-24.308,13.584-35.851c4.121-11.537,10.742-31.72,14.004-34.604
	c3.32-2.886,10.742-1.65,10.742-1.65s7.412-1.234,10.692,1.65c3.312,2.886,9.912,23.067,14.033,34.604
	c4.111,11.544,8.633,24.728,13.584,35.851c4.951,11.133,14.424,29.678,28.867,33.799c1.526,0.438,3.376,0.894,5.479,1.356v-16.448
	c-1.578-0.751-3.046-1.558-4.399-2.412H562c-4.419,0-8-3.582-8-8v-8.536c-0.173-0.33-0.348-0.66-0.513-0.989
	c-4.521-9.071-15.664-51.09-16.885-63.038c-1.25-11.947,2.871-16.488,9.893-25.557c6.992-9.063,14.834-13.188,25.146-16.895
	c10.283-3.711,63.457-13.188,94.766-14.834c31.328-1.65,72.431,0.585,82.313,3.461c9.893,2.891,10.313,4.195,15.664,11.203
	c5.36,7.002,4.94,23.245,5.36,26.962c0,0,0.83,32.96-13.184,63.043c-6.611,14.198-19.375,29.258-29.697,32.969
	c-5.396,1.942-15.536,4.567-28.119,6.923c0.79,1.24,1.254,2.709,1.254,4.288v11.016c17.613-2.771,30.197-6.334,37.607-8.633
	c11.943-3.711,17.305-10.703,23.906-21.836c6.582-11.133,16.475-32.147,19.354-38.74c2.892-6.605,8.662-30.488,13.604-34.62
	c4.951-4.11,10.362-10.697,10.764-11.947c0.42-1.23,2.07-5.356,2.07-5.357c0.482-5.428,0.929-10.86,1.356-16.295
	C809.399,445.296,810.977,438.042,807.662,433.261z M638,582.275c-13.108-0.234-26.05-1.346-37-2.909v13.909
	c11.183,1.28,23.914,2.274,37,2.624V582.275z M781.663,621.621l-0.491-0.146l-0.133,0.495c-0.593,2.226-1.716,3.987-3.338,5.241
	c-1.621,1.253-3.503,1.888-5.593,1.888c-3.052,0-5.367-0.982-7.079-3.007c-1.71-2.02-2.577-4.874-2.577-8.484
	c0-3.615,0.891-6.561,2.646-8.75c1.752-2.188,3.995-3.25,6.854-3.25c4.343,0,7.166,1.861,8.636,5.693l0.156,0.411l0.429-0.104
	l4.647-1.134l0.507-0.123l-0.145-0.501c-0.89-3.067-2.552-5.453-4.944-7.091c-2.379-1.626-5.346-2.45-8.816-2.45
	c-4.884,0-8.86,1.529-11.821,4.545c-2.96,3.013-4.46,7.054-4.46,12.011c0,5.519,1.441,9.922,4.288,13.088
	c2.858,3.182,6.814,4.795,11.759,4.795c3.557,0,6.699-0.985,9.34-2.93c2.648-1.95,4.428-4.706,5.286-8.193l0.114-0.465l-0.459-0.134
	L781.663,621.621z M802.023,617.296c0,8.197-2.96,15.321-8.799,21.174c-5.838,5.853-12.942,8.818-21.115,8.818
	c-8.225,0-15.361-2.96-21.213-8.799c-5.852-5.837-8.818-12.968-8.818-21.193c0-8.198,2.968-15.314,8.818-21.154
	c5.853-5.839,12.989-8.799,21.213-8.799c8.172,0,15.275,2.96,21.115,8.799C799.063,601.981,802.023,609.099,802.023,617.296z
	 M789.06,634.326c4.698-4.726,7.081-10.454,7.081-17.03c0-6.575-2.382-12.291-7.08-16.99c-4.699-4.697-10.402-7.08-16.951-7.08
	c-6.603,0-12.339,2.383-17.049,7.081c-4.711,4.698-7.1,10.414-7.1,16.989c0,6.604,2.389,12.339,7.1,17.049
	c4.71,4.711,10.446,7.101,17.049,7.101C778.657,641.444,784.361,639.05,789.06,634.326z M240.547,547.177
	c-12.392,0-23.132,4.272-31.925,12.698c-8.801,8.432-13.263,18.712-13.263,30.554c0,12.055,4.537,22.494,13.485,31.03
	c8.942,8.53,19.864,12.855,32.464,12.855c8.589,0,16.871-1.984,24.232-5.898l0.459-0.291v-0.15v-12.632v-1.093l-0.939,0.657
	c-7.926,4.464-15.629,6.728-22.703,6.728c-9.728,0-17.98-2.996-24.435-8.905c-6.442-5.896-9.732-13.356-9.732-22.174
	c0-8.65,3.182-16.05,9.479-21.989c6.307-5.947,14.173-8.964,23.391-8.964c7.208,0,15.419,2.141,24.028,6.36l0.911,0.354v-0.803
	v-12.505v-0.238l-0.5-0.223C257.014,548.983,248.49,547.177,240.547,547.177z M349.403,631.012l0.53,0.988h-0.944h-12.67l0,0
	l-0.415-0.59L313.62,598H312v33.085V632h-0.59h-11.045H300v-0.915v-80.869V550h0.365h17.521c8.791,0,16.061,2.082,21.605,6.471
	c5.581,4.416,8.41,10.011,8.41,16.907c0,5.513-1.83,10.447-5.438,14.668c-3.487,4.077-8.915,7.021-16.145,8.754L349.403,631.012z
	 M313.071,587.691c15.025,0,22.29-4.473,22.29-13.673c0-3.285-0.909-6.006-2.722-8.081c-1.825-2.09-4.28-3.531-7.338-4.287
	c-3.035-0.748-7.301-1.139-13.301-1.158v27.19C312,587.689,312.705,587.691,313.071,587.691z M331.983,583.252
	c0.179-0.16,0.365-0.314,0.531-0.482C332.348,582.938,332.161,583.092,331.983,583.252z M335.3,577.987
	c0.057-0.198,0.128-0.389,0.177-0.594C335.429,577.6,335.357,577.789,335.3,577.987z M334.747,579.499
	c0.089-0.196,0.188-0.385,0.267-0.589C334.936,579.114,334.836,579.303,334.747,579.499z M334.011,580.873
	c0.118-0.188,0.247-0.367,0.354-0.563C334.258,580.506,334.129,580.688,334.011,580.873z M333.09,582.122
	c0.147-0.174,0.306-0.343,0.441-0.524C333.396,581.779,333.238,581.948,333.09,582.122z M335.756,575.764
	c-0.021,0.186-0.063,0.355-0.09,0.536C335.693,576.119,335.735,575.948,335.756,575.764z M313.686,588.178
	c0.466-0.004,0.924-0.014,1.375-0.026C314.61,588.164,314.152,588.174,313.686,588.178z M330.69,584.264
	c0.21-0.145,0.425-0.285,0.621-0.438C331.115,583.979,330.9,584.119,330.69,584.264z M329.214,585.157
	c0.239-0.128,0.482-0.253,0.71-0.39C329.697,584.904,329.453,585.029,329.214,585.157z M327.55,585.938
	c0.271-0.111,0.545-0.223,0.803-0.342C328.095,585.715,327.821,585.825,327.55,585.938z M325.699,586.6
	c0.305-0.095,0.608-0.188,0.899-0.293C326.308,586.41,326.004,586.505,325.699,586.6z M323.666,587.146
	c0.337-0.078,0.672-0.156,0.993-0.242C324.337,586.99,324.003,587.068,323.666,587.146z M321.447,587.577
	c0.369-0.061,0.734-0.121,1.088-0.189C322.181,587.456,321.816,587.518,321.447,587.577z M319.041,587.893
	c0.402-0.041,0.801-0.086,1.188-0.137C319.842,587.807,319.445,587.852,319.041,587.893z M316.455,588.093
	c0.436-0.021,0.863-0.05,1.283-0.082C317.319,588.043,316.891,588.07,316.455,588.093z M384.163,550H384v0.216v80.869V632h0.163
	h44.814H429v-0.915v-10.918V620h-0.022H396v-27h32.978H429v-0.636v-10.918V581h-0.022H396v-19h32.978H429v-0.739v-11.045V550h-0.022
	H384.163z M505.379,647l-6.472-14h-25.59l27.857-61.844L532.498,640h16.187l-47.163-104.229l-0.596-1.429l-0.592,1.255
	l-49.375,109.996L450.545,647h0.705H505.379z M562.36,550H562v0.216v11.045V562h0.359H581v69.085V632h0.594h10.918H593v-0.915V562
	h18.809H612v-0.739v-11.045V550h-0.191H562.36z M691.575,550h-44.813H646v0.216v80.869V632h0.762h44.813H692v-0.915v-10.918V620
	h-0.425H658v-27h33.575H692v-0.636v-10.918V581h-0.425H658v-19h33.575H692v-0.739v-11.045V550H691.575z M523,403v-20.937
	c0-2.896,1-5.33,2.643-7.301c1.642-1.971,3.842-2.957,6.201-2.957c3.971,0,6.156,2.419,6.156,7.256V403h8v-20.22
	c0-3.075,0.588-5.659,2.189-7.749c1.604-2.09,3.497-3.135,5.804-3.135c4.044,0,6.007,2.045,6.007,6.136V403h8v-26.983
	c0-3.016-1.216-5.621-3.343-7.816c-2.129-2.195-4.736-3.292-7.675-3.292c-2.397,0-4.542,0.612-6.354,1.836
	c-1.814,1.225-3.714,3.18-5.662,5.868c-1.105-2.688-2.466-4.644-4.063-5.868c-1.598-1.224-3.805-1.836-6.609-1.836
	c-2.15,0-4.235,0.538-5.895,1.612c-1.657,1.075-3.397,2.777-5.397,5.106V366h-7v37H523z M609,373.463
	c-2-2.538-3.605-4.598-6.203-6.181c-2.599-1.583-5.426-2.374-8.32-2.374c-4.688,0-8.813,1.934-12.29,5.801
	c-3.479,3.867-5.238,8.384-5.238,13.549c0,5.465,1.716,10.108,5.164,13.931c3.449,3.823,7.759,5.733,12.626,5.733
	c5.615,0,10.263-2.792,14.263-8.376V403h7v-37h-7L609,373.463L609,373.463z M606.127,393.194c-2.424,2.435-5.325,3.651-8.705,3.651
	c-3.411,0-6.313-1.224-8.706-3.673c-2.395-2.448-3.591-5.42-3.591-8.914c0-3.225,1.228-6.031,3.681-8.421
	c2.453-2.389,5.325-3.583,8.616-3.583c3.38,0,6.281,1.202,8.705,3.605c2.423,2.404,3.635,5.293,3.635,8.667
	C609.762,387.872,608.55,390.761,606.127,393.194z M628,388h21v-7h-21V388z M674.997,393.711L662.796,420h8.139l24.962-54h-8.039
	l-9.268,20.075L665.187,366h-8.841L674.997,393.711z M736,373.463c-2-2.538-3.591-4.598-6.188-6.181s-5.417-2.374-8.312-2.374
	c-4.689,0-8.81,1.934-12.287,5.801c-3.479,3.867-5.236,8.384-5.236,13.549c0,5.465,1.716,10.108,5.165,13.931
	c3.449,3.823,7.745,5.733,12.612,5.733c5.612,0,10.245-2.792,14.245-8.376V403h8v-37h-8L736,373.463L736,373.463z M733.156,393.194
	c-2.423,2.435-5.325,3.651-8.705,3.651c-3.411,0-6.313-1.224-8.706-3.673c-2.394-2.448-3.59-5.42-3.59-8.914
	c0-3.225,1.228-6.031,3.681-8.421c2.452-2.389,5.324-3.583,8.615-3.583c3.38,0,6.282,1.202,8.705,3.605
	c2.423,2.404,3.635,5.293,3.635,8.667C736.791,387.872,735.579,390.761,733.156,393.194z M755,355h4.814
	c-0.061,3-1.553,6.171-4.479,9.097l3.584,3.317c1.819-1.672,3.33-3.649,4.405-5.889c1.075-2.24,1.675-4.396,1.675-6.427V345h-10V355
	z M785.884,364.908c-3.493,0-6.398,1.022-8.712,3.067c-2.314,2.044-3.473,4.603-3.473,7.677c0,2.478,0.813,4.559,2.441,6.245
	c1.627,1.687,4.562,3.353,8.802,4.999s6.36,3.5,6.36,5.56c0,1.165-0.604,2.188-1.813,3.068c-1.21,0.881-2.621,1.321-4.232,1.321
	c-2.329,0-4.568-1.045-6.72-3.136l-6.137,2.957c3.345,4.837,7.63,7.256,12.855,7.256c3.434,0,6.42-1.156,8.959-3.468
	c2.537-2.312,3.807-5.019,3.807-8.122c0-2.655-0.881-4.921-2.643-6.801c-1.763-1.879-4.651-3.606-8.667-5.182
	c-4.018-1.575-6.024-3.199-6.024-4.872c0-2.329,1.582-3.494,4.748-3.494c1.344,0,2.508,0.247,3.493,0.739
	c0.984,0.492,2.149,1.217,3.494,2.172l5.195-4.569C793.288,366.715,789.378,364.908,785.884,364.908z"/>
</svg>
