<?xml version="1.0" encoding="utf-8"?>
<!-- Generator: Adobe Illustrator 16.0.0, SVG Export Plug-In . SVG Version: 6.00 Build 0)  -->
<!DOCTYPE svg PUBLIC "-//W3C//DTD SVG 1.1//EN" "http://www.w3.org/Graphics/SVG/1.1/DTD/svg11.dtd">
<svg version="1.1" id="メガネ" xmlns="http://www.w3.org/2000/svg" xmlns:xlink="http://www.w3.org/1999/xlink" x="0px" y="0px"
	 width="618.4px" height="302.289px" viewBox="0 0 618.4 302.289" enable-background="new 0 0 618.4 302.289" xml:space="preserve">
<path fill="#1D1D1D" d="M184.712,236.744v13.582c-9.779,0.578-20.007,0.848-30.142,0.643c0.963-0.857,1.863-1.764,2.685-2.723
	c2.802-3.275,4.826-6.975,6.036-10.943C170.47,237.382,177.707,237.173,184.712,236.744z M71.781,238.382
	c6.121,1.902,15.799,4.67,28.931,7.139v-15.824c-7.955-1.752-14.313-3.506-18.207-4.906c-0.168-0.063-0.34-0.133-0.51-0.199
	c-0.595,1.322-1.531,2.482-2.762,3.326c-1.352,0.924-2.931,1.4-4.521,1.4c-0.976,0-1.954-0.18-2.889-0.539l-0.91-0.355
	c-0.216-0.084-0.427-0.176-0.634-0.275c-6.619-3.244-12.986-5.109-18.565-5.471C56.865,230.316,62.198,235.408,71.781,238.382z
	 M616.374,88.261c-1.965-2.836-5.648-4.801-12.248-5.805c-21.354-3.248-42.875-6.944-64.43-8.432
	c-14.412-0.994-29.094-1.615-43.543-1.297c-56.045,1.234-116.229,12.773-127.361,16.885c-11.113,4.131-37.91,13.203-45.732,14.844
	c-7.832,1.656-14.003,1.236-14.003,1.236s-6.201,0.42-14.004-1.236c-7.842-1.641-34.619-10.713-45.752-14.844
	c-11.145-4.111-71.3-15.648-127.346-16.885c-35.988-0.796-74.666,1.96-109.766,10.469c-13.348,3.234-12.7,9.217-11.742,21.389
	c0.561,7.096,0.993,14.203,1.625,21.297c0,0,1.642,4.127,2.062,5.357c0.41,1.25,5.822,7.836,10.772,11.945
	c4.933,4.133,10.714,28.016,13.604,34.621c1.443,3.303,4.648,10.225,8.314,17.709c3.97-0.885,8.114-1.34,12.435-1.34
	c1.592,0,3.208,0.088,4.836,0.217c-0.439-0.857-0.86-1.717-1.259-2.57c-14.015-30.084-13.213-63.043-13.213-63.043
	c0.42-3.719,0-19.961,5.371-26.963c5.36-7.008,5.771-8.313,15.664-11.203c9.883-2.875,50.983-5.111,82.303-3.461
	c31.31,1.646,84.481,11.123,94.784,14.834c10.305,3.707,18.137,7.832,25.156,16.895c6.992,9.068,11.113,13.609,9.863,25.557
	c-1.222,11.949-12.334,53.969-16.886,63.039c-3.813,7.617-9.377,15.508-20.814,20.525h2.623c4.418,0,8.021,3.582,8.021,8v5.021
	c12.271-5.979,20.517-22.203,25.015-32.316c4.939-11.123,9.48-24.309,13.584-35.852c4.121-11.537,10.742-31.721,14.004-34.604
	c3.32-2.887,10.742-1.65,10.742-1.65s7.413-1.234,10.692,1.65c3.313,2.885,9.912,23.066,14.033,34.604
	c4.111,11.543,8.633,24.729,13.584,35.852c4.951,11.133,14.424,29.678,28.867,33.799c1.525,0.438,3.375,0.893,5.479,1.355v-16.447
	c-1.578-0.752-3.047-1.559-4.398-2.412h-6.598c-4.42,0-8-3.582-8-8v-8.537c-0.174-0.33-0.348-0.66-0.514-0.988
	c-4.52-9.07-15.664-51.09-16.885-63.039c-1.25-11.945,2.871-16.486,9.893-25.557c6.992-9.063,14.834-13.188,25.146-16.895
	c10.283-3.711,63.457-13.188,94.766-14.834c31.328-1.65,72.432,0.586,82.314,3.461c9.893,2.891,10.313,4.195,15.664,11.203
	c5.359,7.002,4.939,23.244,5.359,26.963c0,0,0.83,32.959-13.184,63.043c-6.611,14.197-19.375,29.258-29.697,32.969
	c-5.396,1.941-15.537,4.566-28.119,6.922c0.789,1.24,1.254,2.709,1.254,4.289v11.016c17.613-2.771,30.197-6.334,37.607-8.633
	c11.943-3.711,17.305-10.703,23.906-21.836c6.582-11.133,16.475-32.146,19.354-38.74c2.893-6.605,8.662-30.488,13.604-34.621
	c4.951-4.109,10.361-10.695,10.764-11.945c0.42-1.23,2.07-5.357,2.07-5.357c0.482-5.428,0.93-10.859,1.355-16.295
	C618.11,100.296,619.688,93.042,616.374,88.261z M446.712,237.275c-13.107-0.234-26.051-1.346-37-2.908v13.908
	c11.184,1.279,23.914,2.273,37,2.625V237.275z M590.374,276.621l-0.49-0.146l-0.133,0.496c-0.594,2.227-1.717,3.986-3.338,5.24
	s-3.504,1.889-5.594,1.889c-3.051,0-5.367-0.982-7.078-3.008c-1.711-2.02-2.578-4.873-2.578-8.482c0-3.615,0.893-6.563,2.646-8.75
	c1.752-2.189,3.996-3.25,6.854-3.25c4.344,0,7.166,1.859,8.637,5.691l0.156,0.412l0.43-0.104l4.646-1.135l0.506-0.123l-0.145-0.502
	c-0.891-3.066-2.551-5.451-4.943-7.09c-2.379-1.627-5.346-2.451-8.816-2.451c-4.885,0-8.859,1.529-11.82,4.545
	c-2.961,3.014-4.461,7.055-4.461,12.012c0,5.52,1.441,9.922,4.289,13.088c2.857,3.182,6.813,4.795,11.758,4.795
	c3.557,0,6.699-0.984,9.34-2.93c2.648-1.949,4.428-4.705,5.287-8.193l0.113-0.465l-0.459-0.133L590.374,276.621z M610.735,272.296
	c0,8.197-2.961,15.32-8.799,21.174s-12.943,8.818-21.115,8.818c-8.225,0-15.361-2.961-21.213-8.799s-8.818-12.969-8.818-21.193
	c0-8.199,2.969-15.314,8.818-21.154c5.852-5.84,12.988-8.799,21.213-8.799c8.172,0,15.275,2.959,21.115,8.799
	C607.774,256.982,610.735,264.099,610.735,272.296z M597.772,289.326c4.697-4.727,7.08-10.453,7.08-17.029s-2.381-12.291-7.08-16.99
	c-4.699-4.697-10.402-7.08-16.951-7.08c-6.602,0-12.338,2.383-17.049,7.08c-4.711,4.699-7.1,10.414-7.1,16.99
	c0,6.604,2.389,12.338,7.1,17.049s10.447,7.102,17.049,7.102C587.368,296.445,593.073,294.05,597.772,289.326z M49.258,202.177
	c-12.392,0-23.132,4.271-31.925,12.697c-8.801,8.432-13.263,18.713-13.263,30.555c0,12.055,4.537,22.494,13.485,31.029
	c8.941,8.531,19.863,12.855,32.464,12.855c8.589,0,16.871-1.984,24.231-5.898l0.459-0.291v-0.15v-12.631v-1.094l-0.938,0.658
	c-7.926,4.463-15.629,6.727-22.703,6.727c-9.729,0-17.98-2.996-24.436-8.904c-6.441-5.896-9.731-13.355-9.731-22.174
	c0-8.65,3.182-16.051,9.479-21.99c6.308-5.945,14.174-8.963,23.392-8.963c7.208,0,15.419,2.141,24.027,6.359l0.911,0.354v-0.803
	v-12.504v-0.238l-0.5-0.223C65.726,203.984,57.201,202.177,49.258,202.177z M158.115,286.011l0.53,0.988H157.7h-12.67l0,0
	l-0.415-0.59L122.331,253h-1.619v33.086V287h-0.591h-11.045h-0.364v-0.914v-80.869V205h0.364h17.521
	c8.791,0,16.061,2.082,21.604,6.471c5.581,4.416,8.41,10.012,8.41,16.908c0,5.512-1.83,10.447-5.438,14.668
	c-3.487,4.076-8.915,7.021-16.146,8.754L158.115,286.011z M121.782,242.691c15.025,0,22.29-4.473,22.29-13.674
	c0-3.283-0.909-6.006-2.722-8.08c-1.825-2.09-4.28-3.531-7.338-4.287c-3.035-0.748-7.301-1.139-13.301-1.158v27.189
	C120.712,242.689,121.416,242.691,121.782,242.691z M140.695,238.251c0.179-0.16,0.365-0.314,0.531-0.482
	C141.06,237.937,140.872,238.091,140.695,238.251z M144.012,232.988c0.057-0.199,0.128-0.391,0.177-0.596
	C144.141,232.599,144.069,232.789,144.012,232.988z M143.458,234.5c0.09-0.197,0.188-0.385,0.268-0.59
	C143.648,234.115,143.548,234.302,143.458,234.5z M142.723,235.873c0.118-0.188,0.247-0.367,0.354-0.563
	C142.97,235.505,142.841,235.687,142.723,235.873z M141.802,237.123c0.146-0.174,0.306-0.344,0.44-0.525
	C142.108,236.779,141.949,236.949,141.802,237.123z M144.468,230.763c-0.021,0.188-0.063,0.355-0.09,0.537
	C144.405,231.119,144.447,230.949,144.468,230.763z M122.398,243.177c0.466-0.004,0.924-0.014,1.375-0.025
	C123.322,243.164,122.864,243.173,122.398,243.177z M139.402,239.263c0.21-0.145,0.425-0.285,0.621-0.438
	C139.826,238.978,139.612,239.119,139.402,239.263z M137.926,240.158c0.238-0.129,0.481-0.254,0.71-0.391
	C138.408,239.904,138.164,240.029,137.926,240.158z M136.262,240.937c0.271-0.109,0.545-0.223,0.803-0.342
	C136.807,240.714,136.532,240.826,136.262,240.937z M134.41,241.599c0.306-0.094,0.608-0.188,0.899-0.293
	C135.02,241.41,134.716,241.505,134.41,241.599z M132.378,242.146c0.337-0.078,0.672-0.156,0.992-0.242
	C133.049,241.99,132.715,242.068,132.378,242.146z M130.158,242.578c0.369-0.063,0.734-0.121,1.088-0.189
	C130.893,242.457,130.528,242.517,130.158,242.578z M127.753,242.892c0.401-0.041,0.801-0.086,1.188-0.137
	C128.554,242.806,128.156,242.851,127.753,242.892z M125.166,243.093c0.437-0.021,0.863-0.051,1.283-0.082
	C126.031,243.042,125.603,243.07,125.166,243.093z M192.874,205h-0.162v0.217v80.869V287h0.162h44.814h0.023v-0.914v-10.918V275
	h-0.022h-32.978v-27h32.978h0.022v-0.635v-10.918V236h-0.022h-32.978v-19h32.978h0.022v-0.738v-11.045V205h-0.022H192.874z
	 M314.091,302l-6.472-14h-25.59l27.857-61.844L341.21,295h16.188l-47.164-104.229l-0.595-1.43l-0.592,1.256l-49.375,109.996
	L259.257,302h0.705H314.091z M371.071,205h-0.359v0.217v11.045V217h0.359h18.641v69.086V287h0.594h10.918h0.488v-0.914V217h18.809
	h0.191v-0.738v-11.045V205h-0.191H371.071z M500.286,205h-44.813h-0.762v0.217v80.869V287h0.762h44.813h0.426v-0.914v-10.918V275
	h-0.426h-33.574v-27h33.574h0.426v-0.635v-10.918V236h-0.426h-33.574v-19h33.574h0.426v-0.738v-11.045V205H500.286z M331.712,58
	V37.063c0-2.896,1-5.33,2.643-7.302c1.643-1.971,3.842-2.956,6.201-2.956c3.971,0,6.156,2.419,6.156,7.256V58h8V37.781
	c0-3.076,0.588-5.66,2.189-7.75c1.604-2.09,3.496-3.135,5.803-3.135c4.045,0,6.008,2.045,6.008,6.137V58h8V31.017
	c0-3.016-1.217-5.621-3.344-7.816c-2.129-2.195-4.734-3.291-7.674-3.291c-2.396,0-4.543,0.611-6.354,1.836
	c-1.814,1.225-3.715,3.18-5.662,5.867c-1.105-2.688-2.467-4.645-4.064-5.867c-1.598-1.225-3.805-1.836-6.607-1.836
	c-2.15,0-4.236,0.537-5.896,1.611c-1.656,1.075-3.396,2.777-5.396,5.105V21h-7v37H331.712z M417.712,28.462
	c-2-2.537-3.605-4.598-6.203-6.18c-2.6-1.584-5.426-2.375-8.32-2.375c-4.688,0-8.813,1.934-12.289,5.801
	c-3.48,3.867-5.238,8.385-5.238,13.549c0,5.466,1.715,10.109,5.164,13.932c3.449,3.823,7.758,5.732,12.625,5.732
	c5.615,0,10.264-2.791,14.264-8.375V58h7V21h-7L417.712,28.462L417.712,28.462z M414.839,48.194
	c-2.424,2.435-5.324,3.651-8.705,3.651c-3.41,0-6.313-1.225-8.705-3.674c-2.396-2.447-3.592-5.42-3.592-8.914
	c0-3.225,1.229-6.03,3.682-8.42c2.453-2.389,5.324-3.584,8.615-3.584c3.381,0,6.281,1.203,8.705,3.605
	c2.424,2.404,3.635,5.293,3.635,8.667C418.473,42.873,417.262,45.761,414.839,48.194z M436.712,43h21v-7h-21V43z M483.708,48.71
	L471.509,75h8.139l24.961-54h-8.039l-9.268,20.076L473.899,21h-8.842L483.708,48.71z M544.712,28.462
	c-2-2.537-3.592-4.598-6.188-6.18c-2.598-1.584-5.418-2.375-8.313-2.375c-4.689,0-8.811,1.934-12.287,5.801
	c-3.479,3.867-5.236,8.385-5.236,13.549c0,5.466,1.717,10.109,5.166,13.932c3.449,3.823,7.744,5.732,12.611,5.732
	c5.611,0,10.244-2.791,14.244-8.375V58h8V21h-8L544.712,28.462L544.712,28.462z M541.868,48.194
	c-2.424,2.435-5.326,3.651-8.705,3.651c-3.412,0-6.313-1.225-8.707-3.674c-2.393-2.447-3.59-5.42-3.59-8.914
	c0-3.225,1.229-6.03,3.682-8.42c2.451-2.389,5.324-3.584,8.615-3.584c3.379,0,6.281,1.203,8.705,3.605
	c2.422,2.404,3.635,5.293,3.635,8.667C545.503,42.873,544.29,45.761,541.868,48.194z M563.712,10h4.814
	c-0.061,3-1.553,6.172-4.479,9.098l3.584,3.316c1.818-1.672,3.328-3.648,4.404-5.889c1.074-2.24,1.674-4.396,1.674-6.427V0h-10v10
	H563.712z M594.596,19.908c-3.494,0-6.398,1.022-8.713,3.067c-2.314,2.044-3.473,4.603-3.473,7.677c0,2.479,0.813,4.559,2.441,6.245
	c1.627,1.687,4.561,3.353,8.801,4.999s6.361,3.5,6.361,5.561c0,1.164-0.605,2.188-1.814,3.067c-1.209,0.881-2.621,1.321-4.23,1.321
	c-2.33,0-4.568-1.045-6.721-3.137l-6.137,2.957c3.344,4.838,7.629,7.256,12.855,7.256c3.434,0,6.42-1.155,8.959-3.467
	c2.535-2.313,3.807-5.02,3.807-8.123c0-2.654-0.881-4.92-2.645-6.801c-1.762-1.879-4.65-3.605-8.666-5.182
	c-4.018-1.575-6.023-3.199-6.023-4.872c0-2.329,1.582-3.494,4.748-3.494c1.344,0,2.508,0.247,3.492,0.739s2.148,1.217,3.494,2.172
	l5.195-4.568C601.999,21.714,598.091,19.908,594.596,19.908z"/>
</svg>
