<svg width="187" height="27" fill="none" xmlns="http://www.w3.org/2000/svg"><path d="M3.22 19h2.506v-8.344h2.828V8.57H.406v2.086H3.22V19zm11.21-5.208c.267-1.036.546-2.254.799-3.346h.056c.28 1.064.546 2.31.825 3.346l.224.882h-2.127l.223-.882zM10.58 19h2.549l.601-2.394h3.08L17.414 19h2.631L16.811 8.57h-2.996L10.58 19zm12.939 0h2.24v-3.57c0-1.036-.196-2.59-.322-3.612h.056l.84 2.492 1.414 3.808h1.372l1.4-3.808.868-2.492h.07c-.14 1.022-.336 2.576-.336 3.612V19h2.282V8.57h-2.716l-1.596 4.508c-.196.602-.364 1.26-.574 1.89h-.07c-.196-.63-.364-1.288-.574-1.89L26.22 8.57h-2.702V19zm16.673 0h2.506v-8.344h2.828V8.57h-8.148v2.086h2.814V19zm11.21-5.208c.267-1.036.547-2.254.798-3.346h.056c.28 1.064.547 2.31.827 3.346l.224.882h-2.129l.225-.882zM47.553 19H50.1l.602-2.394h3.08L54.386 19h2.632L53.782 8.57h-2.995L47.552 19zm12.939 0h2.24v-3.57c0-1.036-.196-2.59-.322-3.612h.056l.84 2.492 1.414 3.808h1.372l1.4-3.808.868-2.492h.07c-.14 1.022-.336 2.576-.336 3.612V19h2.282V8.57h-2.716l-1.596 4.508c-.196.602-.364 1.26-.574 1.89h-.07c-.196-.63-.364-1.288-.574-1.89L63.193 8.57H60.49V19zM116.54 18h2.296c3.136 0 4.55-2.086 4.55-5.11 0-3.038-1.414-5.054-4.564-5.054h-2.282V18zm.518-.462v-9.24h1.694c2.884 0 4.088 1.904 4.088 4.592 0 2.674-1.204 4.648-4.088 4.648h-1.694zm17.698.462h.518V7.836h-.518V18zm13.83-6.09c.434-1.232.798-2.268 1.176-3.542h.056c.378 1.274.728 2.31 1.162 3.542l.7 2.03h-3.808l.714-2.03zm-2.66 6.09h.518l1.274-3.612h4.116l1.26 3.612h.56l-3.64-10.164h-.462L145.926 18zm18.385 0h.518v-4.788h2.254l2.87 4.788h.602l-2.87-4.816c1.68-.168 2.716-1.092 2.716-2.73 0-1.876-1.274-2.618-3.276-2.618h-2.814V18zm.518-5.236V8.298h2.114c1.862 0 2.898.574 2.898 2.156 0 1.568-1.036 2.31-2.898 2.31h-2.114zM183.219 18h.518v-4.172l3.052-5.992h-.518l-1.624 3.262c-.336.756-.728 1.47-1.134 2.212h-.056c-.406-.742-.742-1.456-1.12-2.212l-1.61-3.262h-.56l3.052 5.992V18z" fill="#000"/><path fill-rule="evenodd" clip-rule="evenodd" d="M93.5 26c6.904 0 12.5-5.596 12.5-12.5 0-6.182-4.487-11.315-10.382-12.321L90.06 16.574h-1.258l4.836-13.685a10.376 10.376 0 01-1.627 1.503c-.565.407-1.13.742-1.695 1.006-.557.263-1.1.456-1.627.576-.528.12-1.013.18-1.458.18v-.372c.543 0 1.145-.102 1.808-.305a8.929 8.929 0 002.023-.96c.686-.43 1.356-.976 2.011-1.64a10.972 10.972 0 001.45-1.836A12.668 12.668 0 0093.5 1C86.596 1 81 6.596 81 13.5c0 5.666 3.77 10.451 8.938 11.985l4.644-12.467h1.149l-1.25 3.412c.662-1.104 1.32-1.93 1.972-2.476.657-.552 1.325-.828 2.003-.828.316 0 .588.06.816.178.227.119.414.281.559.487.145.207.251.452.318.736.067.278.101.58.101.905 0 .345-.036.724-.109 1.137a8.066 8.066 0 01-.303 1.222c-.264.805-.608 1.506-1.032 2.104a7.194 7.194 0 01-1.382 1.501 5.705 5.705 0 01-1.546.898 4.43 4.43 0 01-1.53.294c-.263 0-.491-.031-.683-.093a1.036 1.036 0 01-.458-.294 1.335 1.335 0 01-.272-.518 2.89 2.89 0 01-.1-.759l-1.767 4.84c.786.155 1.6.236 2.432.236zm0 1c7.456 0 13.5-6.044 13.5-13.5S100.956 0 93.5 0 80 6.044 80 13.5 86.044 27 93.5 27zm3.838-13.247c.295-.16.58-.24.854-.24.342 0 .593.116.754.348.16.227.24.54.24.936 0 .18-.018.387-.054.62a8.096 8.096 0 01-.14.75 13.55 13.55 0 01-.528 1.702c-.331.86-.694 1.575-1.087 2.143-.388.567-.777 1.018-1.165 1.353-.383.336-.75.573-1.103.712-.346.134-.644.201-.892.201a1.22 1.22 0 01-.498-.092 1.032 1.032 0 01-.341-.271 1.204 1.204 0 01-.194-.41 2.03 2.03 0 01-.062-.51c0-.264.041-.573.124-.93.088-.355.207-.732.357-1.129.15-.402.329-.815.536-1.238.212-.423.443-.835.691-1.237.248-.403.51-.782.784-1.138.28-.356.564-.668.854-.936.29-.268.58-.48.87-.634z" fill="#000"/></svg>