<svg xmlns="http://www.w3.org/2000/svg" width="838" height="838"><g fill-rule="evenodd" clip-rule="evenodd"><path fill="#D3D3D3" d="M561.076 78c-28.8-.7-50.74 13.36-72 28-18.35 12.64-42.78 28.78-56 47-9.85 13.58-17.029 32.17-27 49-3.609 6.1-9 13.05-15 23-6.49 10.77-13.06 34.92-24 17-5.3-14.53-8.06-32.66-6-52 7.11-66.73 85.27-86.31 106-142 8.71-28.8-15.68-28.47-37-22-58.49 17.76-82.42 69.08-105 120-12.24 27.61-20.89 55.96-20 91-72.96 28.23-133.09 67.69-164 140-26.28 61.48 7.07 122.84 48 145 32.91 17.82 74.19 19.65 119 22 43.8 2.3 85.96.1 125-12 32.15-9.96 73.82-28.3 92-50 7.07-8.43 20.08-30.3 22-42 6.91-42.1-8.02-74.92-22-95-5.8-8.33-15.37-17.16-24-25-8.8-7.99-17.02-17.12-25-24-9.86-8.5-23.17-13.63-31-23-4.65-5.57-16.311-22.3-13-29 14.82-36.03 28.02-60.72 51-80 27.49-23.06 76.83-25.03 85-67 .29-8.96-3.19-14.15-7-19zm149 622c-.73 13.97-4.2 29.54-11 42-11.09 20.33-21.14 34.48-45 42-8.28 2.61-18.23 2.79-28 6-23.47 7.71-51.84 16.92-81 20-18.54 1.96-42.3 1.92-65 3-23.83 1.13-46.92 2.16-61-4-8.3-3.63-20.83-14.51-22-22-1.48-9.48 3.38-22.46 7-27 7.95-9.97 24.55-5.25 34-14-.94-40.27 13.41-92.42 36-121 7-8.85 16.06-19.68 23-24 5.16-3.21 12.83-2.42 16-9-7.86-13.19-23.68-1.9-30 4-27.28 25.48-41.66 55.96-53 101-3.65 14.48-8.88 23.26-8 41-26.221 4.78-38.79 23.21-48 45-10.18-14.75-.62-43.55-4-59-16.32-6.97-28.37 25.61-34 37-8.85 17.9-15.73 33.51-23 45-23.65-24.67-31.79-69.18-38-115-6-44.26-10.41-99.93 7-136 60.87 6.28 117.4 4.54 169-15 29.88-11.32 58.76-25.72 78-42 9.5-8.03 16.01-20.66 22-33 11.75 3.58 19.86 10.8 30 16a51.578 51.578 0 00-.06 2.24c16.911 9.804 30.889 22.685 43.734 35.227a55.598 55.598 0 002.325-.467c5.79 4.87 11.18 10.16 15 17-.04.952-.048 1.877-.042 2.79 21.721 23.574 37.01 45.655 48.046 69.41 11.916 25.648 17.992 52.854 19.647 80.997.16 2.72.293 5.456.273 8.186.058 1.151.091 2.342.077 3.617z"/><path fill="#C9C9C9" d="M774.087 702.29l-.011-1.314c-.093-11.193-7.647-17.876-20.208-17.876-11.338 0-26.297 5.867-30.496 14.601l-.902 1.878 1.445 1.502c.421.438.874.857 1.345 1.27-1.56 14.051-4.107 27.122-9.184 37.65 10.28 7.05 22.31 12.36 37 15 11.679-10.619 19.83-28.848 18.803-50.737.431-.346.851-.701 1.248-1.073l.96-.901z"/><path fill="#FFF" d="M742.453 755c-10.938 0-21.256-7.036-26.928-18.364l-1.445-2.887.902-3.609c4.199-16.785 19.158-28.062 30.496-28.062 12.561 0 20.115 12.844 20.208 34.357l.011 2.526-.96 1.729c-5.124 9.227-13.038 14.31-22.284 14.31zM421.965 755.327s50.084 31.628 162.578-.327c0 0 86.995-52.922 105.533 6 7.063 22.452-27 30.685-27 30.685s-176.295 37.934-230 28.315-53.223-69.346-11.111-64.673z"/><path fill="#FFF" d="M304.642 805.102s-18.23-99.641 33.913-136.641c52.144-37 100.964-15.998 100.964-15.998l-25.595 90.791-41.844 53.438-27.235-30-40.203 38.41z"/><g fill="#FFF"><path d="M432.302 235.859c14.98-36.42 28.267-61.375 51.847-81.157 9.821-8.239 22.335-13.87 34.437-19.315 22.884-10.297 44.498-20.023 49.547-45.959l5.942.474c1.033 31.181-22.751 56.836-37.02 69.354-12.798 11.226-27.162 21.12-41.054 30.688-12.14 8.363-23.607 16.261-32.966 24.329-3.315 2.858-6.489 6.588-9.56 10.194-5.193 6.103-10.564 12.414-17.209 15.287l-6.771 2.928 2.807-6.823zM363.788 242.372c-5.913-16.21-8.633-38.5-6.695-56.689 4.098-38.461 31.026-61.697 57.069-84.168 20.685-17.848 42.137-34.283 51.017-58.137-1.363 17.125-5.029 32.271-12.334 46.085a703.29 703.29 0 00-3.104 5.914c-2.693 5.212-5.21 10.666-7.644 15.94-4.622 10.015-9.401 20.371-15.543 29.374-2.842 4.169-6.231 7.718-9.51 11.149-3.119 3.266-6.064 6.351-8.503 9.869-3.485 5.023-6.411 10.348-9.508 15.986-1.4 2.549-2.849 5.186-4.359 7.804-10.239 17.749-19.245 34.022-25.754 53.454l-1.906 8.133-3.226-4.714z"/></g><path fill="#FFF" d="M540.802 384.882S601.108 522 379.092 551c0 0-41.799 11.246-73.858-8.996l-1.684-.141C376.076 527.25 491.076 494 540.802 384.882z"/><path fill="#FCD9E1" d="M372.076 370c.42 30-26.08 61.25-58 65-12.04 1.41-31.83 2.51-39 0-10.7-3.75-25.5-24.4-25-40 18.48.13 31.66 7.98 48 5 24.99-4.56 51.49-21.63 73-30 .19-1.14 1-.56 1 0z"/><path d="M295.546 454.277c-25.938-.002-44.644-10.225-57.188-31.253-2.991-5.008-12.058-32.79-7.486-45.067 1.13-3.035 3.006-5.005 5.576-5.856 1.391-.461 2.641-.685 3.82-.685 3.862 0 5.958 2.466 7.642 4.448 1.1 1.294 2.142 2.521 3.592 3.151 8.106.349 14.77 1.702 20.66 2.897 5.759 1.169 10.732 2.179 16.106 2.179.898 0 1.799-.029 2.677-.087 23.306-1.543 63.214-23.368 81.06-34.693 2.217-1.404 4.55-2.116 6.936-2.116 2.356 0 4.758.697 7.137 2.073l.719.416.214.802c5.762 21.687 2.599 42.996-9.146 61.624-12.843 20.371-35.056 35.27-59.417 39.855-8.152 1.534-15.855 2.312-22.896 2.312h-.006zm-43.445-57.231c.785 14.042 13.937 32.667 23.637 36.066 1.805.632 5.721 1.386 14.122 1.386 7.083 0 16.049-.555 23.984-1.484 29.519-3.468 55.167-31.364 56.205-60.453-6.887 2.792-14.252 6.401-22.015 10.205-16.228 7.952-33.007 16.174-49.599 19.202a43.863 43.863 0 01-7.962.708c-6.521 0-12.589-1.309-19.014-2.694-6.084-1.314-12.357-2.667-19.358-2.936z"/><g><path fill="#E8E8E8" d="M366.375 335.997c-.35 0-.7-.009-1.052-.024-6.582-.314-12.766-5.104-15.755-12.205-1.861-4.421-2.377-9.501-1.453-14.305.291-1.507 3.282-14.713 18.747-15.652l.129-.008.129.012c2.932.246 12.82 1.666 16.965 9.615 1.395 2.674 2.043 5.875 1.875 9.256-.714 14.379-8.219 23.311-19.585 23.311z"/><path fill="#E5E5E5" d="M232.143 348.289c-3.722.556-16.177 1.195-20.217-13.983-1.493-5.784-1.826-10.933-1.009-15.387 1.499-8.188 6.526-11.644 11.243-13.943l.217-.107.23-.034c10.776-1.614 17.384 3.086 19.64 13.971 1.415 6.813 1.418 13.114.013 18.222-2.063 7.503-6.739 10.756-10.117 11.261z"/><g><path d="M365.076 328c-6.79 12.1-24.05 15.13-31 6-24.38-32 22.31-63.85 33-27 .21.53.38 1.07.52 1.62 1.95 7.36-1.21 16.59-2.52 19.38zM227.076 341c-1.25-5.08-3.26-9.41-3-16 1.59-13.75 13.99-30.99 31-23 24.88 11.69 4 71-28 39z"/></g></g><path d="M314.462 832.141c-13.374 0-23.331-21.855-29.28-34.914-.669-1.468-1.276-2.8-1.817-3.941-7.892-16.663-15.225-33.006-18.242-49.753-14.528-80.766-15.22-143.253-2.068-185.84-50.684-4.282-88.725-18.937-113.112-43.582-24.789-25.063-37.495-60.537-34.86-97.325 3.904-54.458 36.719-93.755 64.871-121.907 33.55-33.55 77.307-55.458 112.142-70.845.628-36.24 14.656-71.633 25.242-95.261 12.63-28.19 26.764-57.003 44.505-76.777 16.198-18.058 47.374-40.411 81.924-43.98a52.438 52.438 0 015.387-.268c11.573 0 26.353 3.642 31.451 11.639 9.425 14.778.541 43.144-3.716 54.653-3.082 8.337-6.916 15.45-10.623 22.329-1.94 3.6-3.822 7.091-5.532 10.635 2.863-1.988 5.839-4.12 8.898-6.313 8.597-6.163 18.341-13.147 28.939-19.287 23.23-13.444 41.527-19.98 55.938-19.98 7.217 0 13.364 1.719 18.271 5.108 10.731 7.401 13.887 26.338 12.276 40.8-4.028 36.278-34.313 60.435-58.646 79.845l-1.465 1.168c-7.643 6.101-15.41 11.822-22.921 17.354-18.833 13.87-36.646 26.99-49.614 43.865 3.926 11.182 13.692 18.578 23.149 25.74a430.692 430.692 0 014.356 3.328c9.845 7.657 18.084 15.96 26.808 24.751 1.48 1.493 2.969 2.992 4.472 4.496 1.25 1.25 2.491 2.485 3.721 3.709 19.75 19.656 36.806 36.631 46.047 69.603 4.573 16.313 6.606 51.743-.047 71.157 38.373 16.252 71.976 43.911 105.521 86.805 2.678 3.423 5.451 6.869 8.134 10.202 11.489 14.277 23.371 29.041 32.204 47.342 10.778 22.337 15.585 47.756 19.685 74.095 9.867-3.805 19.537-5.804 28.167-5.804 19.908 0 32.818 10.789 35.419 29.602 2.02 14.62-.662 32.968-7.173 49.081-6.762 16.734-15.948 27.403-25.206 29.271-1.99.402-4.037.606-6.082.606h-.003c-10.247-.001-19.244-4.903-27.945-9.645-4.459-2.43-8.713-4.748-12.84-6.219-14.578 33.215-51.748 41.933-91.045 51.152a1641.004 1641.004 0 00-12.969 3.079c-5.351 1.302-10.714 2.786-16.392 4.357-14.508 4.016-29.509 8.168-46.038 9.715-13.042 1.22-28.132 1.313-42.725 1.404-10.456.065-21.269.133-31.415.605-6.1.283-11.525.421-16.587.421-26.438 0-55.047-3.267-69.645-26.447-.302.63-.591 1.269-.877 1.9-2.056 4.539-4.615 10.188-11.872 10.188-.468 0-.957-.024-1.452-.073-11.591-1.142-16.127-28.111-17.801-44.174-3.067 6.354-6.286 12.457-9.625 18.79-3.468 6.577-7.055 13.378-10.578 20.699-.609 1.268-1.308 2.924-2.047 4.677-3.345 7.932-7.137 16.921-13.136 17.977-.703.124-1.42.187-2.131.187zm188.526-249.28c5.321 0 9.701 2.629 12.665 7.603l.825 1.386-.699 1.452c-2.628 5.454-7.689 6.961-11.757 8.171-1.997.594-3.884 1.155-5.361 2.074-6.694 4.167-15.895 15.302-22.232 23.314-21.115 26.716-36.314 77.904-35.354 119.068l.031 1.353-.992.919c-5.139 4.759-11.753 5.962-18.149 7.126-6.211 1.131-12.078 2.198-15.543 6.543-3.017 3.783-7.73 16.022-6.382 24.667.938 6.006 12.196 16.197 20.238 19.714 7.181 3.142 17.683 4.605 33.05 4.605 8.622 0 18.177-.453 26.605-.854 7.931-.377 16.042-.619 23.886-.854 14.898-.445 28.97-.866 40.941-2.132 29.335-3.099 57.638-12.396 80.379-19.866 5.412-1.778 10.742-2.644 15.896-3.479 4.352-.706 8.462-1.373 12.138-2.532 23.644-7.451 33.214-22.143 43.269-40.575 5.973-10.944 9.848-25.764 10.635-40.664 1.101-78.869-35.334-128.464-67.202-162.86l-.243-.263-.175-.313c-3.833-6.862-9.386-12.023-14.312-16.167l-.088-.073-.081-.08c-13.31-13.043-27.771-26.604-45.322-36.5-3.72-1.912-7.179-4.088-10.525-6.192-5.352-3.366-10.44-6.567-16.51-8.772-6.038 12.294-12.382 23.816-21.606 31.613-22.342 18.905-55.224 33.555-78.874 42.515-32.768 12.408-69.353 18.44-111.846 18.44-17.502 0-35.973-.997-56.4-3.046-16.379 36.25-11.216 92.76-5.843 132.396 5.724 42.232 13.132 85.396 34.555 110.414 4.512-7.673 8.977-16.947 14.042-27.467a1447.73 1447.73 0 016.741-13.873c.699-1.415 1.501-3.167 2.429-5.195 6.275-13.716 15.759-34.443 29.724-34.443 1.914 0 3.836.407 5.714 1.209l1.422.607.331 1.511c1.412 6.451.751 14.676.052 23.383-.837 10.419-1.697 21.123.889 29.146 8.239-17.642 20.522-34.886 45.044-40.326-.219-11.958 2.331-20.023 5.021-28.53 1.069-3.381 2.175-6.878 3.154-10.766 12.193-48.431 27.799-78.115 53.861-102.459 2.75-2.57 12.462-10.948 21.959-10.948zm216.88 156.061c9.771 6.317 20.363 10.535 32.261 12.849 10.416-10.164 19.795-29.685 15.979-55.329l-.03-.207-.002-.209c-.082-9.856-7.771-11.926-14.208-11.926-9.865 0-21.689 5.165-24.854 10.754-1.253 14.439-3.355 30.737-9.146 44.068zM450.703 25.426c-5.499 0-12.331 1.191-19.756 3.444-58.53 17.772-82.224 71.204-103.129 118.346-10.299 23.232-20.7 52.059-19.743 89.708l.054 2.112-1.97.762c-85.492 33.079-135.554 75.757-162.324 138.381-24.853 58.142 4.875 118.554 46.67 141.183 31.657 17.142 72.162 19.259 115.045 21.501l2.684.141c10.151.533 19.961.804 29.158.804 36.273 0 67.282-4.146 94.796-12.673 32.31-10.01 73.073-28.153 90.589-49.062 7.182-8.563 19.58-29.835 21.339-40.559 6.798-41.412-7.94-73.323-21.501-92.8-5.415-7.778-14.232-16.024-23.556-24.494-4.106-3.729-8.083-7.698-11.93-11.536-4.521-4.512-8.791-8.774-13.012-12.412-3.958-3.412-8.648-6.353-13.185-9.197-6.54-4.101-13.303-8.341-18.158-14.151-.186-.222-18.364-22.18-13.388-32.252l.488-.988 1.01-.437c5.362-2.319 10.055-7.832 15.021-13.668 3.218-3.78 6.544-7.689 10.211-10.85 9.605-8.28 21.202-16.269 33.48-24.726 13.749-9.471 27.967-19.264 40.5-30.258 13.472-11.819 35.931-35.933 34.98-64.646l-.004-.098.004-.098c.236-7.306-2.266-11.677-5.492-15.926l-.571-.002c-26.179 0-46.392 12.452-68.237 27.496l-3.63 2.495c-17.635 12.105-39.581 27.171-51.644 43.796-5.621 7.75-10.367 17.208-15.393 27.22-3.572 7.118-7.266 14.478-11.454 21.547-1.692 2.861-3.705 5.813-6.034 9.232-2.697 3.958-5.755 8.443-8.979 13.788-1.259 2.09-2.547 4.766-3.91 7.598-4.088 8.493-8.315 17.274-15.037 17.274-3.624 0-6.954-2.57-10.182-7.858l-.728-1.192.443-1.324c6.686-19.959 15.842-36.512 26.246-54.546 1.479-2.564 2.913-5.173 4.298-7.695 3.035-5.524 6.174-11.236 9.836-16.516 2.705-3.903 5.953-7.305 9.096-10.594 3.253-3.406 6.326-6.624 8.891-10.386 5.861-8.591 10.325-18.265 15.052-28.508 2.462-5.334 5.007-10.85 7.762-16.18a673.555 673.555 0 013.13-5.964c7.02-13.277 14.279-27.005 15.545-42.896l.025-.321.093-.309c2.366-7.821 2.251-13.558-.343-17.051-2.29-3.089-6.716-4.655-13.156-4.655z"/></g></svg>